<svg width="12" height="12" viewBox="0 0 12 12" fill="none" xmlns="http://www.w3.org/2000/svg">
<path fill-rule="evenodd" clip-rule="evenodd" d="M5.8675 6.97273L10.3674 11.4726C10.5174 11.6175 10.7183 11.6977 10.9269 11.6959C11.1355 11.6941 11.335 11.6104 11.4825 11.4629C11.63 11.3154 11.7136 11.1159 11.7154 10.9074C11.7172 10.6988 11.6371 10.4979 11.4922 10.3478L6.99227 5.84795L11.4922 1.34807C11.6371 1.19804 11.7172 0.997108 11.7154 0.788543C11.7136 0.579977 11.63 0.380467 11.4825 0.232983C11.335 0.0854998 11.1355 0.00184245 10.9269 3.00703e-05C10.7183 -0.00178231 10.5174 0.078395 10.3674 0.223293L5.8675 4.72318L1.36762 0.223293C1.21692 0.0819768 1.01715 0.00483422 0.810583 0.00818848C0.604017 0.0115427 0.406859 0.0951309 0.260828 0.241266C0.114796 0.387401 0.0313471 0.584617 0.028139 0.791186C0.0249309 0.997754 0.102215 1.19747 0.243638 1.34807L4.74273 5.84795L0.242843 10.3478C0.166869 10.4212 0.106269 10.509 0.0645805 10.606C0.0228915 10.7031 0.000947842 10.8075 3.0034e-05 10.9131C-0.000887774 11.0187 0.0192384 11.1235 0.0592346 11.2212C0.0992307 11.319 0.158296 11.4078 0.232983 11.4825C0.30767 11.5572 0.396485 11.6162 0.494243 11.6562C0.592001 11.6962 0.696746 11.7163 0.802366 11.7154C0.907986 11.7145 1.01237 11.6926 1.10941 11.6509C1.20646 11.6092 1.29424 11.5486 1.36762 11.4726L5.8675 6.97273Z" fill="#6A59CE"/>
</svg>
