<svg width="37" height="29" viewBox="0 0 37 29" fill="none" xmlns="http://www.w3.org/2000/svg">
<rect width="37" height="28.9825" rx="14.4912" fill="#6A59CE"/>
<g clip-path="url(#clip0_17409_3719)">
<path d="M18.5007 7.82422C22.1827 7.82422 25.1673 10.8089 25.1673 14.4909C25.1673 18.1729 22.1827 21.1576 18.5007 21.1576C14.8187 21.1576 11.834 18.1729 11.834 14.4909C11.834 10.8089 14.8187 7.82422 18.5007 7.82422ZM20.3867 11.6622L15.672 16.3762C15.61 16.4382 15.5609 16.5117 15.5274 16.5926C15.4939 16.6735 15.4766 16.7603 15.4766 16.8479C15.4766 17.0248 15.5469 17.1945 15.672 17.3196C15.7971 17.4446 15.9667 17.5149 16.1437 17.5149C16.3206 17.5149 16.4902 17.4446 16.6153 17.3196L21.3287 12.6056C21.4537 12.4805 21.5241 12.311 21.5241 12.1341C21.5242 11.9573 21.454 11.7876 21.329 11.6626C21.204 11.5375 21.0344 11.4671 20.8576 11.4671C20.6807 11.467 20.5111 11.5372 20.386 11.6622H20.3867Z" fill="#F0EEFA"/>
</g>
<defs>
<clipPath id="clip0_17409_3719">
<rect width="16" height="16" fill="white" transform="translate(10.5 6.49121)"/>
</clipPath>
</defs>
</svg>
