<svg width="37" height="29" viewBox="0 0 37 29" fill="none" xmlns="http://www.w3.org/2000/svg">
<rect width="37" height="28.5614" rx="14.2807" fill="#6A59CE"/>
<g clip-path="url(#clip0_16615_1371)">
<path d="M13.957 16.2286V12.3339C13.957 12.1617 14.0254 11.9966 14.1472 11.8749C14.2689 11.7532 14.434 11.6848 14.6062 11.6848C14.7783 11.6848 14.9434 11.7532 15.0652 11.8749C15.1869 11.9966 15.2553 12.1617 15.2553 12.3339V16.2286C15.2553 17.0894 15.5972 17.915 16.2059 18.5236C16.8146 19.1323 17.6401 19.4742 18.5009 19.4742C19.3617 19.4742 20.1872 19.1323 20.7959 18.5236C21.4046 17.915 21.7465 17.0894 21.7465 16.2286V11.0357C21.7465 10.7799 21.6961 10.5267 21.5983 10.2904C21.5004 10.0542 21.357 9.83949 21.1761 9.65866C20.9953 9.47783 20.7806 9.33438 20.5444 9.23652C20.3081 9.13865 20.0549 9.08828 19.7991 9.08828C19.5434 9.08828 19.2902 9.13865 19.0539 9.23652C18.8176 9.33438 18.603 9.47783 18.4221 9.65866C18.2413 9.83949 18.0979 10.0542 18 10.2904C17.9021 10.5267 17.8518 10.7799 17.8518 11.0357V16.2286C17.8518 16.4008 17.9202 16.5659 18.0419 16.6876C18.1636 16.8094 18.3287 16.8778 18.5009 16.8778C18.673 16.8778 18.8382 16.8094 18.9599 16.6876C19.0816 16.5659 19.15 16.4008 19.15 16.2286V12.3339C19.15 12.1617 19.2184 11.9966 19.3401 11.8749C19.4619 11.7532 19.627 11.6848 19.7991 11.6848C19.9713 11.6848 20.1364 11.7532 20.2581 11.8749C20.3799 11.9966 20.4483 12.1617 20.4483 12.3339V16.2286C20.4483 16.7451 20.2431 17.2404 19.8779 17.6056C19.5127 17.9708 19.0174 18.176 18.5009 18.176C17.9844 18.176 17.4891 17.9708 17.1239 17.6056C16.7587 17.2404 16.5535 16.7451 16.5535 16.2286V11.0357C16.5535 10.1749 16.8955 9.34933 17.5041 8.74066C18.1128 8.13199 18.9383 7.79004 19.7991 7.79004C20.6599 7.79004 21.4855 8.13199 22.0941 8.74066C22.7028 9.34933 23.0448 10.1749 23.0448 11.0357V16.2286C23.0448 16.8253 22.9272 17.4162 22.6989 17.9675C22.4705 18.5188 22.1358 19.0197 21.7139 19.4416C21.2919 19.8636 20.791 20.1983 20.2398 20.4266C19.6885 20.655 19.0976 20.7725 18.5009 20.7725C17.9042 20.7725 17.3133 20.655 16.762 20.4266C16.2107 20.1983 15.7098 19.8636 15.2879 19.4416C14.866 19.0197 14.5313 18.5188 14.3029 17.9675C14.0746 17.4162 13.957 16.8253 13.957 16.2286Z" fill="white"/>
</g>
<defs>
<clipPath id="clip0_16615_1371">
<rect width="15.5789" height="15.5789" fill="white" transform="translate(10.7109 6.49121)"/>
</clipPath>
</defs>
</svg>
