<svg width="118" height="67" viewBox="0 0 118 67" fill="none" xmlns="http://www.w3.org/2000/svg">
<path d="M84.5 0C103.002 0 118 14.9985 118 33.5C118 52.0015 103.002 67 84.5 67C74.2877 67 65.1446 62.4287 59 55.2227C52.8554 62.4287 43.7123 67 33.5 67C14.9985 67 0 52.0015 0 33.5C0 14.9985 14.9985 0 33.5 0C43.7121 0 52.8554 4.57063 59 11.7764C65.1445 4.57063 74.2879 0 84.5 0Z" fill="#C3BDEB"/>
<circle cx="85" cy="33" r="20" fill="#F0EEFA"/>
<circle cx="34.2305" cy="33" r="20" fill="#F0EEFA"/>
<rect x="100.219" y="27.5156" width="16" height="22" rx="8" transform="rotate(28.5019 100.219 27.5156)" fill="#25AD3E"/>
<rect x="5" y="36.3252" width="16" height="22" rx="8" transform="rotate(-19.6223 5 36.3252)" fill="#DD524D"/>
</svg>
