<svg width="37" height="29" viewBox="0 0 37 29" fill="none" xmlns="http://www.w3.org/2000/svg">
<rect width="37" height="28.9825" rx="14.4912" fill="#6A59CE"/>
<g clip-path="url(#clip0_17409_3713)">
<path fill-rule="evenodd" clip-rule="evenodd" d="M24.8634 9.89859C25.0508 10.0861 25.1562 10.3404 25.1562 10.6056C25.1562 10.8708 25.0508 11.1251 24.8634 11.3126L17.368 18.8079C17.269 18.907 17.1514 18.9856 17.022 19.0392C16.8925 19.0928 16.7538 19.1204 16.6137 19.1204C16.4736 19.1204 16.3349 19.0928 16.2054 19.0392C16.076 18.9856 15.9584 18.907 15.8594 18.8079L12.1354 15.0846C12.0399 14.9923 11.9637 14.882 11.9113 14.76C11.8589 14.638 11.8313 14.5068 11.8301 14.374C11.829 14.2412 11.8543 14.1095 11.9045 13.9866C11.9548 13.8637 12.0291 13.7521 12.123 13.6582C12.2169 13.5643 12.3285 13.49 12.4514 13.4398C12.5743 13.3895 12.706 13.3642 12.8388 13.3653C12.9715 13.3665 13.1028 13.3941 13.2248 13.4465C13.3468 13.4989 13.4571 13.5751 13.5494 13.6706L16.6134 16.7346L23.4487 9.89859C23.5416 9.80566 23.6518 9.73195 23.7732 9.68165C23.8946 9.63136 24.0247 9.60547 24.156 9.60547C24.2874 9.60547 24.4175 9.63136 24.5389 9.68165C24.6602 9.73195 24.7705 9.80566 24.8634 9.89859Z" fill="#F0EEFA"/>
</g>
<defs>
<clipPath id="clip0_17409_3713">
<rect width="16" height="16" fill="white" transform="translate(10.5 6.49121)"/>
</clipPath>
</defs>
</svg>
