<svg width="37" height="29" viewBox="0 0 37 29" fill="none" xmlns="http://www.w3.org/2000/svg">
<rect width="37" height="28.9825" rx="14.4912" fill="#6A59CE"/>
<g clip-path="url(#clip0_16615_1381)">
<path d="M23.9897 10.2823C24.2777 9.4856 23.5057 8.7136 22.709 9.00226L12.9724 12.5236C12.173 12.8129 12.0764 13.9036 12.8117 14.3296L15.9197 16.1289L18.695 13.3536C18.8208 13.2322 18.9892 13.165 19.164 13.1665C19.3388 13.168 19.506 13.2381 19.6296 13.3617C19.7532 13.4853 19.8233 13.6525 19.8248 13.8273C19.8263 14.0021 19.7591 14.1705 19.6377 14.2963L16.8624 17.0716L18.6624 20.1796C19.0877 20.9149 20.1784 20.8176 20.4677 20.0189L23.9897 10.2823Z" fill="white"/>
</g>
<defs>
<clipPath id="clip0_16615_1381">
<rect width="16" height="16" fill="white" transform="translate(10.5 6.49121)"/>
</clipPath>
</defs>
</svg>
