<svg width="37" height="29" viewBox="0 0 37 29" fill="none" xmlns="http://www.w3.org/2000/svg">
<rect width="37" height="28.9825" rx="14.4912" fill="#6A59CE"/>
<g clip-path="url(#clip0_16615_1376)">
<path d="M23.2143 14.4976C23.3011 14.5098 23.3846 14.5391 23.4601 14.5837C23.5355 14.6282 23.6015 14.6873 23.6541 14.7574C23.7067 14.8275 23.745 14.9072 23.7668 14.9922C23.7886 15.0771 23.7934 15.1654 23.7809 15.2522C23.6138 16.4082 23.072 17.4775 22.2387 18.2959C21.4053 19.1143 20.3264 19.6367 19.1676 19.7829V20.4909C19.1676 20.6677 19.0974 20.8373 18.9723 20.9623C18.8473 21.0873 18.6777 21.1576 18.5009 21.1576C18.3241 21.1576 18.1546 21.0873 18.0295 20.9623C17.9045 20.8373 17.8343 20.6677 17.8343 20.4909V19.7829C16.6756 19.6365 15.5969 19.114 14.7637 18.2956C13.9305 17.4772 13.3888 16.4081 13.2216 15.2522C13.1965 15.0772 13.242 14.8993 13.348 14.7578C13.454 14.6163 13.6119 14.5227 13.7869 14.4976C13.962 14.4724 14.1398 14.5179 14.2814 14.6239C14.4229 14.7299 14.5165 14.8878 14.5416 15.0629C14.6795 16.0146 15.1556 16.8848 15.8827 17.5142C16.6098 18.1436 17.5393 18.49 18.5009 18.49C19.4626 18.49 20.3921 18.1436 21.1192 17.5142C21.8463 16.8848 22.3224 16.0146 22.4603 15.0629C22.4727 14.9762 22.5021 14.8928 22.5467 14.8175C22.5914 14.7422 22.6504 14.6764 22.7205 14.6239C22.7906 14.5714 22.8703 14.5332 22.9551 14.5115C23.04 14.4899 23.1276 14.4851 23.2143 14.4976ZM18.5009 7.82422C19.385 7.82422 20.2328 8.17541 20.858 8.80053C21.4831 9.42565 21.8343 10.2735 21.8343 11.1576V14.4909C21.8343 15.3749 21.4831 16.2228 20.858 16.8479C20.2328 17.473 19.385 17.8242 18.5009 17.8242C17.6169 17.8242 16.769 17.473 16.1439 16.8479C15.5188 16.2228 15.1676 15.3749 15.1676 14.4909V11.1576C15.1676 10.2735 15.5188 9.42565 16.1439 8.80053C16.769 8.17541 17.6169 7.82422 18.5009 7.82422Z" fill="white"/>
</g>
<defs>
<clipPath id="clip0_16615_1376">
<rect width="16" height="16" fill="white" transform="translate(10.5 6.49121)"/>
</clipPath>
</defs>
</svg>
