<svg width="24" height="24" viewBox="0 0 24 24" fill="none" xmlns="http://www.w3.org/2000/svg">
<g clip-path="url(#clip0_30_529)">
<path d="M3.05001 9.31C3.0075 9.18305 2.99092 9.04887 3.00124 8.91539C3.01156 8.78192 3.04857 8.65187 3.11009 8.53297C3.1716 8.41407 3.25637 8.30873 3.35935 8.22319C3.46234 8.13766 3.58145 8.07368 3.70963 8.03504C3.8378 7.9964 3.97243 7.98389 4.10553 7.99825C4.23863 8.01261 4.3675 8.05355 4.48448 8.11864C4.60146 8.18373 4.70419 8.27165 4.78656 8.37718C4.86893 8.48271 4.92927 8.60371 4.96401 8.733C7.05001 15.719 16.946 15.72 19.034 8.737C19.0714 8.61106 19.1333 8.49373 19.2161 8.3917C19.2988 8.28967 19.4009 8.20494 19.5164 8.14236C19.6319 8.07977 19.7586 8.04055 19.8893 8.02693C20.02 8.01332 20.1521 8.02557 20.278 8.063C20.4039 8.10042 20.5213 8.16229 20.6233 8.24506C20.7253 8.32784 20.8101 8.42989 20.8727 8.54541C20.9352 8.66092 20.9745 8.78764 20.9881 8.91831C21.0017 9.04898 20.9894 9.18106 20.952 9.307C20.5882 10.5582 19.9711 11.7212 19.139 12.724L20.414 14C20.5962 14.1886 20.697 14.4412 20.6947 14.7034C20.6924 14.9656 20.5872 15.2164 20.4018 15.4018C20.2164 15.5872 19.9656 15.6924 19.7034 15.6947C19.4412 15.697 19.1886 15.5962 19 15.414L17.689 14.103C16.9815 14.6365 16.1999 15.064 15.369 15.372L15.726 16.707C15.7641 16.835 15.7761 16.9694 15.7614 17.1022C15.7467 17.235 15.7055 17.3635 15.6403 17.4801C15.5751 17.5967 15.4872 17.6991 15.3818 17.7811C15.2764 17.8632 15.1556 17.9233 15.0266 17.9579C14.8976 17.9925 14.7629 18.0009 14.6306 17.9827C14.4982 17.9644 14.3709 17.9197 14.2561 17.8514C14.1413 17.7831 14.0414 17.6925 13.9622 17.5849C13.883 17.4773 13.8261 17.3549 13.795 17.225L13.431 15.868C12.484 16.008 11.516 16.008 10.569 15.868L10.205 17.225C10.1739 17.3549 10.1171 17.4773 10.0379 17.5849C9.95867 17.6925 9.85872 17.7831 9.74391 17.8514C9.62911 17.9197 9.50178 17.9644 9.36945 17.9827C9.23711 18.0009 9.10245 17.9925 8.97342 17.9579C8.84439 17.9233 8.7236 17.8632 8.61819 17.7811C8.51278 17.6991 8.42488 17.5967 8.35968 17.4801C8.29448 17.3635 8.25331 17.235 8.2386 17.1022C8.22388 16.9694 8.23593 16.835 8.27401 16.707L8.63101 15.372C7.80006 15.0637 7.01851 14.6358 6.31101 14.102L5.00101 15.414C4.8135 15.6018 4.55908 15.7074 4.29372 15.7076C4.02835 15.7077 3.77378 15.6025 3.58601 15.415C3.39824 15.2275 3.29264 14.9731 3.29245 14.7077C3.29227 14.4423 3.3975 14.1878 3.58501 14L4.86001 12.725C4.07601 11.789 3.45001 10.651 3.04801 9.311L3.05001 9.31Z" fill="#1A1A1A"/>
</g>
<defs>
<clipPath id="clip0_30_529">
<rect width="24" height="24" fill="white"/>
</clipPath>
</defs>
</svg>
