<svg width="14" height="11" viewBox="0 0 14 11" fill="none" xmlns="http://www.w3.org/2000/svg">
<path d="M0.231789 4.70069C0.0833746 4.84915 0 5.05048 0 5.2604C0 5.47032 0.0833746 5.67165 0.231789 5.82011L4.71025 10.2986C4.85956 10.4428 5.05953 10.5226 5.26711 10.5208C5.47468 10.519 5.67324 10.4357 5.82002 10.2889C5.9668 10.1421 6.05006 9.94358 6.05186 9.73601C6.05367 9.52843 5.97387 9.32846 5.82966 9.17915L2.70258 6.05206H13.1866C13.3966 6.05206 13.5979 5.96866 13.7464 5.82019C13.8949 5.67172 13.9783 5.47036 13.9783 5.2604C13.9783 5.05043 13.8949 4.84907 13.7464 4.7006C13.5979 4.55214 13.3966 4.46873 13.1866 4.46873H2.70258L5.82966 1.34165C5.97387 1.19234 6.05367 0.99236 6.05186 0.784787C6.05006 0.577215 5.9668 0.378655 5.82002 0.231874C5.67324 0.0850922 5.47468 0.00183368 5.26711 2.99271e-05C5.05953 -0.00177382 4.85956 0.0780217 4.71025 0.22223L0.231789 4.70069Z" fill="#777777"/>
</svg>
