<svg width="11" height="7" viewBox="0 0 11 7" fill="none" xmlns="http://www.w3.org/2000/svg">
<path fill-rule="evenodd" clip-rule="evenodd" d="M6.04772 6.048C5.79768 6.29796 5.4586 6.43838 5.10505 6.43838C4.7515 6.43838 4.41242 6.29796 4.16238 6.048L0.390383 2.276C0.20389 2.08945 0.0769209 1.85178 0.0255399 1.59305C-0.025841 1.33432 0.000674705 1.06617 0.101733 0.822511C0.202792 0.578857 0.373852 0.370653 0.59327 0.224242C0.812687 0.0778313 1.0706 -0.00020712 1.33438 4.12855e-07H8.87572C9.1395 -0.00020712 9.39741 0.0778313 9.61683 0.224242C9.83625 0.370653 10.0073 0.578857 10.1084 0.822511C10.2094 1.06617 10.2359 1.33432 10.1846 1.59305C10.1332 1.85178 10.0062 2.08945 9.81972 2.276L6.04772 6.048Z" fill="#777777"/>
</svg>
