<svg width="16" height="16" viewBox="0 0 16 16" fill="none" xmlns="http://www.w3.org/2000/svg">
<path d="M11.3483 2.02231L10.7119 1.85274C8.91202 1.37316 8.01202 1.13337 7.30302 1.54041C6.59399 1.94745 6.35284 2.84236 5.87054 4.63219L5.18846 7.16339C4.70615 8.95318 4.465 9.84812 4.87435 10.5531C5.2837 11.2582 6.18369 11.4979 7.98368 11.9775L8.62008 12.1471C10.42 12.6267 11.32 12.8665 12.029 12.4595C12.738 12.0524 12.9792 11.1575 13.4615 9.36765L14.1435 6.83645C14.6259 5.04662 14.867 4.1517 14.4577 3.44669C14.0483 2.74168 13.1483 2.50189 11.3483 2.02231Z" stroke="#777777" stroke-width="1.5"/>
<path d="M11.2363 4.95534C11.2363 5.49806 10.7938 5.93802 10.248 5.93802C9.70223 5.93802 9.25977 5.49806 9.25977 4.95534C9.25977 4.41262 9.70223 3.97266 10.248 3.97266C10.7938 3.97266 11.2363 4.41262 11.2363 4.95534Z" stroke="#777777" stroke-width="1.5"/>
<path d="M8.00065 13.9643L7.36579 14.1371C5.57001 14.6261 4.67213 14.8707 3.96478 14.4556C3.25743 14.0406 3.01685 13.1281 2.53567 11.3032L1.8552 8.72234C1.37403 6.8974 1.13344 5.98494 1.54183 5.2661C1.8951 4.64428 2.66732 4.66692 3.66732 4.66684" stroke="#777777" stroke-width="1.5" stroke-linecap="round"/>
</svg>
