<svg width="4" height="3" viewBox="0 0 4 3" fill="none" xmlns="http://www.w3.org/2000/svg">
<path fill-rule="evenodd" clip-rule="evenodd" d="M2.26051 2.26062C2.16705 2.35405 2.04031 2.40653 1.90816 2.40653C1.77601 2.40653 1.64927 2.35405 1.55581 2.26062L0.145917 0.850722C0.0762097 0.780994 0.0287514 0.692156 0.00954629 0.595449C-0.00965885 0.498741 0.000252191 0.398511 0.0380258 0.307438C0.0757995 0.216365 0.139738 0.138543 0.221752 0.0838171C0.303766 0.0290917 0.400169 -7.74172e-05 0.498765 1.54317e-07H3.31756C3.41615 -7.74172e-05 3.51256 0.0290917 3.59457 0.0838171C3.67659 0.138543 3.74052 0.216365 3.7783 0.307438C3.81607 0.398511 3.82598 0.498741 3.80678 0.595449C3.78757 0.692156 3.74011 0.780994 3.67041 0.850722L2.26051 2.26062Z" fill="#777777"/>
</svg>
