<svg width="18" height="10" viewBox="0 0 18 10" fill="none" xmlns="http://www.w3.org/2000/svg">
<path d="M0.0517488 1.31752C0.00924128 1.19058 -0.00734421 1.05639 0.00297574 0.922913C0.0132957 0.789438 0.050311 0.659394 0.111827 0.540491C0.173343 0.421589 0.258107 0.316249 0.361093 0.230716C0.46408 0.145184 0.583192 0.0812001 0.711367 0.0425599C0.839543 0.00391975 0.974172 -0.00859045 1.10727 0.00577049C1.24037 0.0201314 1.36924 0.0610712 1.48622 0.126163C1.6032 0.191254 1.70592 0.279173 1.7883 0.384705C1.87067 0.490237 1.93101 0.611233 1.96575 0.740521C4.05175 7.72652 13.9477 7.72752 16.0357 0.744521C16.0732 0.618584 16.135 0.50125 16.2178 0.399222C16.3006 0.297193 16.4026 0.212466 16.5182 0.14988C16.6337 0.0872931 16.7604 0.0480721 16.8911 0.0344556C17.0217 0.0208391 17.1538 0.0330939 17.2797 0.0705207C17.4057 0.107947 17.523 0.169814 17.625 0.252586C17.7271 0.335358 17.8118 0.437415 17.8744 0.552931C17.937 0.668447 17.9762 0.795159 17.9898 0.925833C18.0034 1.05651 17.9912 1.18858 17.9537 1.31452C17.5899 2.56571 16.9728 3.72877 16.1407 4.73152L17.4157 6.00752C17.5979 6.19612 17.6987 6.44873 17.6964 6.71092C17.6941 6.97312 17.589 7.22393 17.4036 7.40934C17.2182 7.59475 16.9673 7.69992 16.7052 7.7022C16.443 7.70447 16.1904 7.60368 16.0017 7.42152L14.6907 6.11052C13.9832 6.64403 13.2017 7.07153 12.3707 7.37952L12.7277 8.71452C12.7658 8.84257 12.7779 8.97695 12.7632 9.10974C12.7484 9.24252 12.7073 9.371 12.6421 9.48761C12.5769 9.60422 12.489 9.70657 12.3836 9.78864C12.2782 9.87072 12.1574 9.93083 12.0283 9.96545C11.8993 10.0001 11.7646 10.0085 11.6323 9.99018C11.5 9.97188 11.3726 9.92726 11.2578 9.85894C11.143 9.79062 11.0431 9.69999 10.9639 9.5924C10.8847 9.48481 10.8279 9.36244 10.7967 9.23252L10.4327 7.87552C9.48575 8.01552 8.51775 8.01552 7.57075 7.87552L7.20675 9.23252C7.17563 9.36244 7.1188 9.48481 7.0396 9.5924C6.96041 9.69999 6.86046 9.79062 6.74565 9.85894C6.63085 9.92726 6.50352 9.97188 6.37119 9.99018C6.23885 10.0085 6.10419 10.0001 5.97516 9.96545C5.84613 9.93083 5.72534 9.87072 5.61993 9.78864C5.51451 9.70657 5.42662 9.60422 5.36142 9.48761C5.29622 9.371 5.25505 9.24252 5.24034 9.10974C5.22562 8.97695 5.23767 8.84257 5.27575 8.71452L5.63275 7.37952C4.8018 7.07119 4.02025 6.64336 3.31275 6.10952L2.00275 7.42152C1.81524 7.60929 1.56082 7.71489 1.29546 7.71508C1.03009 7.71526 0.775522 7.61003 0.587749 7.42252C0.399976 7.23501 0.29438 6.98059 0.294193 6.71523C0.294005 6.44986 0.399241 6.19529 0.586749 6.00752L1.86175 4.73252C1.07775 3.79652 0.451749 2.65852 0.0497489 1.31852L0.0517488 1.31752Z" fill="#6A59CE"/>
</svg>
