<svg width="24" height="24" viewBox="0 0 24 24" fill="none" xmlns="http://www.w3.org/2000/svg">
<path d="M17.0006 6C16.7354 6 16.481 6.10536 16.2935 6.29289C16.1059 6.48043 16.0006 6.73478 16.0006 7C16.0006 7.26522 16.1059 7.51957 16.2935 7.70711C16.481 7.89464 16.7354 8 17.0006 8H18.5866L14.0006 12.586L10.2076 8.793C10.02 8.60553 9.76573 8.50021 9.50057 8.50021C9.2354 8.50021 8.9811 8.60553 8.79357 8.793L2.29357 15.293C2.19806 15.3852 2.12188 15.4956 2.06947 15.6176C2.01706 15.7396 1.98947 15.8708 1.98832 16.0036C1.98717 16.1364 2.01247 16.2681 2.06275 16.391C2.11303 16.5138 2.18728 16.6255 2.28117 16.7194C2.37507 16.8133 2.48672 16.8875 2.60962 16.9378C2.73251 16.9881 2.86419 17.0134 2.99697 17.0123C3.12975 17.0111 3.26097 16.9835 3.38297 16.9311C3.50498 16.8787 3.61532 16.8025 3.70757 16.707L9.50057 10.914L13.2936 14.707C13.4811 14.8945 13.7354 14.9998 14.0006 14.9998C14.2657 14.9998 14.52 14.8945 14.7076 14.707L20.0006 9.414V11C20.0006 11.2652 20.1059 11.5196 20.2935 11.7071C20.481 11.8946 20.7354 12 21.0006 12C21.2658 12 21.5201 11.8946 21.7077 11.7071C21.8952 11.5196 22.0006 11.2652 22.0006 11V7C22.0006 6.73478 21.8952 6.48043 21.7077 6.29289C21.5201 6.10536 21.2658 6 21.0006 6H17.0006Z" fill="#25AD3E"/>
</svg>
