<svg width="24" height="24" viewBox="0 0 24 24" fill="none" xmlns="http://www.w3.org/2000/svg">
<path fill-rule="evenodd" clip-rule="evenodd" d="M8.42327 0.433074C4.45661 1.32984 1.34417 4.37829 0.389243 8.3019C-0.132917 10.4474 -0.128147 12.7049 0.394014 14.8504C1.36387 18.8353 4.21678 22.1517 8.04391 23.6971L8.21073 23.7644C9.86688 24.4331 11.7641 23.6278 12.4436 21.9869C12.6307 21.5353 13.076 21.2357 13.5681 21.2357H15.0665C19.1419 21.2357 22.6871 18.4666 23.6437 14.5361C24.1188 12.5843 24.1188 10.5484 23.6437 8.59655L23.5183 8.08117C22.5963 4.29277 19.5911 1.34938 15.7611 0.483522L15.2231 0.361885C13.0888 -0.120628 10.8725 -0.120629 8.73816 0.361885L8.42327 0.433074ZM7.33593 7.15559C6.82289 7.15559 6.40699 7.56822 6.40699 8.07723C6.40699 8.58624 6.82289 8.99887 7.33593 8.99887H15.8512C16.3643 8.99887 16.7802 8.58624 16.7802 8.07723C16.7802 7.56822 16.3643 7.15559 15.8512 7.15559H7.33593ZM8.88416 11.7638C8.37112 11.7638 7.95522 12.1764 7.95522 12.6855C7.95522 13.1945 8.37112 13.6071 8.88416 13.6071H14.303C14.816 13.6071 15.2319 13.1945 15.2319 12.6855C15.2319 12.1764 14.816 11.7638 14.303 11.7638H8.88416Z" fill="#6A59CE"/>
</svg>
