<svg width="17" height="15" viewBox="0 0 17 15" fill="none" xmlns="http://www.w3.org/2000/svg">
<path d="M16.1939 1.13357L11.1939 14.0502C11.1445 14.1782 11.0642 14.2919 10.9602 14.3814C10.8563 14.4708 10.7318 14.5333 10.598 14.5631C10.4641 14.593 10.3249 14.5893 10.1928 14.5524C10.0607 14.5156 9.9397 14.4467 9.84059 14.3519L7.02225 11.6561L5.29392 13.3836C5.2356 13.4417 5.16137 13.4813 5.08058 13.4972C4.9998 13.5132 4.9161 13.5049 4.84004 13.4733C4.76399 13.4418 4.69899 13.3884 4.65325 13.3199C4.60752 13.2514 4.58311 13.1709 4.58309 13.0886V9.32273L0.257254 5.18523C0.149924 5.08255 0.0719901 4.95304 0.0315223 4.81012C-0.00894551 4.6672 -0.0104769 4.51606 0.0270869 4.37235C0.0646507 4.22864 0.139944 4.09758 0.245172 3.99274C0.3504 3.8879 0.481738 3.8131 0.625587 3.77607L15.2089 0.0260666C15.3572 -0.0119137 15.513 -0.00832966 15.6594 0.0364257C15.8058 0.081181 15.937 0.165379 16.0386 0.279784C16.1403 0.394189 16.2085 0.534383 16.2357 0.684989C16.263 0.835594 16.2482 0.990795 16.1931 1.13357H16.1939ZM14.1664 2.08357L5.02642 8.04273L6.47225 9.42607L14.1664 2.08357Z" fill="#777777"/>
</svg>
