<svg width="20" height="20" viewBox="0 0 20 20" fill="none" xmlns="http://www.w3.org/2000/svg">
<path d="M8.33398 5.85575C8.73648 3.47777 10.8061 1.66675 13.2986 1.66675C16.0796 1.66675 18.334 3.92118 18.334 6.70216C18.334 9.19466 16.523 11.2642 14.145 11.6667" stroke="#777777" stroke-width="1.5" stroke-linecap="round" stroke-linejoin="round"/>
<path d="M6.66602 18.3333C9.42743 18.3333 11.666 16.0947 11.666 13.3333C11.666 10.5718 9.42743 8.33325 6.66602 8.33325C3.90459 8.33325 1.66602 10.5718 1.66602 13.3333C1.66602 16.0947 3.90459 18.3333 6.66602 18.3333Z" stroke="#777777" stroke-width="1.5" stroke-linecap="round" stroke-linejoin="round"/>
<path d="M1.66602 7.5C1.66602 4.73572 3.90173 2.5 6.66602 2.5L5.95173 3.92858" stroke="#777777" stroke-width="1.5" stroke-linecap="round" stroke-linejoin="round"/>
<path d="M18.334 12.5C18.334 15.2642 16.0982 17.5 13.334 17.5L14.0482 16.0714" stroke="#777777" stroke-width="1.5" stroke-linecap="round" stroke-linejoin="round"/>
</svg>
