<svg width="80" height="80" viewBox="0 0 80 80" fill="none" xmlns="http://www.w3.org/2000/svg">
<path d="M73.3327 33.3335V56.6668C73.3327 59.319 72.2791 61.8625 70.4038 63.7379C68.5284 65.6133 65.9849 66.6668 63.3327 66.6668H16.666C14.0139 66.6668 11.4703 65.6133 9.59495 63.7379C7.71958 61.8625 6.66602 59.319 6.66602 56.6668V33.3335H73.3327ZM59.9994 46.6668H49.9994C49.1153 46.6668 48.2674 47.018 47.6423 47.6431C47.0172 48.2683 46.666 49.1161 46.666 50.0002C46.666 50.8842 47.0172 51.7321 47.6423 52.3572C48.2674 52.9823 49.1153 53.3335 49.9994 53.3335H59.9994C60.8834 53.3335 61.7313 52.9823 62.3564 52.3572C62.9815 51.7321 63.3327 50.8842 63.3327 50.0002C63.3327 49.1161 62.9815 48.2683 62.3564 47.6431C61.7313 47.018 60.8834 46.6668 59.9994 46.6668ZM63.3327 13.3335C65.9849 13.3335 68.5284 14.3871 70.4038 16.2624C72.2791 18.1378 73.3327 20.6813 73.3327 23.3335V26.6668H6.66602V23.3335C6.66602 20.6813 7.71958 18.1378 9.59495 16.2624C11.4703 14.3871 14.0139 13.3335 16.666 13.3335H63.3327Z" fill="#EE9C2E"/>
</svg>
