<svg width="346" height="90" viewBox="0 0 346 90" fill="none" xmlns="http://www.w3.org/2000/svg">
<rect width="346" height="90" fill="#E1DEF5"/>
<path d="M18.3 28.32C16.9533 28.32 15.8 28.0067 14.84 27.38C13.88 26.74 13.1467 25.8667 12.64 24.76C12.1333 23.64 11.88 22.36 11.88 20.92C11.88 19.4933 12.1333 18.22 12.64 17.1C13.16 15.98 13.9067 15.1 14.88 14.46C15.8533 13.8067 17.02 13.48 18.38 13.48C19.54 13.48 20.52 13.6867 21.32 14.1C22.1333 14.5133 22.7733 15.08 23.24 15.8C23.72 16.52 24.0533 17.34 24.24 18.26L21.98 18.38C21.82 17.5133 21.46 16.8133 20.9 16.28C20.34 15.7333 19.5 15.46 18.38 15.46C17.3933 15.46 16.5867 15.7067 15.96 16.2C15.3333 16.6933 14.8667 17.3533 14.56 18.18C14.2667 19.0067 14.12 19.92 14.12 20.92C14.12 21.96 14.2667 22.8867 14.56 23.7C14.8667 24.5133 15.3333 25.16 15.96 25.64C16.6 26.1067 17.4133 26.34 18.4 26.34C19.1733 26.34 19.84 26.1733 20.4 25.84C20.96 25.5067 21.3933 25.0533 21.7 24.48C22.02 23.9067 22.1933 23.2733 22.22 22.58H18.42V20.76H24.28V28H22.8L22.66 24.8L22.94 25.04C22.7933 25.68 22.4933 26.2467 22.04 26.74C21.5867 27.2333 21.0333 27.62 20.38 27.9C19.74 28.18 19.0467 28.32 18.3 28.32ZM30.9331 28.24C29.8931 28.24 28.9931 28.0133 28.2331 27.56C27.4865 27.1067 26.9065 26.46 26.4931 25.62C26.0931 24.78 25.8931 23.8 25.8931 22.68C25.8931 21.56 26.0931 20.5867 26.4931 19.76C26.9065 18.92 27.4865 18.2733 28.2331 17.82C28.9798 17.3533 29.8598 17.12 30.8731 17.12C31.8331 17.12 32.6798 17.3467 33.4131 17.8C34.1465 18.24 34.7131 18.88 35.1131 19.72C35.5265 20.56 35.7331 21.5733 35.7331 22.76V23.3H28.0931C28.1465 24.34 28.4198 25.12 28.9131 25.64C29.4198 26.16 30.0998 26.42 30.9531 26.42C31.5798 26.42 32.0998 26.2733 32.5131 25.98C32.9265 25.6867 33.2131 25.2933 33.3731 24.8L35.5731 24.94C35.2931 25.9267 34.7398 26.7267 33.9131 27.34C33.0998 27.94 32.1065 28.24 30.9331 28.24ZM28.0931 21.7H33.4931C33.4265 20.7533 33.1531 20.0533 32.6731 19.6C32.2065 19.1467 31.6065 18.92 30.8731 18.92C30.1131 18.92 29.4865 19.16 28.9931 19.64C28.5131 20.1067 28.2131 20.7933 28.0931 21.7ZM41.1706 28C40.1573 28 39.4106 27.7667 38.9306 27.3C38.4506 26.8333 38.2106 26.1067 38.2106 25.12V14.86H40.3306V24.96C40.3306 25.4533 40.4373 25.7933 40.6506 25.98C40.864 26.1667 41.1906 26.26 41.6306 26.26H43.1506V28H41.1706ZM36.5906 19.1V17.36H43.1506V19.1H36.5906ZM49.577 28V13.8H51.737V28H49.577ZM54.7383 28V17.36H56.6783L56.7583 20.2L56.4983 20.06C56.6183 19.3667 56.8449 18.8067 57.1783 18.38C57.5116 17.9533 57.9183 17.64 58.3983 17.44C58.8783 17.2267 59.3983 17.12 59.9583 17.12C60.7583 17.12 61.4183 17.3 61.9383 17.66C62.4716 18.0067 62.8716 18.4867 63.1383 19.1C63.4183 19.7 63.5583 20.3867 63.5583 21.16V28H61.4383V21.8C61.4383 21.1733 61.3716 20.6467 61.2383 20.22C61.1049 19.7933 60.8849 19.4667 60.5783 19.24C60.2716 19.0133 59.8716 18.9 59.3783 18.9C58.6316 18.9 58.0249 19.1467 57.5583 19.64C57.0916 20.1333 56.8583 20.8533 56.8583 21.8V28H54.7383ZM71.218 31V29.26H72.518C72.878 29.26 73.1446 29.2067 73.318 29.1C73.4913 28.9933 73.6246 28.8133 73.718 28.56L74.058 27.68H73.398L69.558 17.36H71.798L74.718 25.72L77.498 17.36H79.758L75.518 29.24C75.3046 29.8533 74.9846 30.3 74.558 30.58C74.1446 30.86 73.5646 31 72.818 31H71.218ZM85.1058 28.24C84.0925 28.24 83.2058 28.0133 82.4458 27.56C81.6858 27.1067 81.0991 26.46 80.6858 25.62C80.2725 24.78 80.0658 23.8 80.0658 22.68C80.0658 21.5467 80.2725 20.5667 80.6858 19.74C81.0991 18.9133 81.6858 18.2733 82.4458 17.82C83.2058 17.3533 84.0925 17.12 85.1058 17.12C86.1191 17.12 87.0058 17.3533 87.7658 17.82C88.5258 18.2733 89.1125 18.9133 89.5258 19.74C89.9391 20.5667 90.1458 21.5467 90.1458 22.68C90.1458 23.8 89.9391 24.78 89.5258 25.62C89.1125 26.46 88.5258 27.1067 87.7658 27.56C87.0058 28.0133 86.1191 28.24 85.1058 28.24ZM85.1058 26.4C86.0125 26.4 86.7125 26.0733 87.2058 25.42C87.6991 24.7533 87.9458 23.84 87.9458 22.68C87.9458 21.52 87.6991 20.6133 87.2058 19.96C86.7125 19.2933 86.0125 18.96 85.1058 18.96C84.2125 18.96 83.5125 19.2933 83.0058 19.96C82.5125 20.6133 82.2658 21.52 82.2658 22.68C82.2658 23.84 82.5125 24.7533 83.0058 25.42C83.5125 26.0733 84.2125 26.4 85.1058 26.4ZM95.3883 28.24C94.3216 28.24 93.4683 27.8867 92.8283 27.18C92.2016 26.46 91.8883 25.4667 91.8883 24.2V17.36H94.0083V23.66C94.0083 24.62 94.1749 25.3267 94.5083 25.78C94.8416 26.2333 95.3483 26.46 96.0283 26.46C96.8016 26.46 97.4016 26.2133 97.8283 25.72C98.2683 25.2133 98.4883 24.5067 98.4883 23.6V17.36H100.608V28H98.6283L98.5883 25.22L98.8883 25.34C98.7016 26.2733 98.3083 26.9933 97.7083 27.5C97.1083 27.9933 96.3349 28.24 95.3883 28.24ZM103.207 28V17.36H105.147L105.227 20.18L105.047 20.12C105.194 19.16 105.487 18.46 105.927 18.02C106.38 17.58 106.987 17.36 107.747 17.36H108.767V19.26H107.747C107.214 19.26 106.767 19.3467 106.407 19.52C106.047 19.6933 105.774 19.96 105.587 20.32C105.414 20.68 105.327 21.1467 105.327 21.72V28H103.207ZM116.221 28V16.68C116.221 15.8 116.468 15.1 116.961 14.58C117.455 14.06 118.228 13.8 119.281 13.8H121.161V15.54H119.561C119.148 15.54 118.841 15.6533 118.641 15.88C118.441 16.0933 118.341 16.4 118.341 16.8V28H116.221ZM114.741 19.22V17.5H121.001V19.22H114.741ZM122.417 28V17.36H124.357L124.437 20.18L124.257 20.12C124.404 19.16 124.697 18.46 125.137 18.02C125.591 17.58 126.197 17.36 126.957 17.36H127.977V19.26H126.957C126.424 19.26 125.977 19.3467 125.617 19.52C125.257 19.6933 124.984 19.96 124.797 20.32C124.624 20.68 124.537 21.1467 124.537 21.72V28H122.417ZM129.322 28V17.36H131.442V28H129.322ZM129.282 15.82V13.7H131.482V15.82H129.282ZM138.224 28.24C137.184 28.24 136.284 28.0133 135.524 27.56C134.777 27.1067 134.197 26.46 133.784 25.62C133.384 24.78 133.184 23.8 133.184 22.68C133.184 21.56 133.384 20.5867 133.784 19.76C134.197 18.92 134.777 18.2733 135.524 17.82C136.27 17.3533 137.15 17.12 138.164 17.12C139.124 17.12 139.97 17.3467 140.704 17.8C141.437 18.24 142.004 18.88 142.404 19.72C142.817 20.56 143.024 21.5733 143.024 22.76V23.3H135.384C135.437 24.34 135.71 25.12 136.204 25.64C136.71 26.16 137.39 26.42 138.244 26.42C138.87 26.42 139.39 26.2733 139.804 25.98C140.217 25.6867 140.504 25.2933 140.664 24.8L142.864 24.94C142.584 25.9267 142.03 26.7267 141.204 27.34C140.39 27.94 139.397 28.24 138.224 28.24ZM135.384 21.7H140.784C140.717 20.7533 140.444 20.0533 139.964 19.6C139.497 19.1467 138.897 18.92 138.164 18.92C137.404 18.92 136.777 19.16 136.284 19.64C135.804 20.1067 135.504 20.7933 135.384 21.7ZM144.772 28V17.36H146.712L146.792 20.2L146.532 20.06C146.652 19.3667 146.879 18.8067 147.212 18.38C147.545 17.9533 147.952 17.64 148.432 17.44C148.912 17.2267 149.432 17.12 149.992 17.12C150.792 17.12 151.452 17.3 151.972 17.66C152.505 18.0067 152.905 18.4867 153.172 19.1C153.452 19.7 153.592 20.3867 153.592 21.16V28H151.472V21.8C151.472 21.1733 151.405 20.6467 151.272 20.22C151.139 19.7933 150.919 19.4667 150.612 19.24C150.305 19.0133 149.905 18.9 149.412 18.9C148.665 18.9 148.059 19.1467 147.592 19.64C147.125 20.1333 146.892 20.8533 146.892 21.8V28H144.772ZM159.734 28.24C158.827 28.24 158.034 28.0133 157.354 27.56C156.687 27.1067 156.174 26.4667 155.814 25.64C155.467 24.8 155.294 23.8133 155.294 22.68C155.294 21.5467 155.474 20.5667 155.834 19.74C156.194 18.9 156.707 18.2533 157.374 17.8C158.041 17.3467 158.827 17.12 159.734 17.12C160.467 17.12 161.121 17.2733 161.694 17.58C162.267 17.8867 162.701 18.3133 162.994 18.86V13.8H165.114V28H163.134L163.074 26.4C162.781 26.9733 162.334 27.4267 161.734 27.76C161.147 28.08 160.481 28.24 159.734 28.24ZM160.294 26.4C160.867 26.4 161.354 26.2533 161.754 25.96C162.154 25.6667 162.461 25.24 162.674 24.68C162.887 24.12 162.994 23.4533 162.994 22.68C162.994 21.88 162.887 21.2067 162.674 20.66C162.461 20.1 162.154 19.68 161.754 19.4C161.354 19.1067 160.867 18.96 160.294 18.96C159.441 18.96 158.761 19.2933 158.254 19.96C157.747 20.6133 157.494 21.52 157.494 22.68C157.494 23.8267 157.747 24.7333 158.254 25.4C158.761 26.0667 159.441 26.4 160.294 26.4ZM171.627 28.24C170.627 28.24 169.78 28.0867 169.087 27.78C168.407 27.4733 167.88 27.0533 167.507 26.52C167.133 25.9733 166.92 25.3467 166.867 24.64L169.047 24.54C169.153 25.1267 169.407 25.5933 169.807 25.94C170.207 26.2867 170.813 26.46 171.627 26.46C172.293 26.46 172.82 26.3533 173.207 26.14C173.593 25.9267 173.787 25.5867 173.787 25.12C173.787 24.8667 173.72 24.6533 173.587 24.48C173.467 24.2933 173.227 24.14 172.867 24.02C172.507 23.8867 171.973 23.76 171.267 23.64C170.213 23.44 169.387 23.2067 168.787 22.94C168.187 22.6733 167.76 22.3333 167.507 21.92C167.253 21.5067 167.127 21.0067 167.127 20.42C167.127 19.4467 167.487 18.6533 168.207 18.04C168.94 17.4267 169.993 17.12 171.367 17.12C172.287 17.12 173.06 17.28 173.687 17.6C174.313 17.9067 174.8 18.3267 175.147 18.86C175.507 19.38 175.733 19.9667 175.827 20.62L173.647 20.74C173.58 20.3667 173.447 20.0467 173.247 19.78C173.06 19.5 172.807 19.2867 172.487 19.14C172.167 18.98 171.787 18.9 171.347 18.9C170.667 18.9 170.16 19.0333 169.827 19.3C169.493 19.5667 169.327 19.9133 169.327 20.34C169.327 20.66 169.4 20.92 169.547 21.12C169.707 21.32 169.96 21.4867 170.307 21.62C170.653 21.74 171.113 21.8467 171.687 21.94C172.793 22.1267 173.66 22.36 174.287 22.64C174.913 22.9067 175.353 23.24 175.607 23.64C175.86 24.04 175.987 24.5267 175.987 25.1C175.987 25.7667 175.8 26.3333 175.427 26.8C175.053 27.2667 174.54 27.6267 173.887 27.88C173.233 28.12 172.48 28.24 171.627 28.24ZM181.831 31.14L182.831 28H181.731V25.48H184.311V27.7L183.051 31.14H181.831ZM17.84 52.32C16.7067 52.32 15.72 52.1133 14.88 51.7C14.0533 51.2867 13.4 50.7133 12.92 49.98C12.44 49.2467 12.16 48.3933 12.08 47.42L14.3 47.28C14.3933 47.9467 14.5867 48.5133 14.88 48.98C15.1733 49.4333 15.5667 49.78 16.06 50.02C16.5667 50.2467 17.1733 50.36 17.88 50.36C18.4933 50.36 19.0133 50.2867 19.44 50.14C19.88 49.98 20.2133 49.7467 20.44 49.44C20.6667 49.1333 20.78 48.76 20.78 48.32C20.78 47.92 20.68 47.5667 20.48 47.26C20.2933 46.94 19.9267 46.6533 19.38 46.4C18.8467 46.1333 18.06 45.8733 17.02 45.62C15.8867 45.34 14.98 45.0333 14.3 44.7C13.62 44.3667 13.1267 43.9533 12.82 43.46C12.5267 42.9533 12.38 42.3333 12.38 41.6C12.38 40.7867 12.5733 40.0733 12.96 39.46C13.36 38.8333 13.9267 38.3467 14.66 38C15.3933 37.6533 16.2733 37.48 17.3 37.48C18.38 37.48 19.3 37.68 20.06 38.08C20.8333 38.48 21.44 39.0267 21.88 39.72C22.3333 40.4133 22.6133 41.2067 22.72 42.1L20.5 42.22C20.4333 41.6733 20.2667 41.1933 20 40.78C19.7333 40.3533 19.3733 40.0267 18.92 39.8C18.4667 39.56 17.9133 39.44 17.26 39.44C16.4333 39.44 15.78 39.6333 15.3 40.02C14.8333 40.3933 14.6 40.8933 14.6 41.52C14.6 41.92 14.6933 42.26 14.88 42.54C15.08 42.8067 15.4267 43.04 15.92 43.24C16.4267 43.44 17.14 43.6533 18.06 43.88C19.2867 44.16 20.26 44.5067 20.98 44.92C21.7133 45.32 22.2333 45.7933 22.54 46.34C22.8467 46.8867 23 47.5067 23 48.2C23 49.04 22.78 49.7733 22.34 50.4C21.9133 51.0133 21.3133 51.4867 20.54 51.82C19.7667 52.1533 18.8667 52.32 17.84 52.32ZM25.1859 55V41.36H27.1859L27.2459 43.64L27.0059 43.52C27.2726 42.7333 27.7126 42.14 28.3259 41.74C28.9393 41.3267 29.6459 41.12 30.4459 41.12C31.4859 41.12 32.3393 41.38 33.0059 41.9C33.6859 42.4067 34.1859 43.08 34.5059 43.92C34.8393 44.76 35.0059 45.68 35.0059 46.68C35.0059 47.68 34.8393 48.6 34.5059 49.44C34.1859 50.28 33.6859 50.96 33.0059 51.48C32.3393 51.9867 31.4859 52.24 30.4459 52.24C29.9126 52.24 29.4126 52.1467 28.9459 51.96C28.4793 51.7733 28.0793 51.5133 27.7459 51.18C27.4259 50.8333 27.1993 50.4267 27.0659 49.96L27.3059 49.72V55H25.1859ZM30.0659 50.4C30.9193 50.4 31.5859 50.0733 32.0659 49.42C32.5593 48.7667 32.8059 47.8533 32.8059 46.68C32.8059 45.5067 32.5593 44.5933 32.0659 43.94C31.5859 43.2867 30.9193 42.96 30.0659 42.96C29.5059 42.96 29.0193 43.1 28.6059 43.38C28.1926 43.6467 27.8726 44.06 27.6459 44.62C27.4193 45.18 27.3059 45.8667 27.3059 46.68C27.3059 47.4933 27.4126 48.18 27.6259 48.74C27.8526 49.3 28.1726 49.72 28.5859 50C29.0126 50.2667 29.5059 50.4 30.0659 50.4ZM39.1763 52C38.4829 52 37.9229 51.82 37.4963 51.46C37.0696 51.1 36.8563 50.5267 36.8563 49.74V37.8H38.9763V49.54C38.9763 49.78 39.0363 49.96 39.1563 50.08C39.2896 50.2 39.4763 50.26 39.7163 50.26H40.5563V52H39.1763ZM41.9445 52V41.36H44.0645V52H41.9445ZM41.9045 39.82V37.7H44.1045V39.82H41.9045ZM50.0191 52C49.0057 52 48.2591 51.7667 47.7791 51.3C47.2991 50.8333 47.0591 50.1067 47.0591 49.12V38.86H49.1791V48.96C49.1791 49.4533 49.2857 49.7933 49.4991 49.98C49.7124 50.1667 50.0391 50.26 50.4791 50.26H51.9991V52H50.0191ZM45.4391 43.1V41.36H51.9991V43.1H45.4391ZM63.5055 52.24C62.7721 52.24 62.1188 52.08 61.5455 51.76C60.9855 51.4267 60.5521 50.9733 60.2455 50.4L60.1855 52H58.2055V37.8H60.3255V42.86C60.6055 42.3933 61.0188 41.9867 61.5655 41.64C62.1255 41.2933 62.7721 41.12 63.5055 41.12C64.4255 41.12 65.2255 41.3467 65.9055 41.8C66.5855 42.2533 67.1055 42.9 67.4655 43.74C67.8388 44.5667 68.0255 45.5467 68.0255 46.68C68.0255 47.8133 67.8388 48.8 67.4655 49.64C67.1055 50.4667 66.5855 51.1067 65.9055 51.56C65.2255 52.0133 64.4255 52.24 63.5055 52.24ZM63.1655 50.4C63.9788 50.4 64.6255 50.0733 65.1055 49.42C65.5855 48.7533 65.8255 47.84 65.8255 46.68C65.8255 45.52 65.5855 44.6133 65.1055 43.96C64.6255 43.2933 63.9855 42.96 63.1855 42.96C62.5855 42.96 62.0721 43.1067 61.6455 43.4C61.2188 43.6933 60.8921 44.12 60.6655 44.68C60.4388 45.2267 60.3255 45.8933 60.3255 46.68C60.3255 47.44 60.4388 48.1 60.6655 48.66C60.8921 49.22 61.2188 49.6533 61.6455 49.96C62.0721 50.2533 62.5788 50.4 63.1655 50.4ZM69.7781 52V41.36H71.8981V52H69.7781ZM69.7381 39.82V37.7H71.9381V39.82H69.7381ZM76.6591 52C75.9657 52 75.4057 51.82 74.9791 51.46C74.5524 51.1 74.3391 50.5267 74.3391 49.74V37.8H76.4591V49.54C76.4591 49.78 76.5191 49.96 76.6391 50.08C76.7724 50.2 76.9591 50.26 77.1991 50.26H78.0391V52H76.6591ZM81.7083 52C81.0149 52 80.4549 51.82 80.0283 51.46C79.6016 51.1 79.3883 50.5267 79.3883 49.74V37.8H81.5083V49.54C81.5083 49.78 81.5683 49.96 81.6883 50.08C81.8216 50.2 82.0083 50.26 82.2483 50.26H83.0883V52H81.7083ZM88.5961 52.24C87.5961 52.24 86.7494 52.0867 86.0561 51.78C85.3761 51.4733 84.8494 51.0533 84.4761 50.52C84.1028 49.9733 83.8894 49.3467 83.8361 48.64L86.0161 48.54C86.1228 49.1267 86.3761 49.5933 86.7761 49.94C87.1761 50.2867 87.7828 50.46 88.5961 50.46C89.2628 50.46 89.7894 50.3533 90.1761 50.14C90.5628 49.9267 90.7561 49.5867 90.7561 49.12C90.7561 48.8667 90.6894 48.6533 90.5561 48.48C90.4361 48.2933 90.1961 48.14 89.8361 48.02C89.4761 47.8867 88.9428 47.76 88.2361 47.64C87.1828 47.44 86.3561 47.2067 85.7561 46.94C85.1561 46.6733 84.7294 46.3333 84.4761 45.92C84.2228 45.5067 84.0961 45.0067 84.0961 44.42C84.0961 43.4467 84.4561 42.6533 85.1761 42.04C85.9094 41.4267 86.9628 41.12 88.3361 41.12C89.2561 41.12 90.0294 41.28 90.6561 41.6C91.2828 41.9067 91.7694 42.3267 92.1161 42.86C92.4761 43.38 92.7028 43.9667 92.7961 44.62L90.6161 44.74C90.5494 44.3667 90.4161 44.0467 90.2161 43.78C90.0294 43.5 89.7761 43.2867 89.4561 43.14C89.1361 42.98 88.7561 42.9 88.3161 42.9C87.6361 42.9 87.1294 43.0333 86.7961 43.3C86.4628 43.5667 86.2961 43.9133 86.2961 44.34C86.2961 44.66 86.3694 44.92 86.5161 45.12C86.6761 45.32 86.9294 45.4867 87.2761 45.62C87.6228 45.74 88.0828 45.8467 88.6561 45.94C89.7628 46.1267 90.6294 46.36 91.2561 46.64C91.8828 46.9067 92.3228 47.24 92.5761 47.64C92.8294 48.04 92.9561 48.5267 92.9561 49.1C92.9561 49.7667 92.7694 50.3333 92.3961 50.8C92.0228 51.2667 91.5094 51.6267 90.8561 51.88C90.2028 52.12 89.4494 52.24 88.5961 52.24ZM94.3369 55.14L95.3369 52H94.2369V49.48H96.8169V51.7L95.5569 55.14H94.3369ZM106.198 52.24C105.091 52.24 104.205 51.9867 103.538 51.48C102.885 50.9733 102.558 50.26 102.558 49.34C102.558 48.42 102.831 47.7067 103.378 47.2C103.938 46.68 104.798 46.3067 105.958 46.08L109.618 45.38C109.618 44.5533 109.425 43.94 109.038 43.54C108.651 43.1267 108.078 42.92 107.318 42.92C106.638 42.92 106.105 43.0733 105.718 43.38C105.331 43.6733 105.065 44.1133 104.918 44.7L102.738 44.56C102.938 43.4933 103.431 42.6533 104.218 42.04C105.018 41.4267 106.051 41.12 107.318 41.12C108.758 41.12 109.851 41.5067 110.598 42.28C111.358 43.04 111.738 44.1133 111.738 45.5V49.64C111.738 49.8933 111.778 50.0733 111.858 50.18C111.951 50.2733 112.098 50.32 112.298 50.32H112.678V52C112.611 52.0133 112.505 52.0267 112.358 52.04C112.211 52.0533 112.058 52.06 111.898 52.06C111.445 52.06 111.051 51.9867 110.718 51.84C110.398 51.6933 110.158 51.4533 109.998 51.12C109.838 50.7733 109.758 50.3133 109.758 49.74L109.978 49.84C109.871 50.3067 109.638 50.72 109.278 51.08C108.931 51.44 108.485 51.7267 107.938 51.94C107.405 52.14 106.825 52.24 106.198 52.24ZM106.538 50.56C107.178 50.56 107.725 50.44 108.178 50.2C108.631 49.9467 108.985 49.6 109.238 49.16C109.491 48.72 109.618 48.22 109.618 47.66V46.98L106.498 47.58C105.858 47.7 105.405 47.8933 105.138 48.16C104.885 48.4133 104.758 48.74 104.758 49.14C104.758 49.5933 104.911 49.9467 105.218 50.2C105.538 50.44 105.978 50.56 106.538 50.56ZM114.068 52V41.36H116.008L116.088 44.2L115.828 44.06C115.948 43.3667 116.175 42.8067 116.508 42.38C116.841 41.9533 117.248 41.64 117.728 41.44C118.208 41.2267 118.728 41.12 119.288 41.12C120.088 41.12 120.748 41.3 121.268 41.66C121.801 42.0067 122.201 42.4867 122.468 43.1C122.748 43.7 122.888 44.3867 122.888 45.16V52H120.768V45.8C120.768 45.1733 120.701 44.6467 120.568 44.22C120.435 43.7933 120.215 43.4667 119.908 43.24C119.601 43.0133 119.201 42.9 118.708 42.9C117.961 42.9 117.355 43.1467 116.888 43.64C116.421 44.1333 116.188 44.8533 116.188 45.8V52H114.068ZM129.03 52.24C128.123 52.24 127.33 52.0133 126.65 51.56C125.983 51.1067 125.47 50.4667 125.11 49.64C124.763 48.8 124.59 47.8133 124.59 46.68C124.59 45.5467 124.77 44.5667 125.13 43.74C125.49 42.9 126.003 42.2533 126.67 41.8C127.337 41.3467 128.123 41.12 129.03 41.12C129.763 41.12 130.417 41.2733 130.99 41.58C131.563 41.8867 131.997 42.3133 132.29 42.86V37.8H134.41V52H132.43L132.37 50.4C132.077 50.9733 131.63 51.4267 131.03 51.76C130.443 52.08 129.777 52.24 129.03 52.24ZM129.59 50.4C130.163 50.4 130.65 50.2533 131.05 49.96C131.45 49.6667 131.757 49.24 131.97 48.68C132.183 48.12 132.29 47.4533 132.29 46.68C132.29 45.88 132.183 45.2067 131.97 44.66C131.757 44.1 131.45 43.68 131.05 43.4C130.65 43.1067 130.163 42.96 129.59 42.96C128.737 42.96 128.057 43.2933 127.55 43.96C127.043 44.6133 126.79 45.52 126.79 46.68C126.79 47.8267 127.043 48.7333 127.55 49.4C128.057 50.0667 128.737 50.4 129.59 50.4ZM141.701 52V37.8H147.001C148.628 37.8 149.895 38.1933 150.801 38.98C151.708 39.7533 152.161 40.8333 152.161 42.22C152.161 43.14 151.955 43.94 151.541 44.62C151.128 45.2867 150.535 45.8 149.761 46.16C149.001 46.5067 148.081 46.68 147.001 46.68H143.861V52H141.701ZM143.861 44.72H146.941C147.915 44.72 148.655 44.5133 149.161 44.1C149.668 43.6733 149.921 43.0467 149.921 42.22C149.921 41.4067 149.668 40.8 149.161 40.4C148.655 39.9867 147.915 39.78 146.941 39.78H143.861V44.72ZM156.546 52C155.852 52 155.292 51.82 154.866 51.46C154.439 51.1 154.226 50.5267 154.226 49.74V37.8H156.346V49.54C156.346 49.78 156.406 49.96 156.526 50.08C156.659 50.2 156.846 50.26 157.086 50.26H157.926V52H156.546ZM162.431 52.24C161.324 52.24 160.437 51.9867 159.771 51.48C159.117 50.9733 158.791 50.26 158.791 49.34C158.791 48.42 159.064 47.7067 159.611 47.2C160.171 46.68 161.031 46.3067 162.191 46.08L165.851 45.38C165.851 44.5533 165.657 43.94 165.271 43.54C164.884 43.1267 164.311 42.92 163.551 42.92C162.871 42.92 162.337 43.0733 161.951 43.38C161.564 43.6733 161.297 44.1133 161.151 44.7L158.971 44.56C159.171 43.4933 159.664 42.6533 160.451 42.04C161.251 41.4267 162.284 41.12 163.551 41.12C164.991 41.12 166.084 41.5067 166.831 42.28C167.591 43.04 167.971 44.1133 167.971 45.5V49.64C167.971 49.8933 168.011 50.0733 168.091 50.18C168.184 50.2733 168.331 50.32 168.531 50.32H168.911V52C168.844 52.0133 168.737 52.0267 168.591 52.04C168.444 52.0533 168.291 52.06 168.131 52.06C167.677 52.06 167.284 51.9867 166.951 51.84C166.631 51.6933 166.391 51.4533 166.231 51.12C166.071 50.7733 165.991 50.3133 165.991 49.74L166.211 49.84C166.104 50.3067 165.871 50.72 165.511 51.08C165.164 51.44 164.717 51.7267 164.171 51.94C163.637 52.14 163.057 52.24 162.431 52.24ZM162.771 50.56C163.411 50.56 163.957 50.44 164.411 50.2C164.864 49.9467 165.217 49.6 165.471 49.16C165.724 48.72 165.851 48.22 165.851 47.66V46.98L162.731 47.58C162.091 47.7 161.637 47.8933 161.371 48.16C161.117 48.4133 160.991 48.74 160.991 49.14C160.991 49.5933 161.144 49.9467 161.451 50.2C161.771 50.44 162.211 50.56 162.771 50.56ZM170.301 52V41.36H172.241L172.321 44.2L172.061 44.06C172.181 43.3667 172.407 42.8067 172.741 42.38C173.074 41.9533 173.481 41.64 173.961 41.44C174.441 41.2267 174.961 41.12 175.521 41.12C176.321 41.12 176.981 41.3 177.501 41.66C178.034 42.0067 178.434 42.4867 178.701 43.1C178.981 43.7 179.121 44.3867 179.121 45.16V52H177.001V45.8C177.001 45.1733 176.934 44.6467 176.801 44.22C176.667 43.7933 176.447 43.4667 176.141 43.24C175.834 43.0133 175.434 42.9 174.941 42.9C174.194 42.9 173.587 43.1467 173.121 43.64C172.654 44.1333 172.421 44.8533 172.421 45.8V52H170.301ZM13.58 76V64.68C13.58 63.8 13.8267 63.1 14.32 62.58C14.8133 62.06 15.5867 61.8 16.64 61.8H18.52V63.54H16.92C16.5067 63.54 16.2 63.6533 16 63.88C15.8 64.0933 15.7 64.4 15.7 64.8V76H13.58ZM12.1 67.22V65.5H18.36V67.22H12.1ZM23.8422 76.24C22.7755 76.24 21.9222 75.8867 21.2822 75.18C20.6555 74.46 20.3422 73.4667 20.3422 72.2V65.36H22.4622V71.66C22.4622 72.62 22.6289 73.3267 22.9622 73.78C23.2955 74.2333 23.8022 74.46 24.4822 74.46C25.2555 74.46 25.8555 74.2133 26.2822 73.72C26.7222 73.2133 26.9422 72.5067 26.9422 71.6V65.36H29.0622V76H27.0822L27.0422 73.22L27.3422 73.34C27.1555 74.2733 26.7622 74.9933 26.1622 75.5C25.5622 75.9933 24.7889 76.24 23.8422 76.24ZM35.2136 76C34.2003 76 33.4536 75.7667 32.9736 75.3C32.4936 74.8333 32.2536 74.1067 32.2536 73.12V62.86H34.3736V72.96C34.3736 73.4533 34.4803 73.7933 34.6936 73.98C34.9069 74.1667 35.2336 74.26 35.6736 74.26H37.1936V76H35.2136ZM30.6336 67.1V65.36H37.1936V67.1H30.6336ZM42.3586 76.24C41.2919 76.24 40.4386 75.8867 39.7986 75.18C39.1719 74.46 38.8586 73.4667 38.8586 72.2V65.36H40.9786V71.66C40.9786 72.62 41.1453 73.3267 41.4786 73.78C41.8119 74.2333 42.3186 74.46 42.9986 74.46C43.7719 74.46 44.3719 74.2133 44.7986 73.72C45.2386 73.2133 45.4586 72.5067 45.4586 71.6V65.36H47.5786V76H45.5986L45.5586 73.22L45.8586 73.34C45.6719 74.2733 45.2786 74.9933 44.6786 75.5C44.0786 75.9933 43.3053 76.24 42.3586 76.24ZM50.1773 76V65.36H52.1173L52.1973 68.18L52.0173 68.12C52.164 67.16 52.4573 66.46 52.8973 66.02C53.3507 65.58 53.9573 65.36 54.7173 65.36H55.7373V67.26H54.7173C54.184 67.26 53.7373 67.3467 53.3773 67.52C53.0173 67.6933 52.744 67.96 52.5573 68.32C52.384 68.68 52.2973 69.1467 52.2973 69.72V76H50.1773ZM61.2277 76.24C60.1877 76.24 59.2877 76.0133 58.5277 75.56C57.781 75.1067 57.201 74.46 56.7877 73.62C56.3877 72.78 56.1877 71.8 56.1877 70.68C56.1877 69.56 56.3877 68.5867 56.7877 67.76C57.201 66.92 57.781 66.2733 58.5277 65.82C59.2743 65.3533 60.1543 65.12 61.1677 65.12C62.1277 65.12 62.9743 65.3467 63.7077 65.8C64.441 66.24 65.0077 66.88 65.4077 67.72C65.821 68.56 66.0277 69.5733 66.0277 70.76V71.3H58.3877C58.441 72.34 58.7143 73.12 59.2077 73.64C59.7143 74.16 60.3943 74.42 61.2477 74.42C61.8743 74.42 62.3943 74.2733 62.8077 73.98C63.221 73.6867 63.5077 73.2933 63.6677 72.8L65.8677 72.94C65.5877 73.9267 65.0343 74.7267 64.2077 75.34C63.3943 75.94 62.401 76.24 61.2277 76.24ZM58.3877 69.7H63.7877C63.721 68.7533 63.4477 68.0533 62.9677 67.6C62.501 67.1467 61.901 66.92 61.1677 66.92C60.4077 66.92 59.781 67.16 59.2877 67.64C58.8077 68.1067 58.5077 68.7933 58.3877 69.7ZM148.047 76V73.48H150.627V76H148.047Z" fill="#2D2D2D"/>
<path d="M74.2944 61.48L73.2944 64.62H74.4144V67.14H71.8144V64.92L73.0744 61.48H74.2944ZM77.9344 61.48L76.9344 64.62H78.0344V67.14H75.4544V64.92L76.7144 61.48H77.9344ZM80.2427 76V61.8H89.4827V63.78H82.4027V67.92H89.2427V69.84H82.4027V74.02H89.6427V76H80.2427ZM94.2005 76L90.3205 65.36H92.5805L95.4805 73.84L98.3805 65.36H100.66L96.7605 76H94.2005ZM106.005 76.24C104.965 76.24 104.065 76.0133 103.305 75.56C102.558 75.1067 101.978 74.46 101.565 73.62C101.165 72.78 100.965 71.8 100.965 70.68C100.965 69.56 101.165 68.5867 101.565 67.76C101.978 66.92 102.558 66.2733 103.305 65.82C104.052 65.3533 104.932 65.12 105.945 65.12C106.905 65.12 107.752 65.3467 108.485 65.8C109.218 66.24 109.785 66.88 110.185 67.72C110.598 68.56 110.805 69.5733 110.805 70.76V71.3H103.165C103.218 72.34 103.492 73.12 103.985 73.64C104.492 74.16 105.172 74.42 106.025 74.42C106.652 74.42 107.172 74.2733 107.585 73.98C107.998 73.6867 108.285 73.2933 108.445 72.8L110.645 72.94C110.365 73.9267 109.812 74.7267 108.985 75.34C108.172 75.94 107.178 76.24 106.005 76.24ZM103.165 69.7H108.565C108.498 68.7533 108.225 68.0533 107.745 67.6C107.278 67.1467 106.678 66.92 105.945 66.92C105.185 66.92 104.558 67.16 104.065 67.64C103.585 68.1067 103.285 68.7933 103.165 69.7ZM112.553 76V65.36H114.493L114.573 68.2L114.313 68.06C114.433 67.3667 114.66 66.8067 114.993 66.38C115.326 65.9533 115.733 65.64 116.213 65.44C116.693 65.2267 117.213 65.12 117.773 65.12C118.573 65.12 119.233 65.3 119.753 65.66C120.286 66.0067 120.686 66.4867 120.953 67.1C121.233 67.7 121.373 68.3867 121.373 69.16V76H119.253V69.8C119.253 69.1733 119.186 68.6467 119.053 68.22C118.92 67.7933 118.7 67.4667 118.393 67.24C118.086 67.0133 117.686 66.9 117.193 66.9C116.446 66.9 115.84 67.1467 115.373 67.64C114.906 68.1333 114.673 68.8533 114.673 69.8V76H112.553ZM127.288 76C126.274 76 125.528 75.7667 125.048 75.3C124.568 74.8333 124.328 74.1067 124.328 73.12V62.86H126.448V72.96C126.448 73.4533 126.554 73.7933 126.768 73.98C126.981 74.1667 127.308 74.26 127.748 74.26H129.268V76H127.288ZM122.708 67.1V65.36H129.268V67.1H122.708ZM134.818 76.24C133.818 76.24 132.971 76.0867 132.278 75.78C131.598 75.4733 131.071 75.0533 130.698 74.52C130.325 73.9733 130.111 73.3467 130.058 72.64L132.238 72.54C132.345 73.1267 132.598 73.5933 132.998 73.94C133.398 74.2867 134.005 74.46 134.818 74.46C135.485 74.46 136.011 74.3533 136.398 74.14C136.785 73.9267 136.978 73.5867 136.978 73.12C136.978 72.8667 136.911 72.6533 136.778 72.48C136.658 72.2933 136.418 72.14 136.058 72.02C135.698 71.8867 135.165 71.76 134.458 71.64C133.405 71.44 132.578 71.2067 131.978 70.94C131.378 70.6733 130.951 70.3333 130.698 69.92C130.445 69.5067 130.318 69.0067 130.318 68.42C130.318 67.4467 130.678 66.6533 131.398 66.04C132.131 65.4267 133.185 65.12 134.558 65.12C135.478 65.12 136.251 65.28 136.878 65.6C137.505 65.9067 137.991 66.3267 138.338 66.86C138.698 67.38 138.925 67.9667 139.018 68.62L136.838 68.74C136.771 68.3667 136.638 68.0467 136.438 67.78C136.251 67.5 135.998 67.2867 135.678 67.14C135.358 66.98 134.978 66.9 134.538 66.9C133.858 66.9 133.351 67.0333 133.018 67.3C132.685 67.5667 132.518 67.9133 132.518 68.34C132.518 68.66 132.591 68.92 132.738 69.12C132.898 69.32 133.151 69.4867 133.498 69.62C133.845 69.74 134.305 69.8467 134.878 69.94C135.985 70.1267 136.851 70.36 137.478 70.64C138.105 70.9067 138.545 71.24 138.798 71.64C139.051 72.04 139.178 72.5267 139.178 73.1C139.178 73.7667 138.991 74.3333 138.618 74.8C138.245 75.2667 137.731 75.6267 137.078 75.88C136.425 76.12 135.671 76.24 134.818 76.24ZM144.239 67.46L145.239 64.32H144.139V61.8H146.719V64.02L145.459 67.46H144.239ZM140.599 67.46L141.599 64.32H140.499V61.8H143.079V64.02L141.819 67.46H140.599Z" fill="#EE9C2E"/>
</svg>
