<svg width="44" height="44" viewBox="0 0 44 44" fill="none" xmlns="http://www.w3.org/2000/svg">
<rect width="44" height="44" rx="22" fill="#F0EEFA"/>
<path d="M19.9429 13C17.5286 13 15.5714 14.9572 15.5714 17.3714C15.5714 19.7857 17.5286 21.7429 19.9429 21.7429C22.3571 21.7429 24.3143 19.7857 24.3143 17.3714C24.3143 14.9572 22.3571 13 19.9429 13Z" fill="#6A59CE"/>
<path d="M22.5226 23.6877C20.8136 23.4149 19.0721 23.4149 17.3631 23.6877L17.1799 23.7169C14.7719 24.1012 13 26.1783 13 28.6168C13 29.933 14.067 31 15.3832 31H24.5025C25.8187 31 26.8857 29.933 26.8857 28.6168C26.8857 26.1783 25.1138 24.1012 22.7058 23.7169L22.5226 23.6877Z" fill="#6A59CE"/>
<path fill-rule="evenodd" clip-rule="evenodd" d="M28.1714 19.1714C28.5975 19.1714 28.9429 19.5168 28.9429 19.9429V21.2286H30.2286C30.6546 21.2286 31 21.574 31 22C31 22.426 30.6546 22.7714 30.2286 22.7714H28.9429V24.0571C28.9429 24.4832 28.5975 24.8286 28.1714 24.8286C27.7454 24.8286 27.4 24.4832 27.4 24.0571V22.7714H26.1143C25.6882 22.7714 25.3429 22.426 25.3429 22C25.3429 21.574 25.6882 21.2286 26.1143 21.2286H27.4V19.9429C27.4 19.5168 27.7454 19.1714 28.1714 19.1714Z" fill="#6A59CE"/>
</svg>
