<svg width="42" height="42" viewBox="0 0 42 42" fill="none" xmlns="http://www.w3.org/2000/svg">
<rect width="41.7273" height="41.7273" rx="20.8636" fill="#F0EEFA"/>
<g clip-path="url(#clip0_16691_3994)">
<path d="M20.8633 10.8635C23.2474 10.8598 25.5537 11.7114 27.3633 13.2635C26.5341 13.9735 25.8262 14.8138 25.2673 15.7515L25.2233 15.7315C25.104 15.6736 24.9744 15.64 24.842 15.6326C24.7096 15.6252 24.577 15.6443 24.452 15.6886C24.3271 15.7329 24.2122 15.8017 24.114 15.8909C24.0158 15.98 23.9364 16.0878 23.8803 16.208C23.8242 16.3282 23.7926 16.4583 23.7872 16.5908C23.7819 16.7233 23.8029 16.8555 23.8492 16.9798C23.8954 17.1041 23.966 17.2179 24.0566 17.3147C24.1473 17.4115 24.2563 17.4893 24.3773 17.5435L24.4203 17.5635C24.1604 18.3074 23.9899 19.0794 23.9123 19.8635H23.8633C23.5981 19.8635 23.3437 19.9689 23.1562 20.1564C22.9687 20.344 22.8633 20.5983 22.8633 20.8635C22.8633 21.1288 22.9687 21.3831 23.1562 21.5706C23.3437 21.7582 23.5981 21.8635 23.8633 21.8635H23.9133C23.9908 22.6475 24.161 23.4196 24.4203 24.1635L24.3773 24.1835C24.2563 24.2378 24.1473 24.3156 24.0566 24.4123C23.966 24.5091 23.8954 24.623 23.8492 24.7473C23.8029 24.8715 23.7819 25.0038 23.7872 25.1363C23.7926 25.2688 23.8242 25.3989 23.8803 25.5191C23.9364 25.6392 24.0158 25.747 24.114 25.8362C24.2122 25.9254 24.3271 25.9941 24.452 26.0385C24.577 26.0828 24.7096 26.1018 24.842 26.0945C24.9744 26.0871 25.104 26.0535 25.2233 25.9955L25.2673 25.9755C25.8273 26.9155 26.5373 27.7555 27.3633 28.4635C25.5537 30.0157 23.2474 30.8673 20.8633 30.8635C18.4792 30.8673 16.1729 30.0157 14.3633 28.4635C15.1924 27.7535 15.9004 26.9132 16.4593 25.9755L16.5033 25.9955C16.6226 26.0535 16.7522 26.0871 16.8846 26.0945C17.017 26.1018 17.1496 26.0828 17.2745 26.0385C17.3995 25.9941 17.5144 25.9254 17.6126 25.8362C17.7107 25.747 17.7902 25.6392 17.8463 25.5191C17.9024 25.3989 17.934 25.2688 17.9394 25.1363C17.9447 25.0038 17.9236 24.8715 17.8774 24.7473C17.8311 24.623 17.7606 24.5091 17.67 24.4123C17.5793 24.3156 17.4703 24.2378 17.3493 24.1835L17.3063 24.1635C17.5658 23.4197 17.736 22.6476 17.8133 21.8635H17.8633C18.1285 21.8635 18.3829 21.7582 18.5704 21.5706C18.7579 21.3831 18.8633 21.1288 18.8633 20.8635C18.8633 20.5983 18.7579 20.344 18.5704 20.1564C18.3829 19.9689 18.1285 19.8635 17.8633 19.8635H17.8133C17.736 19.0795 17.5658 18.3074 17.3063 17.5635L17.3493 17.5435C17.4683 17.488 17.5753 17.4095 17.664 17.3127C17.7527 17.2158 17.8215 17.1024 17.8664 16.9789C17.9113 16.8555 17.9314 16.7244 17.9257 16.5931C17.9199 16.4619 17.8883 16.3331 17.8328 16.214C17.7772 16.095 17.6988 15.9881 17.6019 15.8993C17.505 15.8106 17.3916 15.7418 17.2682 15.6969C17.1447 15.652 17.0136 15.6319 16.8824 15.6377C16.7512 15.6434 16.6223 15.675 16.5033 15.7305L16.4593 15.7515C15.8993 14.8115 15.1893 13.9715 14.3633 13.2635C16.1729 11.7114 18.4792 10.8598 20.8633 10.8635ZM12.9783 14.7125C13.6267 15.252 14.1862 15.8902 14.6363 16.6035C14.4095 16.7235 14.2374 16.9261 14.1558 17.1694C14.0741 17.4127 14.0891 17.678 14.1977 17.9105C14.3062 18.1431 14.5 18.325 14.739 18.4186C14.9779 18.5122 15.2437 18.5104 15.4813 18.4135C15.6313 18.8795 15.7393 19.3655 15.8013 19.8655C15.5475 19.8816 15.3094 19.9938 15.1354 20.1791C14.9614 20.3645 14.8645 20.6093 14.8645 20.8635C14.8645 21.1178 14.9614 21.3625 15.1354 21.5479C15.3094 21.7333 15.5475 21.8455 15.8013 21.8615C15.7393 22.3615 15.6313 22.8475 15.4813 23.3145C15.2442 23.2202 14.9801 23.22 14.7429 23.314C14.5057 23.4081 14.3134 23.5892 14.2054 23.8204C14.0974 24.0516 14.0819 24.3153 14.162 24.5576C14.2421 24.7998 14.4118 25.0023 14.6363 25.1235C14.1862 25.8369 13.6267 26.4751 12.9783 27.0145C11.6046 25.2588 10.8598 23.0928 10.8633 20.8635C10.8633 18.5435 11.6533 16.4085 12.9783 14.7125ZM28.7483 14.7125C30.122 16.4683 30.8668 18.6343 30.8633 20.8635C30.8633 23.1835 30.0733 25.3185 28.7483 27.0145C28.0999 26.475 27.5404 25.8369 27.0903 25.1235C27.3171 25.0036 27.4892 24.801 27.5708 24.5577C27.6525 24.3144 27.6374 24.0491 27.5289 23.8165C27.4203 23.584 27.2265 23.4021 26.9876 23.3085C26.7487 23.2149 26.4829 23.2167 26.2453 23.3135C26.0935 22.8406 25.9864 22.3545 25.9253 21.8615C26.1791 21.8455 26.4172 21.7333 26.5912 21.5479C26.7652 21.3625 26.8621 21.1178 26.8621 20.8635C26.8621 20.6093 26.7652 20.3645 26.5912 20.1791C26.4172 19.9938 26.1791 19.8816 25.9253 19.8655C25.9873 19.3655 26.0953 18.8795 26.2453 18.4125C26.4824 18.5069 26.7465 18.5071 26.9837 18.4131C27.2209 18.319 27.4132 18.1379 27.5212 17.9067C27.6292 17.6755 27.6447 17.4118 27.5646 17.1695C27.4845 16.9272 27.3148 16.7248 27.0903 16.6035C27.5404 15.8902 28.0999 15.252 28.7483 14.7125Z" fill="#6A59CE"/>
</g>
<defs>
<clipPath id="clip0_16691_3994">
<rect width="24" height="24" fill="white" transform="translate(8.86328 8.86353)"/>
</clipPath>
</defs>
</svg>
