<svg width="20" height="20" viewBox="0 0 20 20" fill="none" xmlns="http://www.w3.org/2000/svg">
<g clip-path="url(#clip0_16693_5189)">
<path d="M2.14006 15.9492L7.14006 3.03253C7.18952 2.9046 7.26979 2.79085 7.37375 2.70138C7.47772 2.61192 7.60215 2.54949 7.73603 2.51965C7.8699 2.48981 8.00907 2.49347 8.14119 2.53032C8.2733 2.56716 8.39429 2.63605 8.4934 2.73086L11.3117 5.4267L13.0401 3.6992C13.0984 3.64106 13.1726 3.60151 13.2534 3.58553C13.3342 3.56956 13.4179 3.57788 13.4939 3.60944C13.57 3.64101 13.635 3.6944 13.6807 3.76288C13.7265 3.83136 13.7509 3.91185 13.7509 3.9942V7.76003L18.0767 11.8975C18.1841 12.0002 18.262 12.1297 18.3025 12.2726C18.3429 12.4156 18.3445 12.5667 18.3069 12.7104C18.2693 12.8541 18.194 12.9852 18.0888 13.09C17.9836 13.1949 17.8522 13.2697 17.7084 13.3067L3.12506 17.0567C2.9768 17.0947 2.82094 17.0911 2.67458 17.0463C2.52822 17.0016 2.39701 16.9174 2.29535 16.803C2.19368 16.6886 2.12549 16.5484 2.09824 16.3978C2.071 16.2472 2.08576 16.092 2.1409 15.9492H2.14006ZM4.16756 14.9992L13.3076 9.04003L11.8617 7.6567L4.16756 14.9992Z" fill="#777777"/>
</g>
<defs>
<clipPath id="clip0_16693_5189">
<rect width="20" height="20" fill="white" transform="matrix(-1 0 0 -1 20 20)"/>
</clipPath>
</defs>
</svg>
