<svg width="20" height="20" viewBox="0 0 20 20" fill="none" xmlns="http://www.w3.org/2000/svg">
<path d="M17.8599 4.0508L12.8599 16.9675C12.8105 17.0954 12.7302 17.2091 12.6262 17.2986C12.5223 17.3881 12.3978 17.4505 12.264 17.4803C12.1301 17.5102 11.9909 17.5065 11.8588 17.4697C11.7267 17.4328 11.6057 17.364 11.5066 17.2691L8.68827 14.5733L6.95994 16.3008C6.90162 16.3589 6.82738 16.3985 6.7466 16.4145C6.66582 16.4304 6.58211 16.4221 6.50606 16.3906C6.43 16.359 6.365 16.3056 6.31927 16.2371C6.27354 16.1686 6.24912 16.0882 6.2491 16.0058V12.24L1.92327 8.10247C1.81594 7.99978 1.73801 7.87028 1.69754 7.72736C1.65707 7.58444 1.65554 7.4333 1.6931 7.28959C1.73067 7.14587 1.80596 7.01482 1.91119 6.90998C2.01642 6.80514 2.14775 6.73033 2.2916 6.6933L16.8749 2.9433C17.0232 2.90532 17.1791 2.90891 17.3254 2.95366C17.4718 2.99842 17.603 3.08262 17.7047 3.19702C17.8063 3.31143 17.8745 3.45162 17.9018 3.60223C17.929 3.75283 17.9142 3.90803 17.8591 4.0508H17.8599ZM15.8324 5.0008L6.69244 10.96L8.13827 12.3433L15.8324 5.0008Z" fill="#777777"/>
</svg>
