<svg width="24" height="23" viewBox="0 0 24 23" fill="none" xmlns="http://www.w3.org/2000/svg">
<path d="M14.6667 20C15.0065 20.0004 15.3334 20.1305 15.5805 20.3638C15.8276 20.5971 15.9763 20.9159 15.9962 21.2552C16.0161 21.5944 15.9058 21.9285 15.6876 22.1891C15.4695 22.4497 15.1601 22.6172 14.8227 22.6573L14.6667 22.6667H1.33333C0.993494 22.6663 0.666624 22.5362 0.419509 22.3029C0.172394 22.0696 0.0236867 21.7507 0.00377051 21.4115C-0.0161457 21.0722 0.0942328 20.7382 0.312353 20.4776C0.530474 20.217 0.839872 20.0495 1.17733 20.0093L1.33333 20H14.6667ZM22.6667 13.3333C23.0203 13.3333 23.3594 13.4738 23.6095 13.7239C23.8595 13.9739 24 14.313 24 14.6667C24 15.0203 23.8595 15.3594 23.6095 15.6095C23.3594 15.8595 23.0203 16 22.6667 16H1.33333C0.979711 16 0.640573 15.8595 0.390524 15.6095C0.140476 15.3594 0 15.0203 0 14.6667C0 14.313 0.140476 13.9739 0.390524 13.7239C0.640573 13.4738 0.979711 13.3333 1.33333 13.3333H22.6667ZM14.6667 6.66667C15.0065 6.66704 15.3334 6.79717 15.5805 7.03046C15.8276 7.26376 15.9763 7.5826 15.9962 7.92186C16.0161 8.26112 15.9058 8.59517 15.6876 8.85578C15.4695 9.11638 15.1601 9.28386 14.8227 9.324L14.6667 9.33333H1.33333C0.993494 9.33296 0.666624 9.20283 0.419509 8.96953C0.172394 8.73624 0.0236867 8.4174 0.00377051 8.07814C-0.0161457 7.73888 0.0942328 7.40483 0.312353 7.14422C0.530474 6.88362 0.839872 6.71614 1.17733 6.676L1.33333 6.66667H14.6667ZM22.6667 0C23.0065 0.000376943 23.3334 0.130506 23.5805 0.363798C23.8276 0.59709 23.9763 0.915937 23.9962 1.25519C24.0161 1.59445 23.9058 1.92851 23.6876 2.18911C23.4695 2.44971 23.1601 2.6172 22.8227 2.65733L22.6667 2.66667H1.33333C0.993494 2.66629 0.666624 2.53616 0.419509 2.30287C0.172394 2.06958 0.0236867 1.75073 0.00377051 1.41147C-0.0161457 1.07222 0.0942328 0.738161 0.312353 0.477557C0.530474 0.216952 0.839872 0.0494715 1.17733 0.00933329L1.33333 0H22.6667Z" fill="#DFDFDF"/>
</svg>
