<svg width="5" height="8" viewBox="0 0 5 8" fill="none" xmlns="http://www.w3.org/2000/svg">
<path fill-rule="evenodd" clip-rule="evenodd" d="M4.536 4.53579C4.72347 4.34826 4.82879 4.09395 4.82879 3.82879C4.82879 3.56362 4.72347 3.30932 4.536 3.12179L1.707 0.292787C1.56709 0.152917 1.38883 0.0576906 1.19479 0.0191549C1.00074 -0.0193808 0.799624 0.000506029 0.616884 0.0763C0.434143 0.152094 0.27799 0.280389 0.168182 0.444952C0.0583735 0.609516 -0.00015534 0.802952 3.09641e-07 1.00079V6.65679C-0.00015534 6.85462 0.0583735 7.04806 0.168182 7.21262C0.27799 7.37719 0.434143 7.50548 0.616884 7.58127C0.799624 7.65707 1.00074 7.67696 1.19479 7.63842C1.38883 7.59988 1.56709 7.50466 1.707 7.36479L4.536 4.53579Z" fill="#777777"/>
</svg>
