<svg width="14" height="14" viewBox="0 0 14 14" fill="none" xmlns="http://www.w3.org/2000/svg">
<path fill-rule="evenodd" clip-rule="evenodd" d="M4.52231 0.257774C5.98755 -0.0859246 7.51245 -0.0859249 8.97769 0.257774C11.0937 0.75412 12.7459 2.40631 13.2422 4.52231C13.5859 5.98755 13.5859 7.51245 13.2422 8.97769C12.7459 11.0937 11.0937 12.7459 8.97769 13.2422C7.51245 13.5859 5.98755 13.5859 4.52231 13.2422C2.40631 12.7459 0.754122 11.0937 0.257775 8.97769C-0.085925 7.51245 -0.0859249 5.98755 0.257775 4.52231C0.754122 2.40631 2.40631 0.75412 4.52231 0.257774ZM7.18076 4.59611C7.18076 4.3582 6.98789 4.16533 6.74998 4.16533C6.51207 4.16533 6.3192 4.3582 6.3192 4.59611L6.3192 8.18593C6.3192 8.42384 6.51207 8.61671 6.74998 8.61671C6.98789 8.61671 7.18076 8.42384 7.18076 8.18593V4.59611ZM5.02687 6.03204C5.02687 5.79413 4.834 5.60126 4.59609 5.60126C4.35817 5.60126 4.16531 5.79413 4.16531 6.03204V8.9039C4.16531 9.14181 4.35817 9.33468 4.59609 9.33468C4.834 9.33468 5.02687 9.14181 5.02687 8.9039V6.03204ZM9.33465 6.75C9.33465 6.51209 9.14179 6.31922 8.90387 6.31922C8.66596 6.31922 8.4731 6.51209 8.4731 6.75V8.9039C8.4731 9.14181 8.66596 9.33468 8.90387 9.33468C9.14179 9.33468 9.33465 9.14181 9.33465 8.9039V6.75Z" fill="#DFDFDF"/>
</svg>
