<svg width="300" height="54" viewBox="0 0 300 54" fill="none" xmlns="http://www.w3.org/2000/svg">
<path d="M291 0V0.5H292C292.332 0.5 292.66 0.521659 292.98 0.563477L293.044 0.0693359C293.75 0.161307 294.426 0.344 295.062 0.607422L294.871 1.06934C295.48 1.32199 296.049 1.65232 296.565 2.04883L296.868 1.65332C297.423 2.07938 297.92 2.5763 298.346 3.13086L297.951 3.43457C298.348 3.95061 298.678 4.51973 298.931 5.12891L299.392 4.9375C299.655 5.57288 299.838 6.24948 299.93 6.95508L299.437 7.01953C299.478 7.34012 299.5 7.66755 299.5 8V8.9502H300V10.8496H299.5V12.75H300V14.6504H299.5V16.5498H300V18.4502H299.5V20.3496H300V22.25H299.5V24.1504H300V26.0498H299.5V27.9502H300V29.8496H299.5V31.75H300V33.6504H299.5V35.5498H300V37.4502H299.5V39.3496H300V41.25H299.5V43.1504H300V45.0498H299.5V46C299.5 46.3325 299.478 46.6599 299.437 46.9805L299.93 47.0439C299.838 47.7496 299.655 48.4261 299.392 49.0615L298.931 48.8711C298.678 49.4803 298.348 50.0494 297.951 50.5654L298.346 50.8682C297.92 51.4228 297.423 51.9196 296.868 52.3457L296.565 51.9512C296.049 52.3477 295.48 52.678 294.871 52.9307L295.062 53.3916C294.426 53.6551 293.75 53.8377 293.044 53.9297L292.98 53.4365C292.66 53.4783 292.332 53.5 292 53.5H291V54H289V53.5H287V54H285V53.5H283V54H281V53.5H279V54H277V53.5H275V54H273V53.5H271V54H269V53.5H267V54H265V53.5H263V54H261V53.5H259V54H257V53.5H255V54H253V53.5H251V54H249V53.5H247V54H245V53.5H243V54H241V53.5H239V54H237V53.5H235V54H233V53.5H231V54H229V53.5H227V54H225V53.5H223V54H221V53.5H219V54H217V53.5H215V54H213V53.5H211V54H209V53.5H207V54H205V53.5H203V54H201V53.5H199V54H197V53.5H195V54H193V53.5H191V54H189V53.5H187V54H185V53.5H183V54H181V53.5H179V54H177V53.5H175V54H173V53.5H171V54H169V53.5H167V54H165V53.5H163V54H161V53.5H159V54H157V53.5H155V54H153V53.5H151V54H149V53.5H147V54H145V53.5H143V54H141V53.5H139V54H137V53.5H135V54H133V53.5H131V54H129V53.5H127V54H125V53.5H123V54H121V53.5H119V54H117V53.5H115V54H113V53.5H111V54H109V53.5H107V54H105V53.5H103V54H101V53.5H99V54H97V53.5H95V54H93V53.5H91V54H89V53.5H87V54H85V53.5H83V54H81V53.5H79V54H77V53.5H75V54H73V53.5H71V54H69V53.5H67V54H65V53.5H63V54H61V53.5H59V54H57V53.5H55V54H53V53.5H51V54H49V53.5H47V54H45V53.5H43V54H41V53.5H39V54H37V53.5H35V54H33V53.5H31V54H29V53.5H27V54H25V53.5H23V54H21V53.5H19V54H17V53.5H15V54H13V53.5H11V54H9V53.5H8C7.66755 53.5 7.34012 53.4783 7.01953 53.4365L6.95508 53.9297C6.24948 53.8376 5.57288 53.6551 4.9375 53.3916L5.12891 52.9307C4.51973 52.678 3.95061 52.3477 3.43457 51.9512L3.13086 52.3457C2.5763 51.9195 2.07938 51.4228 1.65332 50.8682L2.04883 50.5654C1.65232 50.0494 1.32199 49.4803 1.06934 48.8711L0.607422 49.0615C0.344001 48.4262 0.161307 47.7495 0.0693359 47.0439L0.563477 46.9805C0.521659 46.6599 0.5 46.3325 0.5 46V45.0498H0V43.1504H0.5V41.25H0V39.3496H0.5V37.4502H0V35.5498H0.5V33.6504H0V31.75H0.5V29.8496H0V27.9502H0.5V26.0498H0V24.1504H0.5V22.25H0V20.3496H0.5V18.4502H0V16.5498H0.5V14.6504H0V12.75H0.5V10.8496H0V8.9502H0.5V8C0.5 7.66755 0.521659 7.34012 0.563477 7.01953L0.0693359 6.95508C0.161389 6.24956 0.343935 5.57282 0.607422 4.9375L1.06934 5.12891C1.32199 4.51973 1.65232 3.95061 2.04883 3.43457L1.65332 3.13086C2.0794 2.57632 2.57632 2.0794 3.13086 1.65332L3.43457 2.04883C3.95061 1.65232 4.51973 1.32199 5.12891 1.06934L4.9375 0.607422C5.57282 0.343935 6.24956 0.161389 6.95508 0.0693359L7.01953 0.563477C7.34012 0.521659 7.66755 0.5 8 0.5H9V0H11V0.5H13V0H15V0.5H17V0H19V0.5H21V0H23V0.5H25V0H27V0.5H29V0H31V0.5H33V0H35V0.5H37V0H39V0.5H41V0H43V0.5H45V0H47V0.5H49V0H51V0.5H53V0H55V0.5H57V0H59V0.5H61V0H63V0.5H65V0H67V0.5H69V0H71V0.5H73V0H75V0.5H77V0H79V0.5H81V0H83V0.5H85V0H87V0.5H89V0H91V0.5H93V0H95V0.5H97V0H99V0.5H101V0H103V0.5H105V0H107V0.5H109V0H111V0.5H113V0H115V0.5H117V0H119V0.5H121V0H123V0.5H125V0H127V0.5H129V0H131V0.5H133V0H135V0.5H137V0H139V0.5H141V0H143V0.5H145V0H147V0.5H149V0H151V0.5H153V0H155V0.5H157V0H159V0.5H161V0H163V0.5H165V0H167V0.5H169V0H171V0.5H173V0H175V0.5H177V0H179V0.5H181V0H183V0.5H185V0H187V0.5H189V0H191V0.5H193V0H195V0.5H197V0H199V0.5H201V0H203V0.5H205V0H207V0.5H209V0H211V0.5H213V0H215V0.5H217V0H219V0.5H221V0H223V0.5H225V0H227V0.5H229V0H231V0.5H233V0H235V0.5H237V0H239V0.5H241V0H243V0.5H245V0H247V0.5H249V0H251V0.5H253V0H255V0.5H257V0H259V0.5H261V0H263V0.5H265V0H267V0.5H269V0H271V0.5H273V0H275V0.5H277V0H279V0.5H281V0H283V0.5H285V0H287V0.5H289V0H291Z" fill="#F0EEFA"/>
<path d="M291 0V0.5H292C292.332 0.5 292.66 0.521659 292.98 0.563477L293.044 0.0693359C293.75 0.161307 294.426 0.344 295.062 0.607422L294.871 1.06934C295.48 1.32199 296.049 1.65232 296.565 2.04883L296.868 1.65332C297.423 2.07938 297.92 2.5763 298.346 3.13086L297.951 3.43457C298.348 3.95061 298.678 4.51973 298.931 5.12891L299.392 4.9375C299.655 5.57288 299.838 6.24948 299.93 6.95508L299.437 7.01953C299.478 7.34012 299.5 7.66755 299.5 8V8.9502H300V10.8496H299.5V12.75H300V14.6504H299.5V16.5498H300V18.4502H299.5V20.3496H300V22.25H299.5V24.1504H300V26.0498H299.5V27.9502H300V29.8496H299.5V31.75H300V33.6504H299.5V35.5498H300V37.4502H299.5V39.3496H300V41.25H299.5V43.1504H300V45.0498H299.5V46C299.5 46.3325 299.478 46.6599 299.437 46.9805L299.93 47.0439C299.838 47.7496 299.655 48.4261 299.392 49.0615L298.931 48.8711C298.678 49.4803 298.348 50.0494 297.951 50.5654L298.346 50.8682C297.92 51.4228 297.423 51.9196 296.868 52.3457L296.565 51.9512C296.049 52.3477 295.48 52.678 294.871 52.9307L295.062 53.3916C294.426 53.6551 293.75 53.8377 293.044 53.9297L292.98 53.4365C292.66 53.4783 292.332 53.5 292 53.5H291V54H289V53.5H287V54H285V53.5H283V54H281V53.5H279V54H277V53.5H275V54H273V53.5H271V54H269V53.5H267V54H265V53.5H263V54H261V53.5H259V54H257V53.5H255V54H253V53.5H251V54H249V53.5H247V54H245V53.5H243V54H241V53.5H239V54H237V53.5H235V54H233V53.5H231V54H229V53.5H227V54H225V53.5H223V54H221V53.5H219V54H217V53.5H215V54H213V53.5H211V54H209V53.5H207V54H205V53.5H203V54H201V53.5H199V54H197V53.5H195V54H193V53.5H191V54H189V53.5H187V54H185V53.5H183V54H181V53.5H179V54H177V53.5H175V54H173V53.5H171V54H169V53.5H167V54H165V53.5H163V54H161V53.5H159V54H157V53.5H155V54H153V53.5H151V54H149V53.5H147V54H145V53.5H143V54H141V53.5H139V54H137V53.5H135V54H133V53.5H131V54H129V53.5H127V54H125V53.5H123V54H121V53.5H119V54H117V53.5H115V54H113V53.5H111V54H109V53.5H107V54H105V53.5H103V54H101V53.5H99V54H97V53.5H95V54H93V53.5H91V54H89V53.5H87V54H85V53.5H83V54H81V53.5H79V54H77V53.5H75V54H73V53.5H71V54H69V53.5H67V54H65V53.5H63V54H61V53.5H59V54H57V53.5H55V54H53V53.5H51V54H49V53.5H47V54H45V53.5H43V54H41V53.5H39V54H37V53.5H35V54H33V53.5H31V54H29V53.5H27V54H25V53.5H23V54H21V53.5H19V54H17V53.5H15V54H13V53.5H11V54H9V53.5H8C7.66755 53.5 7.34012 53.4783 7.01953 53.4365L6.95508 53.9297C6.24948 53.8376 5.57288 53.6551 4.9375 53.3916L5.12891 52.9307C4.51973 52.678 3.95061 52.3477 3.43457 51.9512L3.13086 52.3457C2.5763 51.9195 2.07938 51.4228 1.65332 50.8682L2.04883 50.5654C1.65232 50.0494 1.32199 49.4803 1.06934 48.8711L0.607422 49.0615C0.344001 48.4262 0.161307 47.7495 0.0693359 47.0439L0.563477 46.9805C0.521659 46.6599 0.5 46.3325 0.5 46V45.0498H0V43.1504H0.5V41.25H0V39.3496H0.5V37.4502H0V35.5498H0.5V33.6504H0V31.75H0.5V29.8496H0V27.9502H0.5V26.0498H0V24.1504H0.5V22.25H0V20.3496H0.5V18.4502H0V16.5498H0.5V14.6504H0V12.75H0.5V10.8496H0V8.9502H0.5V8C0.5 7.66755 0.521659 7.34012 0.563477 7.01953L0.0693359 6.95508C0.161389 6.24956 0.343935 5.57282 0.607422 4.9375L1.06934 5.12891C1.32199 4.51973 1.65232 3.95061 2.04883 3.43457L1.65332 3.13086C2.0794 2.57632 2.57632 2.0794 3.13086 1.65332L3.43457 2.04883C3.95061 1.65232 4.51973 1.32199 5.12891 1.06934L4.9375 0.607422C5.57282 0.343935 6.24956 0.161389 6.95508 0.0693359L7.01953 0.563477C7.34012 0.521659 7.66755 0.5 8 0.5H9V0H11V0.5H13V0H15V0.5H17V0H19V0.5H21V0H23V0.5H25V0H27V0.5H29V0H31V0.5H33V0H35V0.5H37V0H39V0.5H41V0H43V0.5H45V0H47V0.5H49V0H51V0.5H53V0H55V0.5H57V0H59V0.5H61V0H63V0.5H65V0H67V0.5H69V0H71V0.5H73V0H75V0.5H77V0H79V0.5H81V0H83V0.5H85V0H87V0.5H89V0H91V0.5H93V0H95V0.5H97V0H99V0.5H101V0H103V0.5H105V0H107V0.5H109V0H111V0.5H113V0H115V0.5H117V0H119V0.5H121V0H123V0.5H125V0H127V0.5H129V0H131V0.5H133V0H135V0.5H137V0H139V0.5H141V0H143V0.5H145V0H147V0.5H149V0H151V0.5H153V0H155V0.5H157V0H159V0.5H161V0H163V0.5H165V0H167V0.5H169V0H171V0.5H173V0H175V0.5H177V0H179V0.5H181V0H183V0.5H185V0H187V0.5H189V0H191V0.5H193V0H195V0.5H197V0H199V0.5H201V0H203V0.5H205V0H207V0.5H209V0H211V0.5H213V0H215V0.5H217V0H219V0.5H221V0H223V0.5H225V0H227V0.5H229V0H231V0.5H233V0H235V0.5H237V0H239V0.5H241V0H243V0.5H245V0H247V0.5H249V0H251V0.5H253V0H255V0.5H257V0H259V0.5H261V0H263V0.5H265V0H267V0.5H269V0H271V0.5H273V0H275V0.5H277V0H279V0.5H281V0H283V0.5H285V0H287V0.5H289V0H291Z" stroke="#6A59CE" stroke-dasharray="2 2"/>
<path d="M21.844 23.192C21.044 23.192 20.36 23 19.792 22.616C19.224 22.232 18.788 21.708 18.484 21.044C18.188 20.372 18.04 19.608 18.04 18.752C18.04 17.896 18.192 17.132 18.496 16.46C18.8 15.788 19.236 15.26 19.804 14.876C20.38 14.484 21.068 14.288 21.868 14.288C22.548 14.288 23.12 14.412 23.584 14.66C24.056 14.908 24.428 15.244 24.7 15.668C24.98 16.092 25.172 16.568 25.276 17.096L24.196 17.168C24.092 16.616 23.86 16.168 23.5 15.824C23.14 15.472 22.596 15.296 21.868 15.296C21.22 15.296 20.692 15.456 20.284 15.776C19.884 16.096 19.588 16.52 19.396 17.048C19.212 17.568 19.12 18.136 19.12 18.752C19.12 19.4 19.216 19.984 19.408 20.504C19.6 21.016 19.9 21.424 20.308 21.728C20.716 22.032 21.236 22.184 21.868 22.184C22.372 22.184 22.808 22.072 23.176 21.848C23.544 21.616 23.828 21.308 24.028 20.924C24.228 20.54 24.332 20.124 24.34 19.676H21.892V18.692H25.3V23H24.532L24.46 21.032L24.604 21.2C24.508 21.584 24.324 21.928 24.052 22.232C23.78 22.528 23.452 22.764 23.068 22.94C22.692 23.108 22.284 23.192 21.844 23.192ZM29.2235 23.144C28.6235 23.144 28.1035 23.008 27.6635 22.736C27.2315 22.464 26.8955 22.08 26.6555 21.584C26.4235 21.08 26.3075 20.492 26.3075 19.82C26.3075 19.148 26.4235 18.564 26.6555 18.068C26.8955 17.572 27.2275 17.188 27.6515 16.916C28.0835 16.636 28.5915 16.496 29.1755 16.496C29.7275 16.496 30.2155 16.628 30.6395 16.892C31.0635 17.148 31.3915 17.524 31.6235 18.02C31.8635 18.516 31.9835 19.12 31.9835 19.832V20.132H27.3635C27.4035 20.812 27.5835 21.324 27.9035 21.668C28.2315 22.012 28.6715 22.184 29.2235 22.184C29.6395 22.184 29.9795 22.088 30.2435 21.896C30.5155 21.696 30.7035 21.436 30.8075 21.116L31.8875 21.2C31.7195 21.768 31.3995 22.236 30.9275 22.604C30.4635 22.964 29.8955 23.144 29.2235 23.144ZM27.3635 19.244H30.8795C30.8315 18.628 30.6515 18.176 30.3395 17.888C30.0355 17.6 29.6475 17.456 29.1755 17.456C28.6875 17.456 28.2835 17.608 27.9635 17.912C27.6515 18.208 27.4515 18.652 27.3635 19.244ZM35.1908 23C34.6148 23 34.1868 22.868 33.9068 22.604C33.6348 22.34 33.4988 21.928 33.4988 21.368V15.152H34.5068V21.344C34.5068 21.632 34.5708 21.832 34.6988 21.944C34.8268 22.056 35.0228 22.112 35.2868 22.112H36.1988V23H35.1908ZM32.5628 17.528V16.64H36.1988V17.528H32.5628ZM41.798 23.144C41.142 23.144 40.618 22.992 40.226 22.688C39.842 22.384 39.65 21.96 39.65 21.416C39.65 20.872 39.81 20.444 40.13 20.132C40.45 19.82 40.958 19.6 41.654 19.472L43.91 19.052C43.91 18.516 43.782 18.116 43.526 17.852C43.278 17.588 42.902 17.456 42.398 17.456C41.958 17.456 41.61 17.556 41.354 17.756C41.098 17.948 40.922 18.228 40.826 18.596L39.758 18.512C39.878 17.912 40.166 17.428 40.622 17.06C41.086 16.684 41.678 16.496 42.398 16.496C43.214 16.496 43.838 16.728 44.27 17.192C44.702 17.648 44.918 18.28 44.918 19.088V21.716C44.918 21.86 44.942 21.964 44.99 22.028C45.046 22.084 45.134 22.112 45.254 22.112H45.506V23C45.474 23.008 45.422 23.012 45.35 23.012C45.278 23.02 45.202 23.024 45.122 23.024C44.834 23.024 44.598 22.98 44.414 22.892C44.238 22.796 44.11 22.652 44.03 22.46C43.95 22.26 43.91 22 43.91 21.68L44.03 21.704C43.974 21.976 43.838 22.224 43.622 22.448C43.406 22.664 43.138 22.836 42.818 22.964C42.498 23.084 42.158 23.144 41.798 23.144ZM41.894 22.256C42.318 22.256 42.678 22.176 42.974 22.016C43.278 21.848 43.51 21.624 43.67 21.344C43.83 21.056 43.91 20.736 43.91 20.384V19.928L41.846 20.312C41.414 20.392 41.114 20.516 40.946 20.684C40.786 20.844 40.706 21.056 40.706 21.32C40.706 21.616 40.81 21.848 41.018 22.016C41.234 22.176 41.526 22.256 41.894 22.256ZM50.8314 23L48.5154 16.64H49.6194L51.4674 21.968L53.3154 16.64H54.4194L52.1034 23H50.8314ZM55.2878 23V16.64H56.2958V23H55.2878ZM55.2638 15.644V14.468H56.3198V15.644H55.2638ZM58.0947 23V16.64H58.9827L59.0307 18.248L58.9347 18.212C59.0147 17.668 59.1867 17.272 59.4507 17.024C59.7227 16.768 60.0827 16.64 60.5307 16.64H61.1547V17.6H60.5427C60.2227 17.6 59.9547 17.66 59.7387 17.78C59.5307 17.892 59.3707 18.064 59.2587 18.296C59.1547 18.52 59.1027 18.808 59.1027 19.16V23H58.0947ZM64.1319 23C63.5559 23 63.1279 22.868 62.8479 22.604C62.5759 22.34 62.4399 21.928 62.4399 21.368V15.152H63.4479V21.344C63.4479 21.632 63.5119 21.832 63.6399 21.944C63.7679 22.056 63.9639 22.112 64.2279 22.112H65.1399V23H64.1319ZM61.5039 17.528V16.64H65.1399V17.528H61.5039ZM68.2808 23.144C67.6488 23.144 67.1408 22.932 66.7568 22.508C66.3808 22.076 66.1928 21.484 66.1928 20.732V16.64H67.2008V20.456C67.2008 21.072 67.3088 21.528 67.5248 21.824C67.7488 22.112 68.0888 22.256 68.5448 22.256C69.0488 22.256 69.4448 22.096 69.7328 21.776C70.0208 21.448 70.1648 21 70.1648 20.432V16.64H71.1728V23H70.2128V21.428L70.3688 21.512C70.2408 22.032 69.9968 22.436 69.6368 22.724C69.2768 23.004 68.8248 23.144 68.2808 23.144ZM74.5712 23.144C73.9152 23.144 73.3912 22.992 72.9992 22.688C72.6152 22.384 72.4232 21.96 72.4232 21.416C72.4232 20.872 72.5832 20.444 72.9032 20.132C73.2232 19.82 73.7312 19.6 74.4272 19.472L76.6832 19.052C76.6832 18.516 76.5552 18.116 76.2992 17.852C76.0512 17.588 75.6752 17.456 75.1712 17.456C74.7312 17.456 74.3832 17.556 74.1272 17.756C73.8712 17.948 73.6952 18.228 73.5992 18.596L72.5312 18.512C72.6512 17.912 72.9392 17.428 73.3952 17.06C73.8592 16.684 74.4512 16.496 75.1712 16.496C75.9872 16.496 76.6112 16.728 77.0432 17.192C77.4752 17.648 77.6912 18.28 77.6912 19.088V21.716C77.6912 21.86 77.7152 21.964 77.7632 22.028C77.8192 22.084 77.9072 22.112 78.0272 22.112H78.2792V23C78.2472 23.008 78.1952 23.012 78.1232 23.012C78.0512 23.02 77.9752 23.024 77.8952 23.024C77.6072 23.024 77.3712 22.98 77.1872 22.892C77.0112 22.796 76.8832 22.652 76.8032 22.46C76.7232 22.26 76.6832 22 76.6832 21.68L76.8032 21.704C76.7472 21.976 76.6112 22.224 76.3952 22.448C76.1792 22.664 75.9112 22.836 75.5912 22.964C75.2712 23.084 74.9312 23.144 74.5712 23.144ZM74.6672 22.256C75.0912 22.256 75.4512 22.176 75.7472 22.016C76.0512 21.848 76.2832 21.624 76.4432 21.344C76.6032 21.056 76.6832 20.736 76.6832 20.384V19.928L74.6192 20.312C74.1872 20.392 73.8872 20.516 73.7192 20.684C73.5592 20.844 73.4792 21.056 73.4792 21.32C73.4792 21.616 73.5832 21.848 73.7912 22.016C74.0072 22.176 74.2992 22.256 74.6672 22.256ZM80.3553 23C79.9873 23 79.6873 22.904 79.4553 22.712C79.2233 22.52 79.1073 22.216 79.1073 21.8V14.48H80.1153V21.716C80.1153 21.844 80.1473 21.944 80.2113 22.016C80.2833 22.08 80.3833 22.112 80.5113 22.112H81.0633V23H80.3553ZM86.5426 23.144C85.8866 23.144 85.3626 22.992 84.9706 22.688C84.5866 22.384 84.3946 21.96 84.3946 21.416C84.3946 20.872 84.5546 20.444 84.8746 20.132C85.1946 19.82 85.7026 19.6 86.3986 19.472L88.6546 19.052C88.6546 18.516 88.5266 18.116 88.2706 17.852C88.0226 17.588 87.6466 17.456 87.1426 17.456C86.7026 17.456 86.3546 17.556 86.0986 17.756C85.8426 17.948 85.6666 18.228 85.5706 18.596L84.5026 18.512C84.6226 17.912 84.9106 17.428 85.3666 17.06C85.8306 16.684 86.4226 16.496 87.1426 16.496C87.9586 16.496 88.5826 16.728 89.0146 17.192C89.4466 17.648 89.6626 18.28 89.6626 19.088V21.716C89.6626 21.86 89.6866 21.964 89.7346 22.028C89.7906 22.084 89.8786 22.112 89.9986 22.112H90.2506V23C90.2186 23.008 90.1666 23.012 90.0946 23.012C90.0226 23.02 89.9466 23.024 89.8666 23.024C89.5786 23.024 89.3426 22.98 89.1586 22.892C88.9826 22.796 88.8546 22.652 88.7746 22.46C88.6946 22.26 88.6546 22 88.6546 21.68L88.7746 21.704C88.7186 21.976 88.5826 22.224 88.3666 22.448C88.1506 22.664 87.8826 22.836 87.5626 22.964C87.2426 23.084 86.9026 23.144 86.5426 23.144ZM86.6386 22.256C87.0626 22.256 87.4226 22.176 87.7186 22.016C88.0226 21.848 88.2546 21.624 88.4146 21.344C88.5746 21.056 88.6546 20.736 88.6546 20.384V19.928L86.5906 20.312C86.1586 20.392 85.8586 20.516 85.6906 20.684C85.5306 20.844 85.4506 21.056 85.4506 21.32C85.4506 21.616 85.5546 21.848 85.7626 22.016C85.9786 22.176 86.2706 22.256 86.6386 22.256ZM93.6096 23.144C93.0176 23.144 92.5016 23.008 92.0616 22.736C91.6296 22.464 91.2936 22.08 91.0536 21.584C90.8136 21.08 90.6936 20.492 90.6936 19.82C90.6936 19.148 90.8136 18.564 91.0536 18.068C91.2936 17.572 91.6296 17.188 92.0616 16.916C92.5016 16.636 93.0176 16.496 93.6096 16.496C94.0976 16.496 94.5296 16.584 94.9056 16.76C95.2896 16.928 95.6016 17.176 95.8416 17.504C96.0816 17.832 96.2376 18.232 96.3096 18.704L95.2536 18.776C95.1816 18.352 94.9976 18.028 94.7016 17.804C94.4056 17.572 94.0416 17.456 93.6096 17.456C93.0256 17.456 92.5696 17.668 92.2416 18.092C91.9136 18.508 91.7496 19.084 91.7496 19.82C91.7496 20.556 91.9136 21.136 92.2416 21.56C92.5696 21.976 93.0256 22.184 93.6096 22.184C94.0416 22.184 94.4056 22.064 94.7016 21.824C94.9976 21.584 95.1816 21.224 95.2536 20.744L96.3096 20.816C96.2376 21.288 96.0816 21.7 95.8416 22.052C95.6016 22.396 95.2896 22.664 94.9056 22.856C94.5296 23.048 94.0976 23.144 93.6096 23.144ZM99.8032 23.144C99.2112 23.144 98.6952 23.008 98.2552 22.736C97.8232 22.464 97.4872 22.08 97.2472 21.584C97.0072 21.08 96.8872 20.492 96.8872 19.82C96.8872 19.148 97.0072 18.564 97.2472 18.068C97.4872 17.572 97.8232 17.188 98.2552 16.916C98.6952 16.636 99.2112 16.496 99.8032 16.496C100.291 16.496 100.723 16.584 101.099 16.76C101.483 16.928 101.795 17.176 102.035 17.504C102.275 17.832 102.431 18.232 102.503 18.704L101.447 18.776C101.375 18.352 101.191 18.028 100.895 17.804C100.599 17.572 100.235 17.456 99.8032 17.456C99.2192 17.456 98.7632 17.668 98.4352 18.092C98.1072 18.508 97.9432 19.084 97.9432 19.82C97.9432 20.556 98.1072 21.136 98.4352 21.56C98.7632 21.976 99.2192 22.184 99.8032 22.184C100.235 22.184 100.599 22.064 100.895 21.824C101.191 21.584 101.375 21.224 101.447 20.744L102.503 20.816C102.431 21.288 102.275 21.7 102.035 22.052C101.795 22.396 101.483 22.664 101.099 22.856C100.723 23.048 100.291 23.144 99.8032 23.144ZM105.997 23.144C105.413 23.144 104.901 23.008 104.461 22.736C104.021 22.464 103.681 22.08 103.441 21.584C103.201 21.08 103.081 20.492 103.081 19.82C103.081 19.14 103.201 18.552 103.441 18.056C103.681 17.56 104.021 17.176 104.461 16.904C104.901 16.632 105.413 16.496 105.997 16.496C106.581 16.496 107.089 16.632 107.521 16.904C107.961 17.176 108.301 17.56 108.541 18.056C108.781 18.552 108.901 19.14 108.901 19.82C108.901 20.492 108.781 21.08 108.541 21.584C108.301 22.08 107.961 22.464 107.521 22.736C107.089 23.008 106.581 23.144 105.997 23.144ZM105.997 22.184C106.581 22.184 107.033 21.976 107.353 21.56C107.681 21.136 107.845 20.556 107.845 19.82C107.845 19.084 107.681 18.508 107.353 18.092C107.033 17.668 106.581 17.456 105.997 17.456C105.413 17.456 104.957 17.668 104.629 18.092C104.301 18.508 104.137 19.084 104.137 19.82C104.137 20.556 104.301 21.136 104.629 21.56C104.957 21.976 105.413 22.184 105.997 22.184ZM112.123 23.144C111.491 23.144 110.983 22.932 110.599 22.508C110.223 22.076 110.035 21.484 110.035 20.732V16.64H111.043V20.456C111.043 21.072 111.151 21.528 111.367 21.824C111.591 22.112 111.931 22.256 112.387 22.256C112.891 22.256 113.287 22.096 113.575 21.776C113.863 21.448 114.007 21 114.007 20.432V16.64H115.015V23H114.055V21.428L114.211 21.512C114.083 22.032 113.839 22.436 113.479 22.724C113.119 23.004 112.667 23.144 112.123 23.144ZM116.697 23V16.64H117.621L117.657 18.26L117.537 18.152C117.617 17.776 117.757 17.468 117.957 17.228C118.157 16.98 118.397 16.796 118.677 16.676C118.965 16.556 119.273 16.496 119.601 16.496C120.089 16.496 120.489 16.604 120.801 16.82C121.121 17.036 121.357 17.328 121.509 17.696C121.669 18.056 121.749 18.46 121.749 18.908V23H120.741V19.196C120.741 18.804 120.693 18.476 120.597 18.212C120.509 17.94 120.365 17.736 120.165 17.6C119.965 17.456 119.705 17.384 119.385 17.384C118.897 17.384 118.493 17.54 118.173 17.852C117.861 18.156 117.705 18.604 117.705 19.196V23H116.697ZM125.277 23C124.701 23 124.273 22.868 123.993 22.604C123.721 22.34 123.585 21.928 123.585 21.368V15.152H124.593V21.344C124.593 21.632 124.657 21.832 124.785 21.944C124.913 22.056 125.109 22.112 125.373 22.112H126.285V23H125.277ZM122.649 17.528V16.64H126.285V17.528H122.649ZM132.496 23C131.92 23 131.492 22.868 131.212 22.604C130.94 22.34 130.804 21.928 130.804 21.368V15.152H131.812V21.344C131.812 21.632 131.876 21.832 132.004 21.944C132.132 22.056 132.328 22.112 132.592 22.112H133.504V23H132.496ZM129.868 17.528V16.64H133.504V17.528H129.868ZM136.924 23.144C136.34 23.144 135.828 23.008 135.388 22.736C134.948 22.464 134.608 22.08 134.368 21.584C134.128 21.08 134.008 20.492 134.008 19.82C134.008 19.14 134.128 18.552 134.368 18.056C134.608 17.56 134.948 17.176 135.388 16.904C135.828 16.632 136.34 16.496 136.924 16.496C137.508 16.496 138.016 16.632 138.448 16.904C138.888 17.176 139.228 17.56 139.468 18.056C139.708 18.552 139.828 19.14 139.828 19.82C139.828 20.492 139.708 21.08 139.468 21.584C139.228 22.08 138.888 22.464 138.448 22.736C138.016 23.008 137.508 23.144 136.924 23.144ZM136.924 22.184C137.508 22.184 137.96 21.976 138.28 21.56C138.608 21.136 138.772 20.556 138.772 19.82C138.772 19.084 138.608 18.508 138.28 18.092C137.96 17.668 137.508 17.456 136.924 17.456C136.34 17.456 135.884 17.668 135.556 18.092C135.228 18.508 135.064 19.084 135.064 19.82C135.064 20.556 135.228 21.136 135.556 21.56C135.884 21.976 136.34 22.184 136.924 22.184ZM146.155 23.144C145.587 23.144 145.103 23.052 144.703 22.868C144.311 22.684 144.003 22.432 143.779 22.112C143.563 21.784 143.439 21.412 143.407 20.996L144.463 20.924C144.527 21.308 144.691 21.616 144.955 21.848C145.219 22.072 145.619 22.184 146.155 22.184C146.587 22.184 146.931 22.116 147.187 21.98C147.451 21.836 147.583 21.608 147.583 21.296C147.583 21.128 147.543 20.988 147.463 20.876C147.383 20.764 147.227 20.668 146.995 20.588C146.763 20.5 146.419 20.416 145.963 20.336C145.355 20.224 144.875 20.088 144.523 19.928C144.179 19.76 143.931 19.556 143.779 19.316C143.635 19.068 143.563 18.776 143.563 18.44C143.563 17.872 143.771 17.408 144.187 17.048C144.603 16.68 145.195 16.496 145.963 16.496C146.483 16.496 146.919 16.592 147.271 16.784C147.631 16.968 147.911 17.216 148.111 17.528C148.319 17.832 148.455 18.168 148.519 18.536L147.463 18.608C147.415 18.384 147.327 18.188 147.199 18.02C147.071 17.844 146.903 17.708 146.695 17.612C146.487 17.508 146.239 17.456 145.951 17.456C145.495 17.456 145.159 17.544 144.943 17.72C144.727 17.896 144.619 18.12 144.619 18.392C144.619 18.6 144.667 18.772 144.763 18.908C144.867 19.036 145.031 19.144 145.255 19.232C145.479 19.312 145.779 19.384 146.155 19.448C146.803 19.56 147.307 19.696 147.667 19.856C148.027 20.016 148.279 20.212 148.423 20.444C148.567 20.676 148.639 20.96 148.639 21.296C148.639 21.688 148.527 22.024 148.303 22.304C148.087 22.576 147.791 22.784 147.415 22.928C147.047 23.072 146.627 23.144 146.155 23.144ZM152.259 23.144C151.659 23.144 151.139 23.008 150.699 22.736C150.267 22.464 149.931 22.08 149.691 21.584C149.459 21.08 149.343 20.492 149.343 19.82C149.343 19.148 149.459 18.564 149.691 18.068C149.931 17.572 150.263 17.188 150.687 16.916C151.119 16.636 151.627 16.496 152.211 16.496C152.763 16.496 153.251 16.628 153.675 16.892C154.099 17.148 154.427 17.524 154.659 18.02C154.899 18.516 155.019 19.12 155.019 19.832V20.132H150.399C150.439 20.812 150.619 21.324 150.939 21.668C151.267 22.012 151.707 22.184 152.259 22.184C152.675 22.184 153.015 22.088 153.279 21.896C153.551 21.696 153.739 21.436 153.843 21.116L154.923 21.2C154.755 21.768 154.435 22.236 153.963 22.604C153.499 22.964 152.931 23.144 152.259 23.144ZM150.399 19.244H153.915C153.867 18.628 153.687 18.176 153.375 17.888C153.071 17.6 152.683 17.456 152.211 17.456C151.723 17.456 151.319 17.608 150.999 17.912C150.687 18.208 150.487 18.652 150.399 19.244ZM156.144 23V16.64H157.068L157.104 18.26L156.984 18.152C157.064 17.776 157.204 17.468 157.404 17.228C157.604 16.98 157.844 16.796 158.124 16.676C158.412 16.556 158.72 16.496 159.048 16.496C159.536 16.496 159.936 16.604 160.248 16.82C160.568 17.036 160.804 17.328 160.956 17.696C161.116 18.056 161.196 18.46 161.196 18.908V23H160.188V19.196C160.188 18.804 160.14 18.476 160.044 18.212C159.956 17.94 159.812 17.736 159.612 17.6C159.412 17.456 159.152 17.384 158.832 17.384C158.344 17.384 157.94 17.54 157.62 17.852C157.308 18.156 157.152 18.604 157.152 19.196V23H156.144ZM164.992 23.144C164.44 23.144 163.96 23.008 163.552 22.736C163.152 22.464 162.844 22.08 162.628 21.584C162.412 21.088 162.304 20.5 162.304 19.82C162.304 19.14 162.412 18.552 162.628 18.056C162.844 17.56 163.152 17.176 163.552 16.904C163.96 16.632 164.44 16.496 164.992 16.496C165.416 16.496 165.804 16.588 166.156 16.772C166.508 16.948 166.772 17.2 166.948 17.528V14.48H167.956V23H167.044L167.008 22.04C166.832 22.384 166.564 22.656 166.204 22.856C165.844 23.048 165.44 23.144 164.992 23.144ZM165.196 22.184C165.572 22.184 165.888 22.088 166.144 21.896C166.408 21.704 166.608 21.432 166.744 21.08C166.88 20.72 166.948 20.3 166.948 19.82C166.948 19.324 166.88 18.9 166.744 18.548C166.608 18.196 166.408 17.928 166.144 17.744C165.888 17.552 165.572 17.456 165.196 17.456C164.636 17.456 164.188 17.668 163.852 18.092C163.524 18.508 163.36 19.084 163.36 19.82C163.36 20.548 163.524 21.124 163.852 21.548C164.188 21.972 164.636 22.184 165.196 22.184ZM169.237 24.872L169.813 23H169.201V21.644H170.557V22.832L169.837 24.872H169.237ZM176.883 23.144C176.315 23.144 175.831 23.052 175.431 22.868C175.039 22.684 174.731 22.432 174.507 22.112C174.291 21.784 174.167 21.412 174.135 20.996L175.191 20.924C175.255 21.308 175.419 21.616 175.683 21.848C175.947 22.072 176.347 22.184 176.883 22.184C177.315 22.184 177.659 22.116 177.915 21.98C178.179 21.836 178.311 21.608 178.311 21.296C178.311 21.128 178.271 20.988 178.191 20.876C178.111 20.764 177.955 20.668 177.723 20.588C177.491 20.5 177.147 20.416 176.691 20.336C176.083 20.224 175.603 20.088 175.251 19.928C174.907 19.76 174.659 19.556 174.507 19.316C174.363 19.068 174.291 18.776 174.291 18.44C174.291 17.872 174.499 17.408 174.915 17.048C175.331 16.68 175.923 16.496 176.691 16.496C177.211 16.496 177.647 16.592 177.999 16.784C178.359 16.968 178.639 17.216 178.839 17.528C179.047 17.832 179.183 18.168 179.247 18.536L178.191 18.608C178.143 18.384 178.055 18.188 177.927 18.02C177.799 17.844 177.631 17.708 177.423 17.612C177.215 17.508 176.967 17.456 176.679 17.456C176.223 17.456 175.887 17.544 175.671 17.72C175.455 17.896 175.347 18.12 175.347 18.392C175.347 18.6 175.395 18.772 175.491 18.908C175.595 19.036 175.759 19.144 175.983 19.232C176.207 19.312 176.507 19.384 176.883 19.448C177.531 19.56 178.035 19.696 178.395 19.856C178.755 20.016 179.007 20.212 179.151 20.444C179.295 20.676 179.367 20.96 179.367 21.296C179.367 21.688 179.255 22.024 179.031 22.304C178.815 22.576 178.519 22.784 178.143 22.928C177.775 23.072 177.355 23.144 176.883 23.144ZM182.585 23C182.009 23 181.581 22.868 181.301 22.604C181.029 22.34 180.893 21.928 180.893 21.368V15.152H181.901V21.344C181.901 21.632 181.965 21.832 182.093 21.944C182.221 22.056 182.417 22.112 182.681 22.112H183.593V23H182.585ZM179.957 17.528V16.64H183.593V17.528H179.957ZM187.012 23.144C186.428 23.144 185.916 23.008 185.476 22.736C185.036 22.464 184.696 22.08 184.456 21.584C184.216 21.08 184.096 20.492 184.096 19.82C184.096 19.14 184.216 18.552 184.456 18.056C184.696 17.56 185.036 17.176 185.476 16.904C185.916 16.632 186.428 16.496 187.012 16.496C187.596 16.496 188.104 16.632 188.536 16.904C188.976 17.176 189.316 17.56 189.556 18.056C189.796 18.552 189.916 19.14 189.916 19.82C189.916 20.492 189.796 21.08 189.556 21.584C189.316 22.08 188.976 22.464 188.536 22.736C188.104 23.008 187.596 23.144 187.012 23.144ZM187.012 22.184C187.596 22.184 188.048 21.976 188.368 21.56C188.696 21.136 188.86 20.556 188.86 19.82C188.86 19.084 188.696 18.508 188.368 18.092C188.048 17.668 187.596 17.456 187.012 17.456C186.428 17.456 185.972 17.668 185.644 18.092C185.316 18.508 185.152 19.084 185.152 19.82C185.152 20.556 185.316 21.136 185.644 21.56C185.972 21.976 186.428 22.184 187.012 22.184ZM191.05 23V16.64H191.938L191.986 18.248L191.89 18.212C191.97 17.668 192.142 17.272 192.406 17.024C192.678 16.768 193.038 16.64 193.486 16.64H194.11V17.6H193.498C193.178 17.6 192.91 17.66 192.694 17.78C192.486 17.892 192.326 18.064 192.214 18.296C192.11 18.52 192.058 18.808 192.058 19.16V23H191.05ZM197.36 23.144C196.76 23.144 196.24 23.008 195.8 22.736C195.368 22.464 195.032 22.08 194.792 21.584C194.56 21.08 194.444 20.492 194.444 19.82C194.444 19.148 194.56 18.564 194.792 18.068C195.032 17.572 195.364 17.188 195.788 16.916C196.22 16.636 196.728 16.496 197.312 16.496C197.864 16.496 198.352 16.628 198.776 16.892C199.2 17.148 199.528 17.524 199.76 18.02C200 18.516 200.12 19.12 200.12 19.832V20.132H195.5C195.54 20.812 195.72 21.324 196.04 21.668C196.368 22.012 196.808 22.184 197.36 22.184C197.776 22.184 198.116 22.088 198.38 21.896C198.652 21.696 198.84 21.436 198.944 21.116L200.024 21.2C199.856 21.768 199.536 22.236 199.064 22.604C198.6 22.964 198.032 23.144 197.36 23.144ZM195.5 19.244H199.016C198.968 18.628 198.788 18.176 198.476 17.888C198.172 17.6 197.784 17.456 197.312 17.456C196.824 17.456 196.42 17.608 196.1 17.912C195.788 18.208 195.588 18.652 195.5 19.244ZM205.839 23.144C205.183 23.144 204.659 22.992 204.267 22.688C203.883 22.384 203.691 21.96 203.691 21.416C203.691 20.872 203.851 20.444 204.171 20.132C204.491 19.82 204.999 19.6 205.695 19.472L207.951 19.052C207.951 18.516 207.823 18.116 207.567 17.852C207.319 17.588 206.943 17.456 206.439 17.456C205.999 17.456 205.651 17.556 205.395 17.756C205.139 17.948 204.963 18.228 204.867 18.596L203.799 18.512C203.919 17.912 204.207 17.428 204.663 17.06C205.127 16.684 205.719 16.496 206.439 16.496C207.255 16.496 207.879 16.728 208.311 17.192C208.743 17.648 208.959 18.28 208.959 19.088V21.716C208.959 21.86 208.983 21.964 209.031 22.028C209.087 22.084 209.175 22.112 209.295 22.112H209.547V23C209.515 23.008 209.463 23.012 209.391 23.012C209.319 23.02 209.243 23.024 209.163 23.024C208.875 23.024 208.639 22.98 208.455 22.892C208.279 22.796 208.151 22.652 208.071 22.46C207.991 22.26 207.951 22 207.951 21.68L208.071 21.704C208.015 21.976 207.879 22.224 207.663 22.448C207.447 22.664 207.179 22.836 206.859 22.964C206.539 23.084 206.199 23.144 205.839 23.144ZM205.935 22.256C206.359 22.256 206.719 22.176 207.015 22.016C207.319 21.848 207.551 21.624 207.711 21.344C207.871 21.056 207.951 20.736 207.951 20.384V19.928L205.887 20.312C205.455 20.392 205.155 20.516 204.987 20.684C204.827 20.844 204.747 21.056 204.747 21.32C204.747 21.616 204.851 21.848 205.059 22.016C205.275 22.176 205.567 22.256 205.935 22.256ZM210.445 23V16.64H211.369L211.405 18.26L211.285 18.152C211.365 17.776 211.505 17.468 211.705 17.228C211.905 16.98 212.145 16.796 212.425 16.676C212.713 16.556 213.021 16.496 213.349 16.496C213.837 16.496 214.237 16.604 214.549 16.82C214.869 17.036 215.105 17.328 215.257 17.696C215.417 18.056 215.497 18.46 215.497 18.908V23H214.489V19.196C214.489 18.804 214.441 18.476 214.345 18.212C214.257 17.94 214.113 17.736 213.913 17.6C213.713 17.456 213.453 17.384 213.133 17.384C212.645 17.384 212.241 17.54 211.921 17.852C211.609 18.156 211.453 18.604 211.453 19.196V23H210.445ZM219.293 23.144C218.741 23.144 218.261 23.008 217.853 22.736C217.453 22.464 217.145 22.08 216.929 21.584C216.713 21.088 216.605 20.5 216.605 19.82C216.605 19.14 216.713 18.552 216.929 18.056C217.145 17.56 217.453 17.176 217.853 16.904C218.261 16.632 218.741 16.496 219.293 16.496C219.717 16.496 220.105 16.588 220.457 16.772C220.809 16.948 221.073 17.2 221.249 17.528V14.48H222.257V23H221.345L221.309 22.04C221.133 22.384 220.865 22.656 220.505 22.856C220.145 23.048 219.741 23.144 219.293 23.144ZM219.497 22.184C219.873 22.184 220.189 22.088 220.445 21.896C220.709 21.704 220.909 21.432 221.045 21.08C221.181 20.72 221.249 20.3 221.249 19.82C221.249 19.324 221.181 18.9 221.045 18.548C220.909 18.196 220.709 17.928 220.445 17.744C220.189 17.552 219.873 17.456 219.497 17.456C218.937 17.456 218.489 17.668 218.153 18.092C217.825 18.508 217.661 19.084 217.661 19.82C217.661 20.548 217.825 21.124 218.153 21.548C218.489 21.972 218.937 22.184 219.497 22.184ZM226.694 23V16.64H227.582L227.63 18.248L227.534 18.212C227.614 17.668 227.786 17.272 228.05 17.024C228.322 16.768 228.682 16.64 229.13 16.64H229.754V17.6H229.142C228.822 17.6 228.554 17.66 228.338 17.78C228.13 17.892 227.97 18.064 227.858 18.296C227.754 18.52 227.702 18.808 227.702 19.16V23H226.694ZM233.005 23.144C232.405 23.144 231.885 23.008 231.445 22.736C231.013 22.464 230.677 22.08 230.437 21.584C230.205 21.08 230.089 20.492 230.089 19.82C230.089 19.148 230.205 18.564 230.437 18.068C230.677 17.572 231.009 17.188 231.433 16.916C231.865 16.636 232.373 16.496 232.957 16.496C233.509 16.496 233.997 16.628 234.421 16.892C234.845 17.148 235.173 17.524 235.405 18.02C235.645 18.516 235.765 19.12 235.765 19.832V20.132H231.145C231.185 20.812 231.365 21.324 231.685 21.668C232.013 22.012 232.453 22.184 233.005 22.184C233.421 22.184 233.761 22.088 234.025 21.896C234.297 21.696 234.485 21.436 234.589 21.116L235.669 21.2C235.501 21.768 235.181 22.236 234.709 22.604C234.245 22.964 233.677 23.144 233.005 23.144ZM231.145 19.244H234.661C234.613 18.628 234.433 18.176 234.121 17.888C233.817 17.6 233.429 17.456 232.957 17.456C232.469 17.456 232.065 17.608 231.745 17.912C231.433 18.208 231.233 18.652 231.145 19.244ZM239.374 23.144C238.782 23.144 238.266 23.008 237.826 22.736C237.394 22.464 237.058 22.08 236.818 21.584C236.578 21.08 236.458 20.492 236.458 19.82C236.458 19.148 236.578 18.564 236.818 18.068C237.058 17.572 237.394 17.188 237.826 16.916C238.266 16.636 238.782 16.496 239.374 16.496C239.862 16.496 240.294 16.584 240.67 16.76C241.054 16.928 241.366 17.176 241.606 17.504C241.846 17.832 242.002 18.232 242.074 18.704L241.018 18.776C240.946 18.352 240.762 18.028 240.466 17.804C240.17 17.572 239.806 17.456 239.374 17.456C238.79 17.456 238.334 17.668 238.006 18.092C237.678 18.508 237.514 19.084 237.514 19.82C237.514 20.556 237.678 21.136 238.006 21.56C238.334 21.976 238.79 22.184 239.374 22.184C239.806 22.184 240.17 22.064 240.466 21.824C240.762 21.584 240.946 21.224 241.018 20.744L242.074 20.816C242.002 21.288 241.846 21.7 241.606 22.052C241.366 22.396 241.054 22.664 240.67 22.856C240.294 23.048 239.862 23.144 239.374 23.144ZM245.568 23.144C244.968 23.144 244.448 23.008 244.008 22.736C243.576 22.464 243.24 22.08 243 21.584C242.768 21.08 242.652 20.492 242.652 19.82C242.652 19.148 242.768 18.564 243 18.068C243.24 17.572 243.572 17.188 243.996 16.916C244.428 16.636 244.936 16.496 245.52 16.496C246.072 16.496 246.56 16.628 246.984 16.892C247.408 17.148 247.736 17.524 247.968 18.02C248.208 18.516 248.328 19.12 248.328 19.832V20.132H243.708C243.748 20.812 243.928 21.324 244.248 21.668C244.576 22.012 245.016 22.184 245.568 22.184C245.984 22.184 246.324 22.088 246.588 21.896C246.86 21.696 247.048 21.436 247.152 21.116L248.232 21.2C248.064 21.768 247.744 22.236 247.272 22.604C246.808 22.964 246.24 23.144 245.568 23.144ZM243.708 19.244H247.224C247.176 18.628 246.996 18.176 246.684 17.888C246.38 17.6 245.992 17.456 245.52 17.456C245.032 17.456 244.628 17.608 244.308 17.912C243.996 18.208 243.796 18.652 243.708 19.244ZM249.453 23V16.64H250.461V23H249.453ZM249.429 15.644V14.468H250.485V15.644H249.429ZM253.645 23L251.329 16.64H252.433L254.281 21.968L256.129 16.64H257.233L254.917 23H253.645ZM260.387 23.144C259.787 23.144 259.267 23.008 258.827 22.736C258.395 22.464 258.059 22.08 257.819 21.584C257.587 21.08 257.471 20.492 257.471 19.82C257.471 19.148 257.587 18.564 257.819 18.068C258.059 17.572 258.391 17.188 258.815 16.916C259.247 16.636 259.755 16.496 260.339 16.496C260.891 16.496 261.379 16.628 261.803 16.892C262.227 17.148 262.555 17.524 262.787 18.02C263.027 18.516 263.147 19.12 263.147 19.832V20.132H258.527C258.567 20.812 258.747 21.324 259.067 21.668C259.395 22.012 259.835 22.184 260.387 22.184C260.803 22.184 261.143 22.088 261.407 21.896C261.679 21.696 261.867 21.436 261.971 21.116L263.051 21.2C262.883 21.768 262.563 22.236 262.091 22.604C261.627 22.964 261.059 23.144 260.387 23.144ZM258.527 19.244H262.043C261.995 18.628 261.815 18.176 261.503 17.888C261.199 17.6 260.811 17.456 260.339 17.456C259.851 17.456 259.447 17.608 259.127 17.912C258.815 18.208 258.615 18.652 258.527 19.244ZM18.46 40V33.64H19.384L19.42 35.248L19.276 35.2C19.348 34.848 19.472 34.548 19.648 34.3C19.832 34.044 20.056 33.848 20.32 33.712C20.584 33.568 20.876 33.496 21.196 33.496C21.748 33.496 22.196 33.648 22.54 33.952C22.892 34.256 23.112 34.68 23.2 35.224L23.008 35.212C23.072 34.844 23.188 34.536 23.356 34.288C23.532 34.032 23.756 33.836 24.028 33.7C24.3 33.564 24.612 33.496 24.964 33.496C25.42 33.496 25.804 33.592 26.116 33.784C26.428 33.968 26.664 34.24 26.824 34.6C26.984 34.96 27.064 35.396 27.064 35.908V40H26.056V36.124C26.056 35.548 25.944 35.116 25.72 34.828C25.496 34.532 25.164 34.384 24.724 34.384C24.428 34.384 24.168 34.456 23.944 34.6C23.728 34.744 23.56 34.952 23.44 35.224C23.32 35.488 23.26 35.812 23.26 36.196V40H22.252V36.196C22.252 35.628 22.152 35.184 21.952 34.864C21.752 34.544 21.416 34.384 20.944 34.384C20.648 34.384 20.388 34.456 20.164 34.6C19.948 34.744 19.776 34.952 19.648 35.224C19.528 35.496 19.468 35.82 19.468 36.196V40H18.46ZM31.0868 40.144C30.5028 40.144 29.9908 40.008 29.5508 39.736C29.1108 39.464 28.7708 39.08 28.5308 38.584C28.2908 38.08 28.1708 37.492 28.1708 36.82C28.1708 36.14 28.2908 35.552 28.5308 35.056C28.7708 34.56 29.1108 34.176 29.5508 33.904C29.9908 33.632 30.5028 33.496 31.0868 33.496C31.6708 33.496 32.1788 33.632 32.6108 33.904C33.0508 34.176 33.3908 34.56 33.6308 35.056C33.8708 35.552 33.9908 36.14 33.9908 36.82C33.9908 37.492 33.8708 38.08 33.6308 38.584C33.3908 39.08 33.0508 39.464 32.6108 39.736C32.1788 40.008 31.6708 40.144 31.0868 40.144ZM31.0868 39.184C31.6708 39.184 32.1228 38.976 32.4428 38.56C32.7708 38.136 32.9348 37.556 32.9348 36.82C32.9348 36.084 32.7708 35.508 32.4428 35.092C32.1228 34.668 31.6708 34.456 31.0868 34.456C30.5028 34.456 30.0468 34.668 29.7188 35.092C29.3908 35.508 29.2268 36.084 29.2268 36.82C29.2268 37.556 29.3908 38.136 29.7188 38.56C30.0468 38.976 30.5028 39.184 31.0868 39.184ZM35.1245 40V33.64H36.0485L36.0845 35.26L35.9645 35.152C36.0445 34.776 36.1845 34.468 36.3845 34.228C36.5845 33.98 36.8245 33.796 37.1045 33.676C37.3925 33.556 37.7005 33.496 38.0285 33.496C38.5165 33.496 38.9165 33.604 39.2285 33.82C39.5485 34.036 39.7845 34.328 39.9365 34.696C40.0965 35.056 40.1765 35.46 40.1765 35.908V40H39.1685V36.196C39.1685 35.804 39.1205 35.476 39.0245 35.212C38.9365 34.94 38.7925 34.736 38.5925 34.6C38.3925 34.456 38.1325 34.384 37.8125 34.384C37.3245 34.384 36.9205 34.54 36.6005 34.852C36.2885 35.156 36.1325 35.604 36.1325 36.196V40H35.1245ZM44.2006 40.144C43.6006 40.144 43.0806 40.008 42.6406 39.736C42.2086 39.464 41.8726 39.08 41.6326 38.584C41.4006 38.08 41.2846 37.492 41.2846 36.82C41.2846 36.148 41.4006 35.564 41.6326 35.068C41.8726 34.572 42.2046 34.188 42.6286 33.916C43.0606 33.636 43.5686 33.496 44.1526 33.496C44.7046 33.496 45.1926 33.628 45.6166 33.892C46.0406 34.148 46.3686 34.524 46.6006 35.02C46.8406 35.516 46.9606 36.12 46.9606 36.832V37.132H42.3406C42.3806 37.812 42.5606 38.324 42.8806 38.668C43.2086 39.012 43.6486 39.184 44.2006 39.184C44.6166 39.184 44.9566 39.088 45.2206 38.896C45.4926 38.696 45.6806 38.436 45.7846 38.116L46.8646 38.2C46.6966 38.768 46.3766 39.236 45.9046 39.604C45.4406 39.964 44.8726 40.144 44.2006 40.144ZM42.3406 36.244H45.8566C45.8086 35.628 45.6286 35.176 45.3166 34.888C45.0126 34.6 44.6246 34.456 44.1526 34.456C43.6646 34.456 43.2606 34.608 42.9406 34.912C42.6286 35.208 42.4286 35.652 42.3406 36.244ZM48.1744 41.8V40.912H48.9064C49.1304 40.912 49.2944 40.876 49.3984 40.804C49.5104 40.74 49.5944 40.632 49.6504 40.48L49.8784 39.88H49.5304L47.2024 33.64H48.3064L50.2024 38.944L52.0144 33.64H53.1184L50.5384 40.804C50.4184 41.148 50.2384 41.4 49.9984 41.56C49.7584 41.72 49.4264 41.8 49.0024 41.8H48.1744ZM59.3478 40.144C58.7638 40.144 58.2518 40.008 57.8118 39.736C57.3718 39.464 57.0318 39.08 56.7918 38.584C56.5518 38.08 56.4318 37.492 56.4318 36.82C56.4318 36.14 56.5518 35.552 56.7918 35.056C57.0318 34.56 57.3718 34.176 57.8118 33.904C58.2518 33.632 58.7638 33.496 59.3478 33.496C59.9318 33.496 60.4398 33.632 60.8718 33.904C61.3118 34.176 61.6518 34.56 61.8918 35.056C62.1318 35.552 62.2518 36.14 62.2518 36.82C62.2518 37.492 62.1318 38.08 61.8918 38.584C61.6518 39.08 61.3118 39.464 60.8718 39.736C60.4398 40.008 59.9318 40.144 59.3478 40.144ZM59.3478 39.184C59.9318 39.184 60.3838 38.976 60.7038 38.56C61.0318 38.136 61.1958 37.556 61.1958 36.82C61.1958 36.084 61.0318 35.508 60.7038 35.092C60.3838 34.668 59.9318 34.456 59.3478 34.456C58.7638 34.456 58.3078 34.668 57.9798 35.092C57.6518 35.508 57.4878 36.084 57.4878 36.82C57.4878 37.556 57.6518 38.136 57.9798 38.56C58.3078 38.976 58.7638 39.184 59.3478 39.184ZM63.3855 40V33.64H64.3095L64.3455 35.26L64.2255 35.152C64.3055 34.776 64.4455 34.468 64.6455 34.228C64.8455 33.98 65.0855 33.796 65.3655 33.676C65.6535 33.556 65.9615 33.496 66.2895 33.496C66.7775 33.496 67.1775 33.604 67.4895 33.82C67.8095 34.036 68.0455 34.328 68.1975 34.696C68.3575 35.056 68.4375 35.46 68.4375 35.908V40H67.4295V36.196C67.4295 35.804 67.3815 35.476 67.2855 35.212C67.1975 34.94 67.0535 34.736 66.8535 34.6C66.6535 34.456 66.3935 34.384 66.0735 34.384C65.5855 34.384 65.1815 34.54 64.8615 34.852C64.5495 35.156 64.3935 35.604 64.3935 36.196V40H63.3855ZM73.1541 41.8V40.912H73.8861C74.1101 40.912 74.2741 40.876 74.3781 40.804C74.4901 40.74 74.5741 40.632 74.6301 40.48L74.8581 39.88H74.5101L72.1821 33.64H73.2861L75.1821 38.944L76.9941 33.64H78.0981L75.5181 40.804C75.3981 41.148 75.2181 41.4 74.9781 41.56C74.7381 41.72 74.4061 41.8 73.9821 41.8H73.1541ZM81.251 40.144C80.667 40.144 80.155 40.008 79.715 39.736C79.275 39.464 78.935 39.08 78.695 38.584C78.455 38.08 78.335 37.492 78.335 36.82C78.335 36.14 78.455 35.552 78.695 35.056C78.935 34.56 79.275 34.176 79.715 33.904C80.155 33.632 80.667 33.496 81.251 33.496C81.835 33.496 82.343 33.632 82.775 33.904C83.215 34.176 83.555 34.56 83.795 35.056C84.035 35.552 84.155 36.14 84.155 36.82C84.155 37.492 84.035 38.08 83.795 38.584C83.555 39.08 83.215 39.464 82.775 39.736C82.343 40.008 81.835 40.144 81.251 40.144ZM81.251 39.184C81.835 39.184 82.287 38.976 82.607 38.56C82.935 38.136 83.099 37.556 83.099 36.82C83.099 36.084 82.935 35.508 82.607 35.092C82.287 34.668 81.835 34.456 81.251 34.456C80.667 34.456 80.211 34.668 79.883 35.092C79.555 35.508 79.391 36.084 79.391 36.82C79.391 37.556 79.555 38.136 79.883 38.56C80.211 38.976 80.667 39.184 81.251 39.184ZM87.3768 40.144C86.7448 40.144 86.2368 39.932 85.8528 39.508C85.4768 39.076 85.2888 38.484 85.2888 37.732V33.64H86.2968V37.456C86.2968 38.072 86.4048 38.528 86.6208 38.824C86.8448 39.112 87.1848 39.256 87.6408 39.256C88.1448 39.256 88.5408 39.096 88.8288 38.776C89.1168 38.448 89.2608 38 89.2608 37.432V33.64H90.2688V40H89.3088V38.428L89.4648 38.512C89.3368 39.032 89.0928 39.436 88.7328 39.724C88.3728 40.004 87.9208 40.144 87.3768 40.144ZM91.9511 40V33.64H92.8391L92.8871 35.248L92.7911 35.212C92.8711 34.668 93.0431 34.272 93.3071 34.024C93.5791 33.768 93.9391 33.64 94.3871 33.64H95.0111V34.6H94.3991C94.0791 34.6 93.8111 34.66 93.5951 34.78C93.3871 34.892 93.2271 35.064 93.1151 35.296C93.0111 35.52 92.9591 35.808 92.9591 36.16V40H91.9511ZM101.574 40.192C101.046 40.192 100.578 40.068 100.17 39.82C99.762 39.564 99.442 39.212 99.21 38.764C98.986 38.316 98.87 37.8 98.862 37.216L99.918 37.144C99.926 37.8 100.074 38.304 100.362 38.656C100.65 39.008 101.054 39.184 101.574 39.184C102.118 39.184 102.534 38.996 102.822 38.62C103.118 38.244 103.266 37.712 103.266 37.024V31.48H104.298V37.024C104.298 37.672 104.186 38.236 103.962 38.716C103.738 39.188 103.422 39.552 103.014 39.808C102.614 40.064 102.134 40.192 101.574 40.192ZM108.026 40.144C107.394 40.144 106.886 39.932 106.502 39.508C106.126 39.076 105.938 38.484 105.938 37.732V33.64H106.946V37.456C106.946 38.072 107.054 38.528 107.27 38.824C107.494 39.112 107.834 39.256 108.29 39.256C108.794 39.256 109.19 39.096 109.478 38.776C109.766 38.448 109.91 38 109.91 37.432V33.64H110.918V40H109.958V38.428L110.114 38.512C109.986 39.032 109.742 39.436 109.382 39.724C109.022 40.004 108.57 40.144 108.026 40.144ZM112.6 40V33.64H113.524L113.56 35.248L113.416 35.2C113.488 34.848 113.612 34.548 113.788 34.3C113.972 34.044 114.196 33.848 114.46 33.712C114.724 33.568 115.016 33.496 115.336 33.496C115.888 33.496 116.336 33.648 116.68 33.952C117.032 34.256 117.252 34.68 117.34 35.224L117.148 35.212C117.212 34.844 117.328 34.536 117.496 34.288C117.672 34.032 117.896 33.836 118.168 33.7C118.44 33.564 118.752 33.496 119.104 33.496C119.56 33.496 119.944 33.592 120.256 33.784C120.568 33.968 120.804 34.24 120.964 34.6C121.124 34.96 121.204 35.396 121.204 35.908V40H120.196V36.124C120.196 35.548 120.084 35.116 119.86 34.828C119.636 34.532 119.304 34.384 118.864 34.384C118.568 34.384 118.308 34.456 118.084 34.6C117.868 34.744 117.7 34.952 117.58 35.224C117.46 35.488 117.4 35.812 117.4 36.196V40H116.392V36.196C116.392 35.628 116.292 35.184 116.092 34.864C115.892 34.544 115.556 34.384 115.084 34.384C114.788 34.384 114.528 34.456 114.304 34.6C114.088 34.744 113.916 34.952 113.788 35.224C113.668 35.496 113.608 35.82 113.608 36.196V40H112.6ZM122.65 41.8V33.64H123.586L123.61 35.008L123.466 34.936C123.626 34.464 123.89 34.108 124.258 33.868C124.634 33.62 125.066 33.496 125.554 33.496C126.186 33.496 126.702 33.652 127.102 33.964C127.51 34.276 127.81 34.684 128.002 35.188C128.202 35.692 128.302 36.236 128.302 36.82C128.302 37.404 128.202 37.948 128.002 38.452C127.81 38.956 127.51 39.364 127.102 39.676C126.702 39.988 126.186 40.144 125.554 40.144C125.226 40.144 124.918 40.088 124.63 39.976C124.35 39.864 124.11 39.708 123.91 39.508C123.718 39.308 123.586 39.072 123.514 38.8L123.658 38.632V41.8H122.65ZM125.458 39.184C126.01 39.184 126.446 38.976 126.766 38.56C127.086 38.144 127.246 37.564 127.246 36.82C127.246 36.076 127.086 35.496 126.766 35.08C126.446 34.664 126.01 34.456 125.458 34.456C125.09 34.456 124.77 34.544 124.498 34.72C124.234 34.896 124.026 35.16 123.874 35.512C123.73 35.864 123.658 36.3 123.658 36.82C123.658 37.34 123.73 37.776 123.874 38.128C124.018 38.48 124.226 38.744 124.498 38.92C124.77 39.096 125.09 39.184 125.458 39.184ZM131.309 40.144C130.653 40.144 130.129 39.992 129.737 39.688C129.353 39.384 129.161 38.96 129.161 38.416C129.161 37.872 129.321 37.444 129.641 37.132C129.961 36.82 130.469 36.6 131.165 36.472L133.421 36.052C133.421 35.516 133.293 35.116 133.037 34.852C132.789 34.588 132.413 34.456 131.909 34.456C131.469 34.456 131.121 34.556 130.865 34.756C130.609 34.948 130.433 35.228 130.337 35.596L129.269 35.512C129.389 34.912 129.677 34.428 130.133 34.06C130.597 33.684 131.189 33.496 131.909 33.496C132.725 33.496 133.349 33.728 133.781 34.192C134.213 34.648 134.429 35.28 134.429 36.088V38.716C134.429 38.86 134.453 38.964 134.501 39.028C134.557 39.084 134.645 39.112 134.765 39.112H135.017V40C134.985 40.008 134.933 40.012 134.861 40.012C134.789 40.02 134.713 40.024 134.633 40.024C134.345 40.024 134.109 39.98 133.925 39.892C133.749 39.796 133.621 39.652 133.541 39.46C133.461 39.26 133.421 39 133.421 38.68L133.541 38.704C133.485 38.976 133.349 39.224 133.133 39.448C132.917 39.664 132.649 39.836 132.329 39.964C132.009 40.084 131.669 40.144 131.309 40.144ZM131.405 39.256C131.829 39.256 132.189 39.176 132.485 39.016C132.789 38.848 133.021 38.624 133.181 38.344C133.341 38.056 133.421 37.736 133.421 37.384V36.928L131.357 37.312C130.925 37.392 130.625 37.516 130.457 37.684C130.297 37.844 130.217 38.056 130.217 38.32C130.217 38.616 130.321 38.848 130.529 39.016C130.745 39.176 131.037 39.256 131.405 39.256ZM139.994 40L138.026 33.64H139.13L140.618 38.944L142.13 33.64H143.21L144.722 38.944L146.222 33.64H147.326L145.358 40H144.086L142.67 35.164L141.254 40H139.994ZM149.761 40.144C149.105 40.144 148.581 39.992 148.189 39.688C147.805 39.384 147.613 38.96 147.613 38.416C147.613 37.872 147.773 37.444 148.093 37.132C148.413 36.82 148.921 36.6 149.617 36.472L151.873 36.052C151.873 35.516 151.745 35.116 151.489 34.852C151.241 34.588 150.865 34.456 150.361 34.456C149.921 34.456 149.573 34.556 149.317 34.756C149.061 34.948 148.885 35.228 148.789 35.596L147.721 35.512C147.841 34.912 148.129 34.428 148.585 34.06C149.049 33.684 149.641 33.496 150.361 33.496C151.177 33.496 151.801 33.728 152.233 34.192C152.665 34.648 152.881 35.28 152.881 36.088V38.716C152.881 38.86 152.905 38.964 152.953 39.028C153.009 39.084 153.097 39.112 153.217 39.112H153.469V40C153.437 40.008 153.385 40.012 153.313 40.012C153.241 40.02 153.165 40.024 153.085 40.024C152.797 40.024 152.561 39.98 152.377 39.892C152.201 39.796 152.073 39.652 151.993 39.46C151.913 39.26 151.873 39 151.873 38.68L151.993 38.704C151.937 38.976 151.801 39.224 151.585 39.448C151.369 39.664 151.101 39.836 150.781 39.964C150.461 40.084 150.121 40.144 149.761 40.144ZM149.857 39.256C150.281 39.256 150.641 39.176 150.937 39.016C151.241 38.848 151.473 38.624 151.633 38.344C151.793 38.056 151.873 37.736 151.873 37.384V36.928L149.809 37.312C149.377 37.392 149.077 37.516 148.909 37.684C148.749 37.844 148.669 38.056 148.669 38.32C148.669 38.616 148.773 38.848 148.981 39.016C149.197 39.176 149.489 39.256 149.857 39.256ZM155.545 40C155.177 40 154.877 39.904 154.645 39.712C154.413 39.52 154.297 39.216 154.297 38.8V31.48H155.305V38.716C155.305 38.844 155.337 38.944 155.401 39.016C155.473 39.08 155.573 39.112 155.701 39.112H156.253V40H155.545ZM158.387 40C158.019 40 157.719 39.904 157.487 39.712C157.255 39.52 157.139 39.216 157.139 38.8V31.48H158.147V38.716C158.147 38.844 158.179 38.944 158.243 39.016C158.315 39.08 158.415 39.112 158.543 39.112H159.095V40H158.387ZM162.512 40.144C161.912 40.144 161.392 40.008 160.952 39.736C160.52 39.464 160.184 39.08 159.944 38.584C159.712 38.08 159.596 37.492 159.596 36.82C159.596 36.148 159.712 35.564 159.944 35.068C160.184 34.572 160.516 34.188 160.94 33.916C161.372 33.636 161.88 33.496 162.464 33.496C163.016 33.496 163.504 33.628 163.928 33.892C164.352 34.148 164.68 34.524 164.912 35.02C165.152 35.516 165.272 36.12 165.272 36.832V37.132H160.652C160.692 37.812 160.872 38.324 161.192 38.668C161.52 39.012 161.96 39.184 162.512 39.184C162.928 39.184 163.268 39.088 163.532 38.896C163.804 38.696 163.992 38.436 164.096 38.116L165.176 38.2C165.008 38.768 164.688 39.236 164.216 39.604C163.752 39.964 163.184 40.144 162.512 40.144ZM160.652 36.244H164.168C164.12 35.628 163.94 35.176 163.628 34.888C163.324 34.6 162.936 34.456 162.464 34.456C161.976 34.456 161.572 34.608 161.252 34.912C160.94 35.208 160.74 35.652 160.652 36.244ZM168.479 40C167.903 40 167.475 39.868 167.195 39.604C166.923 39.34 166.787 38.928 166.787 38.368V32.152H167.795V38.344C167.795 38.632 167.859 38.832 167.987 38.944C168.115 39.056 168.311 39.112 168.575 39.112H169.487V40H168.479ZM165.851 34.528V33.64H169.487V34.528H165.851ZM170.483 40V38.644H171.839V40H170.483Z" fill="#6A59CE"/>
</svg>
