<svg width="67" height="54" viewBox="0 0 67 54" fill="none" xmlns="http://www.w3.org/2000/svg">
<path d="M66.6667 20V43.3333C66.6667 45.9855 65.6131 48.529 63.7377 50.4044C61.8624 52.2798 59.3188 53.3333 56.6667 53.3333H10C7.34784 53.3333 4.8043 52.2798 2.92893 50.4044C1.05357 48.529 0 45.9855 0 43.3333V20H66.6667ZM53.3333 33.3333H43.3333C42.4493 33.3333 41.6014 33.6845 40.9763 34.3096C40.3512 34.9348 40 35.7826 40 36.6667C40 37.5507 40.3512 38.3986 40.9763 39.0237C41.6014 39.6488 42.4493 40 43.3333 40H53.3333C54.2174 40 55.0652 39.6488 55.6904 39.0237C56.3155 38.3986 56.6667 37.5507 56.6667 36.6667C56.6667 35.7826 56.3155 34.9348 55.6904 34.3096C55.0652 33.6845 54.2174 33.3333 53.3333 33.3333ZM56.6667 0C59.3188 0 61.8624 1.05357 63.7377 2.92893C65.6131 4.8043 66.6667 7.34784 66.6667 10V13.3333H0V10C0 7.34784 1.05357 4.8043 2.92893 2.92893C4.8043 1.05357 7.34784 0 10 0H56.6667Z" fill="#EE9C2E"/>
</svg>
