<svg width="60" height="59" viewBox="0 0 60 59" fill="none" xmlns="http://www.w3.org/2000/svg">
<path fill-rule="evenodd" clip-rule="evenodd" d="M53.3333 8.33415V11.7042C55.1014 11.7042 56.7971 12.4065 58.0474 13.6568C59.2976 14.907 60 16.6027 60 18.3708V51.7042C60 53.4723 59.2976 55.168 58.0474 56.4182C56.7971 57.6684 55.1014 58.3708 53.3333 58.3708H6.66667C4.89856 58.3708 3.20286 57.6684 1.95262 56.4182C0.702379 55.168 0 53.4723 0 51.7042V18.3708C0 14.8875 2.78333 11.7275 6.04333 10.7975L42.71 0.320822C43.9503 -0.0336616 45.256 -0.0953637 46.5242 0.140574C47.7924 0.376512 48.9885 0.903648 50.0183 1.68047C51.0482 2.45729 51.8836 3.46259 52.4589 4.61719C53.0341 5.7718 53.3335 7.04419 53.3333 8.33415ZM41.6667 30.0375C40.3406 30.0375 39.0688 30.5643 38.1311 31.502C37.1935 32.4396 36.6667 33.7114 36.6667 35.0375C36.6667 36.3636 37.1935 37.6353 38.1311 38.573C39.0688 39.5107 40.3406 40.0375 41.6667 40.0375C42.9927 40.0375 44.2645 39.5107 45.2022 38.573C46.1399 37.6353 46.6667 36.3636 46.6667 35.0375C46.6667 33.7114 46.1399 32.4396 45.2022 31.502C44.2645 30.5643 42.9927 30.0375 41.6667 30.0375ZM46.6667 8.33415C46.6668 8.09886 46.6172 7.8662 46.521 7.65147C46.4248 7.43675 46.2842 7.24482 46.1085 7.08833C45.9328 6.93183 45.726 6.81432 45.5016 6.74351C45.2772 6.67269 45.0404 6.65019 44.8067 6.67749L44.54 6.73082L27.1333 11.7042H46.6667V8.33415Z" fill="#6A59CE"/>
</svg>
