<svg width="15" height="15" viewBox="0 0 15 15" fill="none" xmlns="http://www.w3.org/2000/svg">
<path d="M6.63333 14.0958C6.63333 14.3157 6.72069 14.5266 6.87619 14.6821C7.03169 14.8376 7.24259 14.925 7.4625 14.925C7.68241 14.925 7.89331 14.8376 8.04881 14.6821C8.20431 14.5266 8.29167 14.3157 8.29167 14.0958V8.29167H14.0958C14.3157 8.29167 14.5266 8.20431 14.6821 8.04881C14.8376 7.89331 14.925 7.68241 14.925 7.4625C14.925 7.24259 14.8376 7.03169 14.6821 6.87619C14.5266 6.72069 14.3157 6.63333 14.0958 6.63333H8.29167V0.829167C8.29167 0.609258 8.20431 0.398356 8.04881 0.242857C7.89331 0.0873583 7.68241 0 7.4625 0C7.24259 0 7.03169 0.0873583 6.87619 0.242857C6.72069 0.398356 6.63333 0.609258 6.63333 0.829167V6.63333H0.829167C0.609258 6.63333 0.398356 6.72069 0.242857 6.87619C0.0873583 7.03169 0 7.24259 0 7.4625C0 7.68241 0.0873583 7.89331 0.242857 8.04881C0.398356 8.20431 0.609258 8.29167 0.829167 8.29167H6.63333V14.0958Z" fill="#777777"/>
</svg>
