<svg width="32" height="32" viewBox="0 0 32 32" fill="none" xmlns="http://www.w3.org/2000/svg">
<g clip-path="url(#clip0_17213_3526)">
<path d="M18.6667 24C19.0065 24.0004 19.3334 24.1305 19.5805 24.3638C19.8276 24.5971 19.9763 24.9159 19.9962 25.2552C20.0161 25.5944 19.9058 25.9285 19.6876 26.1891C19.4695 26.4497 19.1601 26.6172 18.8227 26.6573L18.6667 26.6667H5.33333C4.99349 26.6663 4.66662 26.5362 4.41951 26.3029C4.17239 26.0696 4.02369 25.7507 4.00377 25.4115C3.98385 25.0722 4.09423 24.7382 4.31235 24.4776C4.53047 24.217 4.83987 24.0495 5.17733 24.0093L5.33333 24H18.6667ZM26.6667 17.3333C27.0203 17.3333 27.3594 17.4738 27.6095 17.7239C27.8595 17.9739 28 18.313 28 18.6667C28 19.0203 27.8595 19.3594 27.6095 19.6095C27.3594 19.8595 27.0203 20 26.6667 20H5.33333C4.97971 20 4.64057 19.8595 4.39052 19.6095C4.14048 19.3594 4 19.0203 4 18.6667C4 18.313 4.14048 17.9739 4.39052 17.7239C4.64057 17.4738 4.97971 17.3333 5.33333 17.3333H26.6667ZM18.6667 10.6667C19.0065 10.667 19.3334 10.7972 19.5805 11.0305C19.8276 11.2638 19.9763 11.5826 19.9962 11.9219C20.0161 12.2611 19.9058 12.5952 19.6876 12.8558C19.4695 13.1164 19.1601 13.2839 18.8227 13.324L18.6667 13.3333H5.33333C4.99349 13.333 4.66662 13.2028 4.41951 12.9695C4.17239 12.7362 4.02369 12.4174 4.00377 12.0781C3.98385 11.7389 4.09423 11.4048 4.31235 11.1442C4.53047 10.8836 4.83987 10.7161 5.17733 10.676L5.33333 10.6667H18.6667ZM26.6667 4C27.0065 4.00038 27.3334 4.13051 27.5805 4.3638C27.8276 4.59709 27.9763 4.91594 27.9962 5.25519C28.0161 5.59445 27.9058 5.92851 27.6876 6.18911C27.4695 6.44971 27.1601 6.6172 26.8227 6.65733L26.6667 6.66667H5.33333C4.99349 6.66629 4.66662 6.53616 4.41951 6.30287C4.17239 6.06958 4.02369 5.75073 4.00377 5.41147C3.98385 5.07222 4.09423 4.73816 4.31235 4.47756C4.53047 4.21695 4.83987 4.04947 5.17733 4.00933L5.33333 4H26.6667Z" fill="#DFDFDF"/>
</g>
<defs>
<clipPath id="clip0_17213_3526">
<rect width="32" height="32" fill="white"/>
</clipPath>
</defs>
</svg>
