<svg width="80" height="35" viewBox="0 0 80 35" fill="none" xmlns="http://www.w3.org/2000/svg">
<path d="M9.77415 30.3636V6.72727H11.2884V30.3636H9.77415ZM14.1413 14.2891C14.0552 13.4827 13.692 12.8549 13.0518 12.4055C12.4179 11.9562 11.593 11.7315 10.5774 11.7315C9.8634 11.7315 9.25095 11.8393 8.74006 12.0547C8.22917 12.2701 7.83831 12.5625 7.56747 12.9318C7.29664 13.3011 7.15814 13.7228 7.15199 14.1967C7.15199 14.5907 7.24124 14.9323 7.41974 15.2216C7.6044 15.5109 7.85369 15.7571 8.16761 15.9602C8.48153 16.1572 8.82931 16.3234 9.21094 16.4588C9.59257 16.5942 9.97727 16.7081 10.3651 16.8004L12.1378 17.2436C12.8518 17.4098 13.5381 17.6345 14.1967 17.9176C14.8615 18.2008 15.4555 18.5578 15.9787 18.9886C16.508 19.4195 16.9266 19.9396 17.2344 20.549C17.5421 21.1584 17.696 21.8724 17.696 22.6911C17.696 23.799 17.4129 24.7746 16.8466 25.6179C16.2803 26.455 15.4616 27.1106 14.3906 27.5845C13.3258 28.0523 12.0362 28.2862 10.522 28.2862C9.0509 28.2862 7.77367 28.0585 6.69034 27.603C5.61316 27.1475 4.76989 26.4827 4.16051 25.6087C3.55729 24.7346 3.23106 23.6697 3.18182 22.4141H6.55185C6.60109 23.0727 6.80421 23.6205 7.16122 24.0575C7.51823 24.4946 7.98295 24.8208 8.5554 25.0362C9.134 25.2517 9.7803 25.3594 10.4943 25.3594C11.2391 25.3594 11.8916 25.2486 12.4517 25.027C13.018 24.7992 13.4612 24.4853 13.7812 24.0852C14.1013 23.679 14.2644 23.205 14.2706 22.6634C14.2644 22.1709 14.1198 21.7647 13.8366 21.4446C13.5535 21.1184 13.1565 20.8475 12.6456 20.6321C12.1409 20.4105 11.55 20.2135 10.8729 20.0412L8.72159 19.4872C7.1643 19.0871 5.93324 18.4808 5.02841 17.6683C4.12973 16.8497 3.6804 15.7633 3.6804 14.4091C3.6804 13.295 3.98201 12.3194 4.58523 11.4822C5.1946 10.6451 6.02249 9.99574 7.06889 9.53409C8.11529 9.06629 9.30019 8.83239 10.6236 8.83239C11.9654 8.83239 13.1411 9.06629 14.1506 9.53409C15.1662 9.99574 15.9633 10.639 16.5419 11.4638C17.1205 12.2824 17.419 13.2242 17.4375 14.2891H14.1413Z" fill="white"/>
<path d="M28.8137 27V13.924H24.5017V10.816H26.2097C27.031 10.816 27.6937 10.704 28.1977 10.48C28.7203 10.2373 29.0937 9.85467 29.3177 9.332C29.5603 8.79067 29.6817 8.05333 29.6817 7.12H33.0697V27H28.8137ZM36.4918 27V22.716H41.0558V27H36.4918Z" fill="white"/>
<path d="M50.7661 27.448C49.0114 27.448 47.4994 27.0373 46.2301 26.216C44.9608 25.376 43.9808 24.1813 43.2901 22.632C42.6181 21.0827 42.2821 19.2347 42.2821 17.088C42.2821 14.9413 42.6274 13.0933 43.3181 11.544C44.0088 9.976 44.9794 8.772 46.2301 7.932C47.4994 7.092 49.0114 6.672 50.7661 6.672C52.5021 6.672 53.9954 7.092 55.2461 7.932C56.5154 8.772 57.4954 9.976 58.1861 11.544C58.8768 13.0933 59.2221 14.9413 59.2221 17.088C59.2221 19.216 58.8768 21.0547 58.1861 22.604C57.5141 24.1533 56.5434 25.348 55.2741 26.188C54.0048 27.028 52.5021 27.448 50.7661 27.448ZM50.7661 23.864C52.0728 23.864 53.0714 23.2947 53.7621 22.156C54.4714 21.0173 54.8261 19.328 54.8261 17.088C54.8261 15.576 54.6674 14.316 54.3501 13.308C54.0514 12.3 53.5941 11.544 52.9781 11.04C52.3808 10.5173 51.6434 10.256 50.7661 10.256C49.8701 10.256 49.1141 10.5173 48.4981 11.04C47.9008 11.544 47.4434 12.3 47.1261 13.308C46.8274 14.316 46.6781 15.576 46.6781 17.088C46.6781 19.328 47.0234 21.0173 47.7141 22.156C48.4234 23.2947 49.4408 23.864 50.7661 23.864ZM69.7842 27.448C68.0296 27.448 66.5176 27.0373 65.2482 26.216C63.9789 25.376 62.9989 24.1813 62.3082 22.632C61.6362 21.0827 61.3002 19.2347 61.3002 17.088C61.3002 14.9413 61.6456 13.0933 62.3362 11.544C63.0269 9.976 63.9976 8.772 65.2482 7.932C66.5176 7.092 68.0296 6.672 69.7842 6.672C71.5202 6.672 73.0136 7.092 74.2642 7.932C75.5336 8.772 76.5136 9.976 77.2042 11.544C77.8949 13.0933 78.2402 14.9413 78.2402 17.088C78.2402 19.216 77.8949 21.0547 77.2042 22.604C76.5322 24.1533 75.5616 25.348 74.2922 26.188C73.0229 27.028 71.5202 27.448 69.7842 27.448ZM69.7842 23.864C71.0909 23.864 72.0896 23.2947 72.7802 22.156C73.4896 21.0173 73.8442 19.328 73.8442 17.088C73.8442 15.576 73.6856 14.316 73.3682 13.308C73.0696 12.3 72.6122 11.544 71.9962 11.04C71.3989 10.5173 70.6616 10.256 69.7842 10.256C68.8882 10.256 68.1322 10.5173 67.5162 11.04C66.9189 11.544 66.4616 12.3 66.1442 13.308C65.8456 14.316 65.6962 15.576 65.6962 17.088C65.6962 19.328 66.0416 21.0173 66.7322 22.156C67.4416 23.2947 68.4589 23.864 69.7842 23.864Z" fill="#777777"/>
<rect y="2.1582" width="16" height="16" fill="#3C3C3C"/>
<rect x="16" y="2.1582" width="16" height="16" fill="#1F1F1F"/>
<rect x="32" y="2.1582" width="16" height="16" fill="#3C3C3C"/>
<rect x="48" y="2.1582" width="16" height="16" fill="#1F1F1F"/>
<rect x="64" y="2.1582" width="16" height="16" fill="#3C3C3C"/>
<rect y="18.1582" width="16" height="16" fill="#3C3C3C"/>
<rect x="16" y="18.1582" width="16" height="16" fill="#1F1F1F"/>
<rect x="32" y="18.1582" width="16" height="16" fill="#3C3C3C"/>
<rect x="48" y="18.1582" width="16" height="16" fill="#1F1F1F"/>
<rect x="64" y="18.1582" width="16" height="16" fill="#3C3C3C"/>
</svg>
