<svg width="6" height="9" viewBox="0 0 6 9" fill="none" xmlns="http://www.w3.org/2000/svg">
<path fill-rule="evenodd" clip-rule="evenodd" d="M4.91752 3.95847C5.04251 4.08349 5.11272 4.25303 5.11272 4.42981C5.11272 4.60658 5.04251 4.77612 4.91752 4.90114L1.14619 8.67247C1.08469 8.73615 1.01113 8.78694 0.929795 8.82188C0.848459 8.85682 0.760979 8.87521 0.67246 8.87597C0.58394 8.87674 0.496154 8.85988 0.414223 8.82636C0.332292 8.79284 0.257857 8.74333 0.195262 8.68074C0.132667 8.61814 0.0831648 8.54371 0.0496442 8.46178C0.0161236 8.37985 -0.000744039 8.29206 2.51714e-05 8.20354C0.000794382 8.11502 0.0191852 8.02754 0.0541246 7.9462C0.0890639 7.86487 0.139852 7.79131 0.203525 7.72981L3.50353 4.42981L0.203525 1.12981C0.0820866 1.00407 0.0148903 0.835671 0.0164093 0.660874C0.0179282 0.486076 0.0880407 0.318867 0.211646 0.195262C0.335252 0.0716566 0.50246 0.00154415 0.677258 2.52018e-05C0.852056 -0.00149374 1.02046 0.0657025 1.14619 0.187141L4.91752 3.95847Z" fill="#DFDFDF"/>
</svg>
