<svg width="16" height="16" viewBox="0 0 16 16" fill="none" xmlns="http://www.w3.org/2000/svg">
<path d="M11.3483 2.02255L10.7119 1.85299C8.91202 1.3734 8.01202 1.13362 7.30302 1.54066C6.59399 1.9477 6.35284 2.84261 5.87054 4.63244L5.18846 7.16363C4.70615 8.95343 4.465 9.84836 4.87435 10.5534C5.2837 11.2584 6.18369 11.4982 7.98368 11.9778L8.62008 12.1474C10.42 12.6269 11.32 12.8667 12.029 12.4597C12.738 12.0526 12.9792 11.1577 13.4615 9.3679L14.1435 6.8367C14.6259 5.04686 14.867 4.15195 14.4577 3.44694C14.0483 2.74192 13.1483 2.50213 11.3483 2.02255Z" stroke="#777777" stroke-width="1.5"/>
<path d="M11.2363 4.95534C11.2363 5.49806 10.7938 5.93802 10.248 5.93802C9.70223 5.93802 9.25977 5.49806 9.25977 4.95534C9.25977 4.41262 9.70223 3.97266 10.248 3.97266C10.7938 3.97266 11.2363 4.41262 11.2363 4.95534Z" stroke="#777777" stroke-width="1.5"/>
<path d="M8.00065 13.964L7.36579 14.1369C5.57001 14.6259 4.67213 14.8704 3.96478 14.4554C3.25743 14.0404 3.01685 13.1279 2.53567 11.303L1.8552 8.72209C1.37403 6.89716 1.13344 5.9847 1.54183 5.26585C1.8951 4.64403 2.66732 4.66667 3.66732 4.66659" stroke="#777777" stroke-width="1.5" stroke-linecap="round"/>
</svg>
