<svg width="17" height="17" viewBox="0 0 17 17" fill="none" xmlns="http://www.w3.org/2000/svg">
<g clip-path="url(#clip0_16749_2820)">
<path d="M4.58981 13.5883C4.63785 13.5086 4.70111 13.4391 4.77598 13.3839C4.85086 13.3287 4.93588 13.2887 5.02619 13.2664C5.11651 13.244 5.21034 13.2397 5.30234 13.2536C5.39433 13.2675 5.48269 13.2994 5.56236 13.3474C6.05372 13.6453 6.58753 13.8667 7.14548 14.0041C7.23761 14.0246 7.3247 14.0634 7.40164 14.118C7.47858 14.1727 7.54382 14.2422 7.59352 14.3225C7.64321 14.4027 7.67637 14.4921 7.69104 14.5853C7.7057 14.6786 7.70159 14.7738 7.67893 14.8655C7.65627 14.9571 7.61552 15.0433 7.55908 15.1189C7.50265 15.1946 7.43166 15.2582 7.35028 15.306C7.26891 15.3539 7.1788 15.385 7.08524 15.3975C6.99168 15.41 6.89657 15.4037 6.80548 15.3789C6.10936 15.2078 5.44326 14.9319 4.82994 14.5608C4.75026 14.5128 4.68081 14.4495 4.62558 14.3746C4.57035 14.2998 4.53042 14.2147 4.50805 14.1244C4.48569 14.0341 4.48133 13.9403 4.49524 13.8483C4.50915 13.7563 4.54175 13.6679 4.58981 13.5883ZM11.433 13.3474C11.5939 13.2504 11.7868 13.2213 11.9692 13.2664C12.1516 13.3116 12.3085 13.4274 12.4056 13.5883C12.5026 13.7492 12.5317 13.942 12.4866 14.1244C12.4414 14.3068 12.3256 14.4638 12.1647 14.5608C11.5512 14.932 10.8848 15.2078 10.1885 15.3789C10.0061 15.4239 9.81325 15.3946 9.65245 15.2974C9.49165 15.2003 9.37604 15.0432 9.33104 14.8608C9.28605 14.6784 9.31536 14.4856 9.41254 14.3248C9.50971 14.164 9.66678 14.0483 9.84919 14.0034C10.4073 13.8663 10.9414 13.6451 11.433 13.3474ZM2.13615 9.33472C2.31837 9.28978 2.51097 9.319 2.67167 9.41595C2.83236 9.5129 2.94802 9.66966 2.99323 9.85181C3.13029 10.41 3.35146 10.944 3.64915 11.4356C3.73809 11.596 3.76139 11.7846 3.71415 11.9617C3.66691 12.1389 3.5528 12.2909 3.39583 12.3856C3.23886 12.4804 3.05126 12.5106 2.87247 12.4699C2.69369 12.4292 2.53766 12.3207 2.43719 12.1673C2.06577 11.5539 1.78968 10.8875 1.61836 10.1911C1.57342 10.0089 1.60263 9.81628 1.69958 9.65558C1.79653 9.49488 1.95329 9.37923 2.13544 9.33402M14 9.8511C14.0451 9.66859 14.1609 9.51147 14.3218 9.4143C14.4827 9.31713 14.6757 9.28787 14.8582 9.33295C15.0407 9.37804 15.1978 9.49378 15.295 9.65472C15.3921 9.81565 15.4214 10.0086 15.3763 10.1911C15.2913 10.5344 15.1794 10.8737 15.0406 11.209C14.9013 11.5447 14.7405 11.8639 14.5582 12.1666C14.4611 12.3275 14.304 12.4433 14.1215 12.4884C13.9391 12.5335 13.7462 12.5042 13.5853 12.4071C13.4244 12.31 13.3087 12.1529 13.2636 11.9705C13.2185 11.788 13.2477 11.5951 13.3448 11.4342C13.6424 10.9428 13.8629 10.409 14 9.8511ZM5.99373 5.99493C6.26998 5.71868 6.71977 5.71868 6.99602 5.99493L8.49769 7.49731L10.0001 5.99564C10.0654 5.92799 10.1436 5.87403 10.23 5.8369C10.3164 5.79978 10.4094 5.78024 10.5034 5.77942C10.5975 5.7786 10.6907 5.79653 10.7778 5.83214C10.8648 5.86776 10.9439 5.92035 11.0104 5.98686C11.0769 6.05337 11.1295 6.13246 11.1651 6.21951C11.2008 6.30656 11.2187 6.39983 11.2179 6.49388C11.217 6.58794 11.1975 6.68088 11.1604 6.7673C11.1233 6.85372 11.0693 6.93188 11.0016 6.99722L9.49998 8.4996L11.0016 10.0027C11.0693 10.068 11.1233 10.1462 11.1604 10.2326C11.1975 10.319 11.217 10.412 11.2179 10.506C11.2187 10.6001 11.2008 10.6933 11.1651 10.7804C11.1295 10.8675 11.0769 10.9465 11.0104 11.013C10.9439 11.0796 10.8648 11.1321 10.7778 11.1678C10.6907 11.2034 10.5975 11.2213 10.5034 11.2205C10.4094 11.2197 10.3164 11.2001 10.23 11.163C10.1436 11.1259 10.0654 11.0719 10.0001 11.0043L8.4984 9.5026L6.99531 11.0043C6.86079 11.1285 6.68338 11.196 6.50027 11.1924C6.31715 11.1888 6.14253 11.1145 6.01298 10.985C5.88343 10.8555 5.80899 10.681 5.80527 10.4979C5.80155 10.3147 5.86883 10.1373 5.99302 10.0027L7.4954 8.4996L5.99302 6.99793C5.92716 6.93215 5.87492 6.85403 5.83927 6.76804C5.80363 6.68205 5.78528 6.58987 5.78528 6.49679C5.78528 6.4037 5.80363 6.31153 5.83927 6.22554C5.87492 6.13955 5.92716 6.06143 5.99302 5.99564M2.43719 4.83256C2.48383 4.7501 2.54654 4.67783 2.62161 4.62004C2.69668 4.56224 2.78257 4.52009 2.87422 4.49608C2.96587 4.47207 3.0614 4.46669 3.15516 4.48026C3.24892 4.49383 3.33901 4.52606 3.42009 4.57506C3.50117 4.62406 3.5716 4.68883 3.62721 4.76553C3.68281 4.84223 3.72247 4.92931 3.74383 5.02161C3.76519 5.11391 3.76781 5.20955 3.75155 5.30289C3.73528 5.39622 3.70046 5.48534 3.64915 5.56497C3.35177 6.05642 3.13084 6.59023 2.99394 7.1481C2.94885 7.33051 2.83315 7.48755 2.67228 7.58465C2.51141 7.68175 2.31856 7.71098 2.13615 7.66589C1.95373 7.6208 1.7967 7.5051 1.6996 7.34423C1.60249 7.18337 1.57327 6.99051 1.61836 6.8081C1.78975 6.11194 2.06584 5.44584 2.43719 4.83256ZM13.5864 4.59172C13.666 4.54366 13.7544 4.51177 13.8464 4.49786C13.9384 4.48395 14.0322 4.4883 14.1225 4.51067C14.2128 4.53303 14.2979 4.57297 14.3727 4.6282C14.4476 4.68343 14.5109 4.75287 14.5589 4.83256C14.93 5.44588 15.2059 6.11198 15.377 6.8081C15.4221 6.99051 15.3929 7.18337 15.2958 7.34423C15.1987 7.5051 15.0416 7.6208 14.8592 7.66589C14.6768 7.71098 14.484 7.68175 14.3231 7.58465C14.1622 7.48755 14.0465 7.33051 14.0014 7.1481C13.8643 6.59019 13.6432 6.05638 13.3455 5.56497C13.2975 5.48531 13.2656 5.39695 13.2517 5.30496C13.2378 5.21296 13.2421 5.11913 13.2645 5.02881C13.2868 4.9385 13.3268 4.85348 13.382 4.7786C13.4372 4.70373 13.5067 4.64047 13.5864 4.59243M9.33281 2.13877C9.37803 1.95662 9.49368 1.79985 9.65438 1.70291C9.81508 1.60596 10.0077 1.57674 10.1899 1.62168C10.886 1.79285 11.5521 2.06871 12.1654 2.43981C12.3204 2.53965 12.4303 2.69596 12.4719 2.87554C12.5134 3.05512 12.4833 3.24383 12.388 3.40159C12.2927 3.55935 12.1396 3.67373 11.9613 3.72044C11.783 3.76715 11.5935 3.74252 11.433 3.65177C10.9416 3.35439 10.4078 3.13346 9.8499 2.99656C9.66759 2.95135 9.51071 2.83559 9.41374 2.67473C9.31677 2.51387 9.28766 2.32108 9.33281 2.13877ZM6.80548 1.62168C6.9848 1.58462 7.17151 1.61844 7.32644 1.71605C7.48136 1.81366 7.59247 1.96748 7.63645 2.14523C7.68043 2.32298 7.65387 2.51086 7.56233 2.66945C7.47079 2.82804 7.3214 2.94502 7.14548 2.99585C6.58757 3.13297 6.05376 3.35414 5.56236 3.65177C5.40192 3.74252 5.21242 3.76715 5.03411 3.72044C4.8558 3.67373 4.70273 3.55935 4.60739 3.40159C4.51205 3.24383 4.48197 3.05512 4.52352 2.87554C4.56508 2.69596 4.675 2.53965 4.82994 2.43981C5.44322 2.06846 6.10932 1.79308 6.80548 1.62168Z" fill="white"/>
</g>
<defs>
<clipPath id="clip0_16749_2820">
<rect width="17" height="17" fill="white"/>
</clipPath>
</defs>
</svg>
