<svg width="14" height="15" viewBox="0 0 14 15" fill="none" xmlns="http://www.w3.org/2000/svg">
<path fill-rule="evenodd" clip-rule="evenodd" d="M9.61627 0C8.85858 0 8.13193 0.299915 7.59616 0.833767L4.22685 4.19104C2.67939 5.73298 1.58159 7.66498 1.05082 9.78049L0.888012 10.4294C0.719158 11.1024 1.33095 11.712 2.00636 11.5437L2.65758 11.3815C4.78067 10.8526 6.7196 9.75876 8.26706 8.21683L11.6364 4.85955C12.1721 4.3257 12.4731 3.60164 12.4731 2.84666C12.4731 1.27449 11.1941 0 9.61627 0ZM8.64798 3.81149C9.16373 4.3254 9.76164 4.54431 10.2051 4.4674L10.724 3.95041C11.0178 3.65768 11.1828 3.26065 11.1828 2.84666C11.1828 1.98457 10.4814 1.28571 9.61627 1.28571C9.2008 1.28571 8.80234 1.45017 8.50856 1.7429L7.98972 2.25989C7.91253 2.7018 8.13223 3.29758 8.64798 3.81149Z" fill="#6A59CE"/>
<path fill-rule="evenodd" clip-rule="evenodd" d="M0 14.3571C0 14.0021 0.288849 13.7143 0.645161 13.7143H12.6882C13.0445 13.7143 13.3333 14.0021 13.3333 14.3571C13.3333 14.7122 13.0445 15 12.6882 15H0.645161C0.288849 15 0 14.7122 0 14.3571Z" fill="#6A59CE"/>
</svg>
