<svg width="20" height="21" viewBox="0 0 20 21" fill="none" xmlns="http://www.w3.org/2000/svg">
<path fill-rule="evenodd" clip-rule="evenodd" d="M5.70351 0C6.14758 0 6.50756 0.361616 6.50756 0.807692V1.07105C6.55198 1.05955 6.59654 1.04841 6.64125 1.03763C8.79555 0.518122 11.0378 0.518121 13.1921 1.03763C13.2368 1.04841 13.2814 1.05955 13.3258 1.07105V0.807692C13.3258 0.361616 13.6858 0 14.1298 0C14.5739 0 14.9339 0.361616 14.9339 0.807692V1.67126C17.1912 2.79271 18.8717 4.90959 19.4557 7.46919C19.9592 9.67586 19.9592 11.9721 19.4557 14.1788C18.7297 17.3609 16.309 19.8587 13.1921 20.6104C11.0378 21.1299 8.79555 21.1299 6.64125 20.6104C3.52432 19.8587 1.10366 17.3609 0.377615 14.1788C-0.125872 11.9721 -0.125872 9.67585 0.377615 7.46919C0.961629 4.90959 2.64211 2.79271 4.89945 1.67126V0.807692C4.89945 0.361616 5.25944 0 5.70351 0ZM8.76172 9.52178C8.48836 9.24841 8.04514 9.24841 7.77177 9.52178C7.49841 9.79514 7.49841 10.2384 7.77177 10.5117L8.92671 11.6667L7.77177 12.8216C7.49841 13.095 7.49841 13.5382 7.77177 13.8116C8.04514 14.0849 8.48836 14.0849 8.76172 13.8116L9.91666 12.6566L11.0716 13.8116C11.345 14.0849 11.7882 14.0849 12.0616 13.8116C12.3349 13.5382 12.3349 13.095 12.0616 12.8216L10.9066 11.6667L12.0616 10.5117C12.3349 10.2384 12.3349 9.79514 12.0616 9.52178C11.7882 9.24841 11.345 9.24841 11.0716 9.52178L9.91666 10.6767L8.76172 9.52178Z" fill="#FF2524"/>
</svg>
