<svg width="20" height="14" viewBox="0 0 20 14" fill="none" xmlns="http://www.w3.org/2000/svg">
<path d="M10 0C13.679 0 18.162 2.417 19.73 5.901C19.876 6.229 20 6.611 20 7C20 7.388 19.877 7.771 19.73 8.099C18.161 11.583 13.678 14 10 14C6.321 14 1.838 11.583 0.27 8.099C0.124 7.77 0 7.389 0 7C0 6.612 0.123 6.229 0.27 5.901C1.839 2.417 6.322 0 10 0ZM10 3C8.93913 3 7.92172 3.42143 7.17157 4.17157C6.42143 4.92172 6 5.93913 6 7C6 8.06087 6.42143 9.07828 7.17157 9.82843C7.92172 10.5786 8.93913 11 10 11C11.0609 11 12.0783 10.5786 12.8284 9.82843C13.5786 9.07828 14 8.06087 14 7C14 5.93913 13.5786 4.92172 12.8284 4.17157C12.0783 3.42143 11.0609 3 10 3ZM10 5C10.5304 5 11.0391 5.21071 11.4142 5.58579C11.7893 5.96086 12 6.46957 12 7C12 7.53043 11.7893 8.03914 11.4142 8.41421C11.0391 8.78929 10.5304 9 10 9C9.46957 9 8.96086 8.78929 8.58579 8.41421C8.21071 8.03914 8 7.53043 8 7C8 6.46957 8.21071 5.96086 8.58579 5.58579C8.96086 5.21071 9.46957 5 10 5Z" fill="#6A59CE"/>
</svg>
