<svg width="24" height="24" viewBox="0 0 24 24" fill="none" xmlns="http://www.w3.org/2000/svg">
<path d="M18.5854 15.9999H16.9994C16.7342 15.9999 16.4799 16.1053 16.2923 16.2928C16.1048 16.4803 15.9994 16.7347 15.9994 16.9999C15.9994 17.2651 16.1048 17.5195 16.2923 17.707C16.4799 17.8946 16.7342 17.9999 16.9994 17.9999H20.9994C21.2646 17.9999 21.519 17.8946 21.7065 17.707C21.8941 17.5195 21.9994 17.2651 21.9994 16.9999V12.9999C21.9994 12.7347 21.8941 12.4803 21.7065 12.2928C21.519 12.1053 21.2646 11.9999 20.9994 11.9999C20.7342 11.9999 20.4799 12.1053 20.2923 12.2928C20.1048 12.4803 19.9994 12.7347 19.9994 12.9999V14.5859L14.7064 9.29292C14.5189 9.10545 14.2646 9.00013 13.9994 9.00013C13.7343 9.00013 13.48 9.10545 13.2924 9.29292L9.49943 13.0859L3.70643 7.29292C3.51783 7.11076 3.26523 7.00997 3.00303 7.01224C2.74083 7.01452 2.49002 7.11969 2.30461 7.3051C2.1192 7.49051 2.01403 7.74132 2.01176 8.00352C2.00948 8.26572 2.11027 8.51832 2.29243 8.70692L8.79243 15.2069C8.97996 15.3944 9.23427 15.4997 9.49943 15.4997C9.7646 15.4997 10.0189 15.3944 10.2064 15.2069L13.9994 11.4139L18.5854 15.9999Z" fill="#FF2524"/>
</svg>
