<svg width="28" height="28" viewBox="0 0 28 28" fill="none" xmlns="http://www.w3.org/2000/svg">
<path d="M0 14C0 6.26801 6.26801 0 14 0C21.732 0 28 6.26801 28 14C28 21.732 21.732 28 14 28C6.26801 28 0 21.732 0 14Z" fill="#E6F6E9"/>
<g clip-path="url(#clip0_17409_3464)">
<path fill-rule="evenodd" clip-rule="evenodd" d="M20.1272 9.64343C20.2521 9.76845 20.3223 9.93799 20.3223 10.1148C20.3223 10.2915 20.2521 10.4611 20.1272 10.5861L12.6325 18.0814C12.5644 18.1496 12.4835 18.2036 12.3945 18.2405C12.3055 18.2774 12.2102 18.2963 12.1138 18.2963C12.0175 18.2963 11.9221 18.2774 11.8331 18.2405C11.7441 18.2036 11.6633 18.1496 11.5952 18.0814L7.87115 14.3574C7.80921 14.2955 7.76008 14.222 7.72656 14.141C7.69303 14.0601 7.67578 13.9734 7.67578 13.8858C7.67578 13.7982 7.69303 13.7114 7.72656 13.6305C7.76008 13.5496 7.80921 13.476 7.87115 13.4141C7.93309 13.3522 8.00663 13.303 8.08755 13.2695C8.16848 13.236 8.25522 13.2187 8.34282 13.2187C8.43042 13.2187 8.51715 13.236 8.59808 13.2695C8.67901 13.303 8.75255 13.3522 8.81449 13.4141L12.1145 16.7141L19.1838 9.64343C19.3088 9.51845 19.4784 9.44824 19.6552 9.44824C19.8319 9.44824 20.0021 9.51845 20.1272 9.64343Z" fill="#25AD3E"/>
</g>
<defs>
<clipPath id="clip0_17409_3464">
<rect width="16" height="16" fill="white" transform="translate(6 6)"/>
</clipPath>
</defs>
</svg>
