<svg width="20" height="20" viewBox="0 0 20 20" fill="none" xmlns="http://www.w3.org/2000/svg">
<path fill-rule="evenodd" clip-rule="evenodd" d="M7.30506 15.2361C7.29379 15.1838 7.28466 15.1314 7.27765 15.0788C6.69453 15.0063 6.11353 14.9104 5.53602 14.7912L5.24981 14.732C4.13493 14.5018 3.33398 13.5076 3.33398 12.3541C3.33398 11.5242 3.74476 10.7925 4.37006 10.3552C4.19154 9.19746 4.25534 8.01411 4.55787 6.88225L4.59958 6.7262C5.09867 4.85886 6.51235 3.37073 8.32304 2.77573C9.44327 2.40761 10.6624 2.40656 11.7832 2.7818C13.5673 3.37914 14.9319 4.85172 15.4088 6.69438L15.4646 6.90988C15.7557 8.03451 15.8124 9.20794 15.6316 10.3554C16.2567 10.7928 16.6673 11.5243 16.6673 12.3541C16.6673 13.5076 15.8664 14.5018 14.7515 14.732L14.4653 14.7912C13.8878 14.9104 13.3068 15.0063 12.7237 15.0788C12.7166 15.1314 12.7075 15.1838 12.6962 15.2361L12.641 15.492C12.4391 16.4279 11.7264 17.1638 10.8073 17.3857L10.658 17.4218C10.2258 17.5261 9.7755 17.5261 9.34331 17.4218L9.19403 17.3857C8.27486 17.1638 7.5622 16.4279 7.36029 15.492L7.30506 15.2361ZM8.46587 15.194C9.48785 15.2653 10.5135 15.2653 11.5354 15.194L11.5246 15.2444C11.4164 15.7456 11.0348 16.1397 10.5426 16.2585L10.3933 16.2945C10.1351 16.3569 9.86616 16.3569 9.60801 16.2945L9.45873 16.2585C8.9665 16.1397 8.58487 15.7456 8.47674 15.2444L8.46587 15.194Z" fill="#777777"/>
</svg>
