<svg width="17" height="15" viewBox="0 0 17 15" fill="none" xmlns="http://www.w3.org/2000/svg">
<path d="M0.056078 13.4494L5.05608 0.532775C5.10554 0.404843 5.18581 0.291097 5.28977 0.201629C5.39373 0.112161 5.51817 0.0497379 5.65204 0.0198965C5.78592 -0.00994492 5.92509 -0.0062809 6.0572 0.0305634C6.18932 0.0674076 6.3103 0.136293 6.40941 0.231109L9.22775 2.92694L10.9561 1.19944C11.0144 1.1413 11.0886 1.10175 11.1694 1.08578C11.2502 1.0698 11.3339 1.07812 11.41 1.10969C11.486 1.14125 11.551 1.19464 11.5967 1.26312C11.6425 1.3316 11.6669 1.41209 11.6669 1.49444V5.26027L15.9927 9.39777C16.1001 9.50046 16.178 9.62996 16.2185 9.77289C16.2589 9.91581 16.2605 10.0669 16.2229 10.2107C16.1853 10.3544 16.1101 10.4854 16.0048 10.5903C15.8996 10.6951 15.7683 10.7699 15.6244 10.8069L1.04108 14.5569C0.892817 14.5949 0.736958 14.5913 0.590597 14.5466C0.444237 14.5018 0.313028 14.4176 0.211363 14.3032C0.109699 14.1888 0.0415039 14.0486 0.0142593 13.898C-0.0129852 13.7474 0.00177193 13.5922 0.0569134 13.4494H0.056078ZM2.08358 12.4994L11.2236 6.54027L9.77775 5.15694L2.08358 12.4994Z" fill="#777777"/>
</svg>
