<svg width="80" height="80" viewBox="0 0 80 80" fill="none" xmlns="http://www.w3.org/2000/svg">
<rect x="0.5" y="0.5" width="79" height="79" rx="39.5" fill="#FDF5EA"/>
<rect x="0.5" y="0.5" width="79" height="79" rx="39.5" stroke="#EE9C2E"/>
<path d="M50.9794 31.5811C51.5554 29.9878 50.0114 28.4438 48.4181 29.0211L28.9447 36.0638C27.3461 36.6425 27.1527 38.8238 28.6234 39.6758L34.8394 43.2745L40.3901 37.7238C40.6415 37.4809 40.9783 37.3465 41.3279 37.3496C41.6775 37.3526 42.012 37.4928 42.2592 37.74C42.5064 37.9872 42.6466 38.3217 42.6496 38.6713C42.6527 39.0209 42.5183 39.3577 42.2754 39.6091L36.7247 45.1598L40.3247 51.3758C41.1754 52.8465 43.3567 52.6518 43.9354 51.0545L50.9794 31.5811Z" fill="#EE9C2E"/>
</svg>
