<svg width="17" height="17" viewBox="0 0 17 17" fill="none" xmlns="http://www.w3.org/2000/svg">
<path fill-rule="evenodd" clip-rule="evenodd" d="M6.6 14.85C6.6 15.7613 7.33873 16.5 8.25 16.5C9.16127 16.5 9.9 15.7613 9.9 14.85V13.7859C10.2841 13.6715 10.6514 13.5184 10.9974 13.3309L11.7502 14.0836C12.3945 14.728 13.4393 14.728 14.0836 14.0836C14.728 13.4393 14.728 12.3946 14.0836 11.7502L13.3309 10.9974C13.5184 10.6514 13.6715 10.2841 13.7859 9.9H14.85C15.7613 9.9 16.5 9.16127 16.5 8.25C16.5 7.33873 15.7613 6.6 14.85 6.6H13.7859C13.6715 6.21593 13.5184 5.84861 13.3309 5.50259L14.0836 4.74983C14.728 4.10546 14.728 3.06074 14.0836 2.41637C13.4393 1.77201 12.3945 1.77201 11.7502 2.41637L10.9974 3.16914C10.6514 2.98164 10.2841 2.82845 9.9 2.71415V1.65C9.9 0.73873 9.16127 0 8.25 0C7.33873 0 6.6 0.73873 6.6 1.65V2.71415C6.21593 2.82845 5.8486 2.98164 5.50259 3.16914L4.74983 2.41638C4.10546 1.77201 3.06074 1.77201 2.41637 2.41638C1.77201 3.06074 1.77201 4.10546 2.41637 4.74983L3.16914 5.50259C2.98164 5.84861 2.82845 6.21593 2.71415 6.6H1.65C0.73873 6.6 0 7.33873 0 8.25C0 9.16127 0.73873 9.9 1.65 9.9H2.71415C2.82845 10.2841 2.98164 10.6514 3.16914 10.9974L2.41636 11.7502C1.772 12.3945 1.772 13.4393 2.41636 14.0836C3.06073 14.728 4.10545 14.728 4.74981 14.0836L5.50259 13.3309C5.8486 13.5184 6.21593 13.6715 6.6 13.7859V14.85ZM8.24999 10.725C9.61689 10.725 10.725 9.61689 10.725 8.24999C10.725 6.88308 9.61689 5.77499 8.24999 5.77499C6.88308 5.77499 5.77499 6.88308 5.77499 8.24999C5.77499 9.61689 6.88308 10.725 8.24999 10.725Z" fill="#777777"/>
</svg>
