<svg width="40" height="40" viewBox="0 0 40 40" fill="none" xmlns="http://www.w3.org/2000/svg">
<rect width="40" height="40" rx="20" fill="black"/>
<path d="M20 35C21.9698 35 23.9204 34.612 25.7403 33.8582C27.5601 33.1044 29.2137 31.9995 30.6066 30.6066C31.9995 29.2137 33.1044 27.5601 33.8582 25.7403C34.612 23.9204 35 21.9698 35 20C35 18.0302 34.612 16.0796 33.8582 14.2597C33.1044 12.4399 31.9995 10.7863 30.6066 9.3934C29.2137 8.00052 27.5601 6.89563 25.7403 6.14181C23.9204 5.38799 21.9698 5 20 5C16.0218 5 12.2064 6.58035 9.3934 9.3934C6.58035 12.2064 5 16.0218 5 20C5 23.9782 6.58035 27.7936 9.3934 30.6066C12.2064 33.4196 16.0218 35 20 35Z" fill="#0B53BF"/>
<path d="M22.7 9.0835V11.0152C24.6296 11.5996 26.3202 12.7891 27.5221 14.4078C28.7241 16.0266 29.3736 17.989 29.375 20.0052C29.3736 22.0214 28.7241 23.9837 27.5221 25.6025C26.3202 27.2213 24.6296 28.4107 22.7 28.9952V30.9285C25.1423 30.3277 27.3123 28.9247 28.8625 26.9442C30.4127 24.9637 31.2534 22.5202 31.25 20.0052C31.253 17.4904 30.4121 15.0473 28.862 13.0671C27.3118 11.087 25.142 9.68421 22.7 9.0835ZM10.625 20.0052C10.6264 17.989 11.276 16.0266 12.4779 14.4078C13.6798 12.7891 15.3704 11.5996 17.3 11.0152V9.0835C14.858 9.68421 12.6882 11.087 11.1381 13.0671C9.58788 15.0473 8.74698 17.4904 8.75001 20.0052C8.74698 22.5199 9.58788 24.963 11.1381 26.9432C12.6882 28.9234 14.858 30.3261 17.3 30.9268V28.9952C15.369 28.413 13.6769 27.2242 12.4746 25.6049C11.2723 23.9856 10.6237 22.022 10.625 20.0052Z" fill="white"/>
<path d="M24.0314 22.0967C24.0314 18.2617 18.0214 19.8367 18.0214 17.7184C18.0214 16.9584 18.6314 16.4717 19.7931 16.4717C21.1814 16.4717 21.6597 17.1467 21.8097 18.055H23.7214C23.5514 16.3484 22.5714 15.2717 20.9381 14.95V13.4434H19.0631V14.8967C17.2714 15.125 16.1464 16.1667 16.1464 17.7184C16.1464 21.5717 22.1647 20.1267 22.1647 22.2084C22.1647 22.995 21.4064 23.52 20.1214 23.52C18.4431 23.52 17.8897 22.78 17.6847 21.7584H15.8164C15.9381 23.6284 17.0897 24.7967 19.0614 25.09V26.5667H20.9364V25.1084C22.8581 24.86 24.0314 23.7417 24.0314 22.0967Z" fill="white"/>
</svg>
