<svg width="19" height="18" viewBox="0 0 19 18" fill="none" xmlns="http://www.w3.org/2000/svg">
<path fill-rule="evenodd" clip-rule="evenodd" d="M12.0087 0.316538C10.0955 -0.105512 8.11279 -0.105513 6.19962 0.316538L5.7994 0.404826C3.12745 0.994264 1.02095 3.03922 0.361275 5.68405C-0.120425 7.61535 -0.120425 9.63465 0.361275 11.5659C1.02095 14.2108 3.12745 16.2557 5.7994 16.8452L6.19962 16.9335C8.11279 17.3555 10.0955 17.3555 12.0087 16.9335L12.4089 16.8452C15.0809 16.2557 17.1874 14.2108 17.8471 11.5659C18.3288 9.63465 18.3288 7.61535 17.8471 5.68406C17.1874 3.03922 15.0809 0.994264 12.4089 0.404825L12.0087 0.316538ZM14.7999 6.52412C15.1611 6.46289 15.5269 6.4411 15.8898 6.45793C16.2886 6.47642 16.6025 6.78743 16.6561 7.18135C16.7864 8.13939 16.7864 9.11061 16.6561 10.0686C16.6025 10.4626 16.2886 10.7736 15.8898 10.7921C15.5269 10.8089 15.1611 10.7871 14.7999 10.7259L14.729 10.7139C13.7879 10.5544 13.0609 9.91946 12.815 9.11939C12.7156 8.79587 12.7156 8.45413 12.815 8.13061C13.0609 7.33054 13.7879 6.69563 14.729 6.53614L14.7999 6.52412ZM4.64369 5.72826C4.64369 5.4083 4.90417 5.14891 5.22549 5.14891L9.10419 5.14891C9.42551 5.14891 9.68599 5.4083 9.68599 5.72826C9.68599 6.04823 9.42551 6.30761 9.10419 6.30762H5.22549C4.90417 6.30762 4.64369 6.04823 4.64369 5.72826Z" fill="#6A59CE"/>
</svg>
