<svg width="42" height="42" viewBox="0 0 42 42" fill="none" xmlns="http://www.w3.org/2000/svg">
<rect width="41.7273" height="41.7273" rx="20.8636" fill="#F0EEFA"/>
<g clip-path="url(#clip0_17330_3936)">
<path fill-rule="evenodd" clip-rule="evenodd" d="M22.0949 10.2236C22.7269 9.46559 23.9579 9.98359 23.8579 10.9656L23.1519 17.8636H28.8629C29.0529 17.8637 29.239 17.9179 29.3993 18.0199C29.5596 18.1219 29.6876 18.2674 29.7682 18.4395C29.8487 18.6116 29.8786 18.803 29.8543 18.9915C29.83 19.18 29.7525 19.3576 29.6309 19.5036L19.6309 31.5036C18.9989 32.2616 17.7679 31.7436 17.8679 30.7616L18.5739 23.8636H12.8629C12.6729 23.8635 12.4868 23.8093 12.3265 23.7073C12.1662 23.6053 12.0382 23.4598 11.9577 23.2877C11.8771 23.1156 11.8472 22.9241 11.8715 22.7357C11.8958 22.5472 11.9733 22.3696 12.0949 22.2236L22.0949 10.2236Z" fill="#6A59CE"/>
</g>
<defs>
<clipPath id="clip0_17330_3936">
<rect width="24" height="24" fill="white" transform="translate(8.86328 8.86353)"/>
</clipPath>
</defs>
</svg>
