<svg width="42" height="42" viewBox="0 0 42 42" fill="none" xmlns="http://www.w3.org/2000/svg">
<rect width="41.7273" height="41.7273" rx="20.8636" fill="#F4F4F4"/>
<path fill-rule="evenodd" clip-rule="evenodd" d="M17.893 12.2072C19.8467 11.749 21.8799 11.749 23.8335 12.2072C26.6549 12.869 28.8578 15.0719 29.5196 17.8933C29.9778 19.8469 29.9778 21.8801 29.5196 23.8338C28.8578 26.6551 26.6549 28.858 23.8335 29.5198C21.8799 29.9781 19.8467 29.9781 17.893 29.5198C15.0717 28.858 12.8688 26.6551 12.207 23.8338C11.7487 21.8801 11.7487 19.8469 12.207 17.8933C12.8688 15.0719 15.0717 12.869 17.893 12.2072ZM18.0439 20.8635C18.0439 21.3922 17.6036 21.8208 17.0604 21.8208C16.5172 21.8208 16.0768 21.3922 16.0768 20.8635C16.0768 20.3348 16.5172 19.9062 17.0604 19.9062C17.6036 19.9062 18.0439 20.3348 18.0439 20.8635ZM21.8468 20.8635C21.8468 21.3922 21.4065 21.8208 20.8633 21.8208C20.3201 21.8208 19.8797 21.3922 19.8797 20.8635C19.8797 20.3348 20.3201 19.9062 20.8633 19.9062C21.4065 19.9062 21.8468 20.3348 21.8468 20.8635ZM24.6661 21.8208C25.2093 21.8208 25.6497 21.3922 25.6497 20.8635C25.6497 20.3348 25.2093 19.9062 24.6661 19.9062C24.123 19.9062 23.6826 20.3348 23.6826 20.8635C23.6826 21.3922 24.123 21.8208 24.6661 21.8208Z" fill="#2D2D2D"/>
</svg>
