<svg width="14" height="14" viewBox="0 0 14 14" fill="none" xmlns="http://www.w3.org/2000/svg">
<path d="M3.89339 0.116961C3.22856 -0.0389871 2.53666 -0.0389869 1.87183 0.116961C1.00109 0.321209 0.32121 1.00109 0.116961 1.87183C-0.0389871 2.53666 -0.0389871 3.22856 0.116961 3.8934C0.32121 4.76414 1.00109 5.44402 1.87184 5.64827C2.53666 5.80421 3.22856 5.80421 3.89339 5.64827C4.76414 5.44402 5.44402 4.76414 5.64827 3.89339C5.80421 3.22856 5.80421 2.53666 5.64827 1.87183C5.44402 1.00109 4.76414 0.321209 3.89339 0.116961Z" fill="#6A59CE"/>
<path d="M3.89339 7.85173C3.22856 7.69579 2.53666 7.69579 1.87183 7.85173C1.00109 8.05598 0.32121 8.73586 0.116961 9.60661C-0.0389871 10.2714 -0.0389871 10.9633 0.116961 11.6282C0.32121 12.4989 1.00109 13.1788 1.87184 13.383C2.53666 13.539 3.22856 13.539 3.89339 13.383C4.76414 13.1788 5.44402 12.4989 5.64827 11.6282C5.80421 10.9633 5.80421 10.2714 5.64827 9.60661C5.44402 8.73587 4.76414 8.05598 3.89339 7.85173Z" fill="#6A59CE"/>
<path d="M11.6282 0.116961C10.9633 -0.0389871 10.2714 -0.0389869 9.60661 0.116961C8.73587 0.321209 8.05598 1.00109 7.85173 1.87183C7.69579 2.53666 7.69579 3.22856 7.85173 3.8934C8.05598 4.76414 8.73587 5.44402 9.60661 5.64827C10.2714 5.80421 10.9633 5.80421 11.6282 5.64827C12.4989 5.44402 13.1788 4.76414 13.383 3.89339C13.539 3.22856 13.539 2.53666 13.383 1.87183C13.1788 1.00109 12.4989 0.321209 11.6282 0.116961Z" fill="#6A59CE"/>
<path d="M11.6282 7.85173C10.9633 7.69579 10.2714 7.69579 9.60661 7.85173C8.73587 8.05598 8.05598 8.73586 7.85173 9.60661C7.69579 10.2714 7.69579 10.9633 7.85173 11.6282C8.05598 12.4989 8.73587 13.1788 9.60661 13.383C10.2714 13.539 10.9633 13.539 11.6282 13.383C12.4989 13.1788 13.1788 12.4989 13.383 11.6282C13.539 10.9633 13.539 10.2714 13.383 9.60661C13.1788 8.73587 12.4989 8.05598 11.6282 7.85173Z" fill="#6A59CE"/>
</svg>
