<svg width="14" height="14" viewBox="0 0 14 14" fill="none" xmlns="http://www.w3.org/2000/svg">
<path d="M13.3479 6.58657C13.5507 6.38247 13.5507 6.05155 13.3479 5.84745L9.04984 1.52116C8.61002 1.07842 8.24325 0.709227 7.91294 0.455554C7.5643 0.187801 7.19594 0 6.75 0C6.30406 0 5.9357 0.187801 5.58705 0.455555C5.25674 0.70923 4.88998 1.07842 4.45016 1.52116L0.152079 5.84745C-0.0506931 6.05155 -0.0506931 6.38247 0.152079 6.58657C0.354851 6.79067 0.68361 6.79067 0.886382 6.58657L1.18384 6.28716V8.57488C1.18384 10.8205 2.71945 12.7707 4.89147 13.2835C6.11389 13.5722 7.38609 13.5722 8.60852 13.2835C10.7805 12.7707 12.3161 10.8205 12.3161 8.57488V6.28715L12.6136 6.58657C12.8164 6.79067 13.1451 6.79067 13.3479 6.58657Z" fill="#DFDFDF"/>
</svg>
