<svg width="44" height="44" viewBox="0 0 44 44" fill="none" xmlns="http://www.w3.org/2000/svg">
<rect width="44" height="44" rx="22" fill="#E6F6E9"/>
<g clip-path="url(#clip0_36_800)">
<path fill-rule="evenodd" clip-rule="evenodd" d="M16 18C16 16.4087 16.6321 14.8826 17.7574 13.7574C18.8826 12.6321 20.4087 12 22 12C23.5913 12 25.1174 12.6321 26.2426 13.7574C27.3679 14.8826 28 16.4087 28 18H29C29.5304 18 30.0391 18.2107 30.4142 18.5858C30.7893 18.9609 31 19.4696 31 20V30C31 30.5304 30.7893 31.0391 30.4142 31.4142C30.0391 31.7893 29.5304 32 29 32H15C14.4696 32 13.9609 31.7893 13.5858 31.4142C13.2107 31.0391 13 30.5304 13 30V20C13 19.4696 13.2107 18.9609 13.5858 18.5858C13.9609 18.2107 14.4696 18 15 18H16ZM22 14C23.0609 14 24.0783 14.4214 24.8284 15.1716C25.5786 15.9217 26 16.9391 26 18H18C18 16.9391 18.4214 15.9217 19.1716 15.1716C19.9217 14.4214 20.9391 14 22 14ZM24 24C24 24.3511 23.9076 24.6959 23.732 25C23.5565 25.304 23.304 25.5565 23 25.732V27C23 27.2652 22.8946 27.5196 22.7071 27.7071C22.5196 27.8946 22.2652 28 22 28C21.7348 28 21.4804 27.8946 21.2929 27.7071C21.1054 27.5196 21 27.2652 21 27V25.732C20.6187 25.5119 20.3208 25.1721 20.1523 24.7653C19.9838 24.3586 19.9543 23.9076 20.0682 23.4824C20.1822 23.0571 20.4333 22.6813 20.7825 22.4133C21.1318 22.1453 21.5597 22 22 22C22.5304 22 23.0391 22.2107 23.4142 22.5858C23.7893 22.9609 24 23.4696 24 24Z" fill="#7BCD8A"/>
</g>
<defs>
<clipPath id="clip0_36_800">
<rect width="24" height="24" fill="white" transform="translate(10 10)"/>
</clipPath>
</defs>
</svg>
