<svg width="42" height="42" viewBox="0 0 42 42" fill="none" xmlns="http://www.w3.org/2000/svg">
<rect width="41.7273" height="41.7273" rx="20.8636" fill="#E8F0FF"/>
<g clip-path="url(#clip0_16691_4005)">
<path fill-rule="evenodd" clip-rule="evenodd" d="M26.8633 11.8635C27.6285 11.8635 28.3648 12.1559 28.9215 12.6808C29.4783 13.2058 29.8134 13.9236 29.8583 14.6875L29.8633 14.8635V28.8635C29.8632 29.03 29.8216 29.1938 29.7422 29.3402C29.6628 29.4865 29.5481 29.6107 29.4086 29.7014C29.269 29.7922 29.109 29.8467 28.9431 29.86C28.7771 29.8733 28.6105 29.8449 28.4583 29.7775L28.3383 29.7155L25.6133 28.0375L22.8873 29.7155C22.7477 29.8013 22.5891 29.8515 22.4255 29.8616C22.262 29.8717 22.0984 29.8415 21.9493 29.7735L21.8393 29.7155L19.1133 28.0375L16.3873 29.7155C16.2444 29.8035 16.0817 29.854 15.9142 29.8626C15.7466 29.8712 15.5796 29.8375 15.4285 29.7645C15.2774 29.6916 15.1471 29.5819 15.0495 29.4454C14.952 29.3089 14.8903 29.1501 14.8703 28.9835L14.8633 28.8635V22.8635H12.8633C12.6183 22.8635 12.3819 22.7736 12.1989 22.6108C12.0159 22.4481 11.8989 22.2238 11.8703 21.9805L11.8633 21.8635V14.3635C11.8632 13.7288 12.1045 13.1178 12.5383 12.6545C12.9721 12.1911 13.5659 11.9102 14.1993 11.8685L14.3633 11.8635H26.8633ZM23.8633 20.8635H19.8633C19.5981 20.8635 19.3437 20.9689 19.1562 21.1564C18.9686 21.344 18.8633 21.5983 18.8633 21.8635C18.8633 22.1287 18.9686 22.3831 19.1562 22.5706C19.3437 22.7582 19.5981 22.8635 19.8633 22.8635H23.8633C24.1285 22.8635 24.3829 22.7582 24.5704 22.5706C24.7579 22.3831 24.8633 22.1287 24.8633 21.8635C24.8633 21.5983 24.7579 21.344 24.5704 21.1564C24.3829 20.9689 24.1285 20.8635 23.8633 20.8635ZM14.3633 13.8635C14.2307 13.8635 14.1035 13.9162 14.0097 14.01C13.916 14.1037 13.8633 14.2309 13.8633 14.3635V20.8635H14.8633V14.3635C14.8633 14.2309 14.8106 14.1037 14.7168 14.01C14.6231 13.9162 14.4959 13.8635 14.3633 13.8635ZM24.8633 16.8635H19.8633C19.6084 16.8638 19.3632 16.9614 19.1779 17.1364C18.9926 17.3113 18.881 17.5505 18.8661 17.8049C18.8512 18.0594 18.934 18.3099 19.0975 18.5054C19.2611 18.7008 19.4932 18.8264 19.7463 18.8565L19.8633 18.8635H24.8633C25.1182 18.8632 25.3633 18.7656 25.5486 18.5907C25.734 18.4157 25.8455 18.1766 25.8605 17.9221C25.8754 17.6677 25.7926 17.4171 25.629 17.2217C25.4654 17.0262 25.2334 16.9006 24.9803 16.8705L24.8633 16.8635Z" fill="#1969FE"/>
</g>
<defs>
<clipPath id="clip0_16691_4005">
<rect width="24" height="24" fill="white" transform="translate(8.86328 8.86353)"/>
</clipPath>
</defs>
</svg>
