<svg width="40" height="17" viewBox="0 0 40 17" fill="none" xmlns="http://www.w3.org/2000/svg">
<g clip-path="url(#clip0_16691_3917)">
<path d="M8.42085 16.8417C13.0716 16.8417 16.8417 13.0716 16.8417 8.42085C16.8417 3.77014 13.0716 0 8.42085 0C3.77014 0 0 3.77014 0 8.42085C0 13.0716 3.77014 16.8417 8.42085 16.8417Z" fill="#627EEA"/>
<path d="M8.68164 2.10498V6.77329L12.6273 8.5364L8.68164 2.10498Z" fill="white" fill-opacity="0.602"/>
<path d="M8.68255 2.10498L4.73633 8.5364L8.68255 6.77329V2.10498Z" fill="white"/>
<path d="M8.68164 11.562V14.734L12.63 9.27148L8.68164 11.562Z" fill="white" fill-opacity="0.602"/>
<path d="M8.68255 14.734V11.5614L4.73633 9.27148L8.68255 14.734Z" fill="white"/>
<path d="M8.68164 10.8275L12.6273 8.53648L8.68164 6.77441V10.8275Z" fill="white" fill-opacity="0.2"/>
<path d="M4.73633 8.53648L8.68255 10.8275V6.77441L4.73633 8.53648Z" fill="white" fill-opacity="0.602"/>
</g>
<g clip-path="url(#clip1_16691_3917)">
<path d="M14.7353 16.8417C19.386 16.8417 23.1562 13.0716 23.1562 8.42085C23.1562 3.77014 19.386 0 14.7353 0C10.0846 0 6.31445 3.77014 6.31445 8.42085C6.31445 13.0716 10.0846 16.8417 14.7353 16.8417Z" fill="#F3BA2F"/>
<path d="M12.6935 7.58077L14.7376 5.53661L16.7829 7.58182L17.9723 6.39237L14.7376 3.15771L11.504 6.39132L12.6935 7.58077ZM9.47461 8.42075L10.6641 7.2313L11.8535 8.42075L10.6641 9.61019L9.47461 8.42075ZM12.6935 9.26073L14.7376 11.3049L16.7829 9.25967L17.9723 10.4486L14.7376 13.6838L11.504 10.4502L11.5025 10.4486L12.6935 9.26073ZM17.6218 8.42075L18.8112 7.2313L20.0007 8.42075L18.8112 9.61019L17.6218 8.42075ZM15.9439 8.41969H15.945V8.42075L14.7376 9.62809L13.5319 8.42285L13.5298 8.42075L13.5319 8.41917L13.7429 8.20759L13.8456 8.10496L14.7376 7.21341L15.9439 8.41969Z" fill="white"/>
</g>
<path d="M12.6328 8.42085C12.6328 3.77014 16.403 0 21.0537 0C25.7044 0 29.4745 3.77014 29.4745 8.42085C29.4745 13.0716 25.7044 16.8417 21.0537 16.8417C16.403 16.8417 12.6328 13.0716 12.6328 8.42085Z" fill="#4BA2FF"/>
<path d="M23.2253 7.63555C23.6184 8.14028 23.8311 8.7621 23.8295 9.40183C23.8302 10.0511 23.6113 10.6815 23.2085 11.1907L23.1748 11.2323L23.1669 11.1765C23.1588 11.1307 23.1495 11.085 23.139 11.0397C22.9443 10.1681 22.3143 9.41867 21.2722 8.81131C20.5701 8.40448 20.1659 7.91397 20.0602 7.35714C20.0031 7.00988 20.0318 6.65393 20.1438 6.32032C20.2228 6.06033 20.3465 5.81507 20.5091 5.59613L20.9159 5.0893C20.9324 5.06897 20.9531 5.05257 20.9767 5.04131C21.0003 5.03004 21.0261 5.0242 21.0522 5.0242C21.0784 5.0242 21.1042 5.03004 21.1278 5.04131C21.1514 5.05257 21.1721 5.06897 21.1886 5.0893L23.2253 7.63555ZM23.8659 7.12872L21.1522 3.73249C21.1403 3.71746 21.125 3.70533 21.1077 3.69699C21.0904 3.68866 21.0715 3.68433 21.0522 3.68433C21.033 3.68433 21.0141 3.68866 20.9967 3.69699C20.9794 3.70533 20.9642 3.71746 20.9522 3.73249L18.2376 7.13135L18.2292 7.13978C17.7096 7.80049 17.4279 8.61708 17.4297 9.45761C17.4302 11.4997 19.0523 13.1575 21.0522 13.1575C23.0522 13.1575 24.6737 11.4997 24.6737 9.45761C24.6755 8.61708 24.3939 7.80049 23.8743 7.13978L23.8659 7.12872ZM18.887 7.6245L19.1297 7.32082L19.1381 7.37661L19.1575 7.51029C19.3165 8.35448 19.8765 9.05657 20.8154 9.59972C21.6312 10.076 22.1048 10.6223 22.2417 11.2213C22.2975 11.4718 22.3085 11.717 22.2838 11.9318V11.9454L22.2722 11.9507C21.8933 12.1402 21.4759 12.2386 21.0522 12.2381C19.5196 12.2381 18.2744 10.9676 18.2744 9.40183C18.2744 8.73079 18.5023 8.11238 18.887 7.6245Z" fill="white"/>
<path d="M17.8945 8.42085C17.8945 3.77014 21.6647 0 26.3154 0C30.9661 0 34.7362 3.77014 34.7362 8.42085C34.7362 13.0716 30.9661 16.8417 26.3154 16.8417C21.6647 16.8417 17.8945 13.0716 17.8945 8.42085Z" fill="#6A59CE"/>
<path d="M29.6898 6.2642C29.6307 6.31841 29.5537 6.34895 29.4735 6.34999H21.8832C21.6137 6.34999 21.4779 6.0421 21.6642 5.86158L22.911 4.6595C22.969 4.60338 23.0462 4.57156 23.1268 4.57056H30.7461C31.0182 4.57056 31.1514 4.88108 30.9619 5.06265L29.6898 6.2642Z" fill="url(#paint0_linear_16691_3917)"/>
<path d="M29.6898 12.188C29.6303 12.2413 29.5533 12.2709 29.4735 12.2712H21.8832C21.6137 12.2712 21.4779 11.9659 21.6642 11.7854L22.911 10.5802C22.9694 10.5252 23.0466 10.4945 23.1268 10.4944H30.7461C31.0182 10.4944 31.1514 10.8028 30.9619 10.9828L29.6898 12.188Z" fill="url(#paint1_linear_16691_3917)"/>
<path d="M29.6898 7.61709C29.6303 7.56384 29.5533 7.53425 29.4735 7.53394H21.8832C21.6137 7.53394 21.4779 7.83919 21.6642 8.01971L22.911 9.22495C22.9694 9.27916 23.0463 9.30916 23.1268 9.31074H30.7461C31.0182 9.31074 31.1514 9.00232 30.9619 8.82233L29.6898 7.61709Z" fill="url(#paint2_linear_16691_3917)"/>
<path d="M23.1582 8.42085C23.1582 3.77014 26.9283 0 31.5791 0C36.2298 0 39.9999 3.77014 39.9999 8.42085C39.9999 13.0716 36.2298 16.8417 31.5791 16.8417C26.9283 16.8417 23.1582 13.0716 23.1582 8.42085Z" fill="white"/>
<path d="M30.7415 5.07995L31.5467 3.70525C31.5609 3.67735 31.5956 3.67735 31.6025 3.70525L35.5824 10.5114C35.5892 10.5251 35.5824 10.5388 35.5756 10.553L33.2835 13.1298C33.2759 13.1372 33.2661 13.1422 33.2556 13.144H31.3941C31.3593 13.144 31.3457 13.1092 31.3667 13.0882L32.6098 11.6851L33.7767 10.3798C33.7903 10.3656 33.7903 10.3519 33.7835 10.3377L30.7415 5.11469C30.7346 5.10784 30.7346 5.09363 30.7415 5.07995Z" fill="black"/>
<path d="M31.9373 11.7475L30.7005 13.137C30.697 13.1405 30.6922 13.144 30.6863 13.1475L30.6731 13.1575H29.8952C29.881 13.1575 29.8742 13.1506 29.8673 13.1433L27.5758 10.567C27.5722 10.5607 27.5703 10.5535 27.5703 10.5462C27.5703 10.5389 27.5722 10.5318 27.5758 10.5254L30.4299 5.62135C30.4442 5.60083 30.4789 5.60083 30.4926 5.62135L31.2915 6.99711C31.2983 7.00395 31.2983 7.01816 31.2915 7.03132L29.3605 10.3444C29.3537 10.3581 29.3605 10.3723 29.3673 10.386L30.5199 11.678C30.5278 11.6854 30.5377 11.6902 30.5484 11.6917H31.9094C31.9441 11.6917 31.9583 11.7265 31.9373 11.7475Z" fill="black"/>
<defs>
<linearGradient id="paint0_linear_16691_3917" x1="21.5784" y1="31.0736" x2="31.2929" y2="30.9841" gradientUnits="userSpaceOnUse">
<stop stop-color="#599DB0"/>
<stop offset="1" stop-color="#47F8C3"/>
</linearGradient>
<linearGradient id="paint1_linear_16691_3917" x1="21.5784" y1="6.93026" x2="31.2308" y2="6.85605" gradientUnits="userSpaceOnUse">
<stop stop-color="#C44FE2"/>
<stop offset="1" stop-color="#73B0D0"/>
</linearGradient>
<linearGradient id="paint2_linear_16691_3917" x1="22.1231" y1="8.42234" x2="30.6845" y2="8.42234" gradientUnits="userSpaceOnUse">
<stop stop-color="#778CBF"/>
<stop offset="1" stop-color="#5DCDC9"/>
</linearGradient>
<clipPath id="clip0_16691_3917">
<rect width="16.8417" height="16.8417" fill="white"/>
</clipPath>
<clipPath id="clip1_16691_3917">
<rect width="16.8417" height="16.8417" fill="white" transform="translate(6.31445)"/>
</clipPath>
</defs>
</svg>
