<svg width="19" height="19" viewBox="0 0 19 19" fill="none" xmlns="http://www.w3.org/2000/svg">
<path d="M6.17046 2.37749C5.50268 2.22085 4.8077 2.22085 4.13992 2.37749C3.26531 2.58265 2.5824 3.26555 2.37725 4.14016C2.22061 4.80795 2.22061 5.50292 2.37725 6.17071C2.5824 7.04532 3.26531 7.72822 4.13992 7.93338C4.8077 8.09002 5.50268 8.09002 6.17046 7.93338C7.04508 7.72822 7.72798 7.04532 7.93314 6.17071C8.08978 5.50292 8.08978 4.80795 7.93314 4.14016C7.72798 3.26555 7.04508 2.58265 6.17046 2.37749Z" fill="#BFBFBF"/>
<path d="M6.17046 10.1466C5.50268 9.99 4.8077 9.99 4.13992 10.1466C3.26531 10.3518 2.5824 11.0347 2.37725 11.9093C2.22061 12.5771 2.22061 13.2721 2.37725 13.9399C2.5824 14.8145 3.26531 15.4974 4.13992 15.7025C4.8077 15.8592 5.50268 15.8592 6.17046 15.7025C7.04508 15.4974 7.72798 14.8145 7.93314 13.9399C8.08978 13.2721 8.08978 12.5771 7.93314 11.9093C7.72798 11.0347 7.04508 10.3518 6.17046 10.1466Z" fill="#BFBFBF"/>
<path d="M13.9396 2.37749C13.2718 2.22085 12.5769 2.22085 11.9091 2.37749C11.0345 2.58265 10.3516 3.26555 10.1464 4.14016C9.98975 4.80795 9.98975 5.50292 10.1464 6.17071C10.3516 7.04532 11.0345 7.72822 11.9091 7.93338C12.5769 8.09002 13.2718 8.09002 13.9396 7.93338C14.8142 7.72822 15.4971 7.04532 15.7023 6.17071C15.8589 5.50292 15.8589 4.80795 15.7023 4.14016C15.4971 3.26555 14.8142 2.58265 13.9396 2.37749Z" fill="#BFBFBF"/>
<path d="M13.9396 10.1466C13.2718 9.99 12.5769 9.99 11.9091 10.1466C11.0345 10.3518 10.3516 11.0347 10.1464 11.9093C9.98975 12.5771 9.98975 13.2721 10.1464 13.9399C10.3516 14.8145 11.0345 15.4974 11.9091 15.7025C12.5769 15.8592 13.2718 15.8592 13.9396 15.7025C14.8142 15.4974 15.4971 14.8145 15.7023 13.9399C15.8589 13.2721 15.8589 12.5771 15.7023 11.9093C15.4971 11.0347 14.8142 10.3518 13.9396 10.1466Z" fill="#BFBFBF"/>
</svg>
