<svg width="42" height="42" viewBox="0 0 42 42" fill="none" xmlns="http://www.w3.org/2000/svg">
<rect width="41.7273" height="41.7273" rx="20.8636" fill="#FFEAF5"/>
<g clip-path="url(#clip0_16691_4012)">
<path d="M20.8626 25.3635C21.2605 25.3635 21.642 25.5216 21.9233 25.8029C22.2046 26.0842 22.3626 26.4657 22.3626 26.8635C22.3626 27.2614 22.2046 27.6429 21.9233 27.9242C21.642 28.2055 21.2605 28.3635 20.8626 28.3635C20.4648 28.3635 20.0833 28.2055 19.802 27.9242C19.5207 27.6429 19.3626 27.2614 19.3626 26.8635C19.3626 26.4657 19.5207 26.0842 19.802 25.8029C20.0833 25.5216 20.4648 25.3635 20.8626 25.3635ZM20.8626 21.3635C21.5849 21.3629 22.3002 21.5048 22.9676 21.781C23.6349 22.0573 24.2412 22.4625 24.7516 22.9735C25.0248 23.2451 25.1829 23.6114 25.1934 23.9965C25.2038 24.3815 25.0657 24.7558 24.8077 25.0418C24.5498 25.3278 24.1916 25.5036 23.8075 25.5328C23.4235 25.562 23.0429 25.4423 22.7446 25.1985L22.6306 25.0955C22.3988 24.8629 22.1233 24.6784 21.8198 24.5528C21.5164 24.4271 21.1911 24.3628 20.8626 24.3635C20.2406 24.3635 19.6736 24.5885 19.2356 24.9645L19.0956 25.0955C18.8144 25.3769 18.4329 25.5351 18.035 25.5352C17.6371 25.5353 17.2555 25.3773 16.9741 25.096C16.6927 24.8148 16.5346 24.4332 16.5345 24.0354C16.5344 23.6375 16.6924 23.2559 16.9736 22.9745C17.484 22.4633 18.0902 22.0578 18.7575 21.7813C19.4249 21.5049 20.1403 21.3629 20.8626 21.3635ZM20.8626 17.3635C23.4856 17.3635 25.8626 18.4285 27.5796 20.1465C27.727 20.2839 27.8452 20.4495 27.9272 20.6335C28.0092 20.8175 28.0533 21.0161 28.0568 21.2175C28.0604 21.4189 28.0233 21.619 27.9479 21.8057C27.8724 21.9925 27.7602 22.1622 27.6177 22.3046C27.4753 22.447 27.3056 22.5593 27.1188 22.6348C26.9321 22.7102 26.732 22.7473 26.5306 22.7437C26.3292 22.7402 26.1306 22.6961 25.9466 22.6141C25.7626 22.5321 25.597 22.4139 25.4596 22.2665C24.8567 21.6619 24.1402 21.1825 23.3512 20.8559C22.5623 20.5293 21.7165 20.362 20.8626 20.3635C20.0089 20.3622 19.1633 20.5298 18.3745 20.8565C17.5857 21.1833 16.8694 21.6628 16.2666 22.2675C15.9854 22.5489 15.6039 22.7071 15.206 22.7072C14.8081 22.7073 14.4265 22.5493 14.1451 22.268C13.8637 21.9868 13.7056 21.6052 13.7055 21.2074C13.7054 20.8095 13.8634 20.4279 14.1446 20.1465C15.026 19.2631 16.0732 18.5625 17.226 18.0849C18.3789 17.6073 19.6148 17.3622 20.8626 17.3635ZM20.8626 13.3635C24.5896 13.3635 27.9676 14.8765 30.4086 17.3175C30.5479 17.4569 30.6584 17.6223 30.7337 17.8043C30.8091 17.9863 30.8478 18.1814 30.8478 18.3784C30.8477 18.5754 30.8089 18.7704 30.7334 18.9524C30.658 19.1344 30.5475 19.2998 30.4081 19.439C30.2688 19.5783 30.1034 19.6888 29.9214 19.7641C29.7394 19.8395 29.5443 19.8782 29.3473 19.8782C29.1503 19.8781 28.9552 19.8393 28.7732 19.7638C28.5913 19.6884 28.4259 19.5779 28.2866 19.4385C27.3129 18.462 26.1557 17.6876 24.8816 17.1598C23.6076 16.6321 22.2417 16.3615 20.8626 16.3635C17.9626 16.3635 15.3396 17.5375 13.4376 19.4385C13.2999 19.5842 13.1344 19.7008 12.9508 19.7814C12.7672 19.8621 12.5693 19.905 12.3689 19.9079C12.1684 19.9107 11.9694 19.8733 11.7836 19.7979C11.5978 19.7226 11.429 19.6107 11.2872 19.4689C11.1454 19.3272 11.0335 19.1585 10.958 18.9727C10.8825 18.787 10.8451 18.588 10.8478 18.3875C10.8505 18.1871 10.8934 17.9892 10.974 17.8056C11.0545 17.6219 11.171 17.4563 11.3166 17.3185C12.5689 16.0631 14.0569 15.0674 15.6951 14.3887C17.3333 13.71 19.0894 13.3616 20.8626 13.3635Z" fill="#FF2E9B"/>
</g>
<defs>
<clipPath id="clip0_16691_4012">
<rect width="24" height="24" fill="white" transform="translate(8.86328 8.86353)"/>
</clipPath>
</defs>
</svg>
