<svg width="24" height="24" viewBox="0 0 24 24" fill="none" xmlns="http://www.w3.org/2000/svg">
<g clip-path="url(#clip0_16790_1950)">
<path d="M3.05175 9.31C3.00924 9.18305 2.99266 9.04887 3.00298 8.91539C3.0133 8.78192 3.05031 8.65187 3.11183 8.53297C3.17334 8.41407 3.25811 8.30873 3.36109 8.22319C3.46408 8.13766 3.58319 8.07368 3.71137 8.03504C3.83954 7.9964 3.97417 7.98389 4.10727 7.99825C4.24037 8.01261 4.36924 8.05355 4.48622 8.11864C4.6032 8.18373 4.70592 8.27165 4.7883 8.37718C4.87067 8.48271 4.93101 8.60371 4.96575 8.733C7.05175 15.719 16.9477 15.72 19.0357 8.737C19.0732 8.61106 19.135 8.49373 19.2178 8.3917C19.3006 8.28967 19.4026 8.20494 19.5182 8.14236C19.6337 8.07977 19.7604 8.04055 19.8911 8.02693C20.0217 8.01332 20.1538 8.02557 20.2797 8.063C20.4057 8.10042 20.523 8.16229 20.625 8.24506C20.7271 8.32784 20.8118 8.42989 20.8744 8.54541C20.937 8.66092 20.9762 8.78764 20.9898 8.91831C21.0034 9.04898 20.9912 9.18106 20.9537 9.307C20.5899 10.5582 19.9728 11.7212 19.1407 12.724L20.4157 14C20.5979 14.1886 20.6987 14.4412 20.6964 14.7034C20.6941 14.9656 20.589 15.2164 20.4036 15.4018C20.2182 15.5872 19.9673 15.6924 19.7052 15.6947C19.443 15.697 19.1904 15.5962 19.0017 15.414L17.6907 14.103C16.9832 14.6365 16.2017 15.064 15.3707 15.372L15.7277 16.707C15.7658 16.835 15.7779 16.9694 15.7632 17.1022C15.7484 17.235 15.7073 17.3635 15.6421 17.4801C15.5769 17.5967 15.489 17.6991 15.3836 17.7811C15.2782 17.8632 15.1574 17.9233 15.0283 17.9579C14.8993 17.9925 14.7646 18.0009 14.6323 17.9827C14.5 17.9644 14.3726 17.9197 14.2578 17.8514C14.143 17.7831 14.0431 17.6925 13.9639 17.5849C13.8847 17.4773 13.8279 17.3549 13.7967 17.225L13.4327 15.868C12.4857 16.008 11.5177 16.008 10.5707 15.868L10.2067 17.225C10.1756 17.3549 10.1188 17.4773 10.0396 17.5849C9.96041 17.6925 9.86046 17.7831 9.74565 17.8514C9.63085 17.9197 9.50352 17.9644 9.37119 17.9827C9.23885 18.0009 9.10419 17.9925 8.97516 17.9579C8.84613 17.9233 8.72534 17.8632 8.61993 17.7811C8.51451 17.6991 8.42662 17.5967 8.36142 17.4801C8.29622 17.3635 8.25505 17.235 8.24034 17.1022C8.22562 16.9694 8.23767 16.835 8.27575 16.707L8.63275 15.372C7.8018 15.0637 7.02025 14.6358 6.31275 14.102L5.00275 15.414C4.81524 15.6018 4.56082 15.7074 4.29546 15.7076C4.03009 15.7077 3.77552 15.6025 3.58775 15.415C3.39998 15.2275 3.29438 14.9731 3.29419 14.7077C3.29401 14.4423 3.39924 14.1878 3.58675 14L4.86175 12.725C4.07775 11.789 3.45175 10.651 3.04975 9.311L3.05175 9.31Z" fill="white"/>
</g>
<defs>
<clipPath id="clip0_16790_1950">
<rect width="24" height="24" fill="white"/>
</clipPath>
</defs>
</svg>
