<svg width="42" height="42" viewBox="0 0 42 42" fill="none" xmlns="http://www.w3.org/2000/svg">
<rect width="41.7273" height="41.7273" rx="20.8636" fill="#FDF5EA"/>
<path d="M14.171 16.7492C14.171 14.6032 15.9274 12.8635 18.0941 12.8635C20.2607 12.8635 22.0171 14.6032 22.0171 16.7492C22.0171 18.8953 20.2607 20.635 18.0941 20.635C15.9274 20.635 14.171 18.8953 14.171 16.7492Z" fill="#EE9C2E"/>
<path d="M15.6145 22.3897L15.7789 22.3637C17.3126 22.1212 18.8755 22.1212 20.4092 22.3637L20.5736 22.3897C22.7347 22.7313 24.3248 24.5776 24.3248 26.7452C24.3248 27.9151 23.3673 28.8635 22.1861 28.8635H14.002C12.8208 28.8635 11.8633 27.9151 11.8633 26.7452C11.8633 24.5776 13.4534 22.7313 15.6145 22.3897Z" fill="#EE9C2E"/>
<path d="M23.6325 12.8635C23.2502 12.8635 22.9402 13.1705 22.9402 13.5492C22.9402 13.9279 23.2502 14.235 23.6325 14.235C25.0345 14.235 26.171 15.3606 26.171 16.7492C26.171 18.1378 25.0345 19.2635 23.6325 19.2635C23.2502 19.2635 22.9402 19.5705 22.9402 19.9492C22.9402 20.3279 23.2502 20.635 23.6325 20.635C25.7992 20.635 27.5556 18.8953 27.5556 16.7492C27.5556 14.6032 25.7992 12.8635 23.6325 12.8635Z" fill="#EE9C2E"/>
<path d="M24.7782 22.3551C24.3959 22.3551 24.0859 22.6621 24.0859 23.0408C24.0859 23.4195 24.3959 23.7265 24.7782 23.7265H25.6719C25.7462 23.7265 25.8206 23.7324 25.8938 23.7439C27.3829 23.9793 28.4787 25.2516 28.4787 26.7452C28.4787 27.1577 28.141 27.4921 27.7245 27.4921H25.8385C25.4562 27.4921 25.1462 27.7991 25.1462 28.1778C25.1462 28.5565 25.4562 28.8635 25.8385 28.8635H27.7245C28.9057 28.8635 29.8633 27.9151 29.8633 26.7452C29.8633 24.5776 28.2731 22.7313 26.112 22.3897C25.9665 22.3666 25.8192 22.3551 25.6719 22.3551H24.7782Z" fill="#EE9C2E"/>
</svg>
