<svg width="14" height="14" viewBox="0 0 14 14" fill="none" xmlns="http://www.w3.org/2000/svg">
<path d="M13.4072 6.61584C13.6109 6.41083 13.6109 6.07845 13.4072 5.87344L9.09006 1.52792C8.64828 1.08321 8.27989 0.712379 7.94811 0.457579C7.59792 0.188635 7.22792 0 6.78 0C6.33208 0 5.96208 0.188636 5.61189 0.45758C5.2801 0.712382 4.91172 1.08321 4.46994 1.52792L0.152755 5.87344C-0.0509184 6.07845 -0.0509184 6.41083 0.152755 6.61584C0.356428 6.82085 0.686648 6.82085 0.890322 6.61584L1.1891 6.3151V8.61299C1.1891 10.8686 2.73154 12.8275 4.91321 13.3426C6.14107 13.6325 7.41892 13.6325 8.64678 13.3426C10.8284 12.8275 12.3709 10.8686 12.3709 8.61299V6.31509L12.6697 6.61584C12.8734 6.82085 13.2036 6.82085 13.4072 6.61584Z" fill="#6A59CE"/>
</svg>
