<svg width="20" height="20" viewBox="0 0 20 20" fill="none" xmlns="http://www.w3.org/2000/svg">
<path fill-rule="evenodd" clip-rule="evenodd" d="M7.52479 2.78642C9.15283 2.40453 10.8472 2.40453 12.4752 2.78642C14.8263 3.33791 16.6621 5.17368 17.2136 7.52479C17.5955 9.15284 17.5955 10.8472 17.2136 12.4752C16.6621 14.8263 14.8263 16.6621 12.4752 17.2136C10.8472 17.5955 9.15284 17.5955 7.52479 17.2136C5.17368 16.6621 3.33791 14.8263 2.78642 12.4752C2.40453 10.8472 2.40453 9.15283 2.78642 7.52479C3.33791 5.17368 5.17368 3.33791 7.52479 2.78642ZM10.4786 7.60679C10.4786 7.34244 10.2643 7.12814 9.99998 7.12814C9.73563 7.12814 9.52134 7.34244 9.52134 7.60679L9.52134 11.5955C9.52134 11.8598 9.73563 12.0741 9.99998 12.0741C10.2643 12.0741 10.4786 11.8598 10.4786 11.5955V7.60679ZM8.08541 9.20226C8.08541 8.93792 7.87111 8.72362 7.60676 8.72362C7.34242 8.72362 7.12812 8.93792 7.12812 9.20226V12.3932C7.12812 12.6576 7.34242 12.8719 7.60676 12.8719C7.87111 12.8719 8.08541 12.6576 8.08541 12.3932V9.20226ZM12.8718 10C12.8718 9.73566 12.6575 9.52136 12.3932 9.52136C12.1288 9.52136 11.9146 9.73566 11.9146 10V12.3932C11.9146 12.6576 12.1288 12.8719 12.3932 12.8719C12.6575 12.8719 12.8718 12.6576 12.8718 12.3932V10Z" fill="#BFBFBF"/>
</svg>
