<svg width="24" height="24" viewBox="0 0 24 24" fill="none" xmlns="http://www.w3.org/2000/svg">
<path fill-rule="evenodd" clip-rule="evenodd" d="M3.3303 8.96916C2.8899 10.9655 2.8899 13.0345 3.3303 15.0308L3.42243 15.4484C4.03749 18.2366 6.17136 20.4347 8.93119 21.123C10.9465 21.6257 13.0536 21.6257 15.0688 21.123C17.8286 20.4347 19.9625 18.2366 20.5776 15.4485L20.6697 15.0308C21.1101 13.0345 21.1101 10.9655 20.6697 8.96917L20.5776 8.55156C19.9625 5.76343 17.8286 3.56533 15.0688 2.87698C13.0535 2.37434 10.9465 2.37434 8.9312 2.87698C6.17136 3.56533 4.03749 5.76342 3.42243 8.55155L3.3303 8.96916ZM9.80778 6.05667C9.74389 5.6797 9.72114 5.29805 9.73871 4.91934C9.75801 4.50322 10.0825 4.1757 10.4936 4.11977C11.4933 3.98375 12.5067 3.98375 13.5064 4.11976C13.9175 4.17569 14.242 4.50322 14.2613 4.91933C14.2789 5.29805 14.2561 5.6797 14.1922 6.05667L14.1797 6.13063C14.0133 7.11258 13.3507 7.87128 12.5159 8.12782C12.1783 8.23156 11.8217 8.23156 11.4841 8.12782C10.6493 7.87128 9.98674 7.11258 9.82032 6.13063L9.80778 6.05667ZM8.97732 16.6544C8.64344 16.6544 8.37278 16.3826 8.37278 16.0473L8.37278 12C8.37278 11.6647 8.64344 11.3929 8.97732 11.3929C9.3112 11.3929 9.58186 11.6647 9.58186 12L9.58186 16.0473C9.58186 16.3826 9.3112 16.6544 8.97732 16.6544Z" fill="#6A59CE"/>
</svg>
